%TF.GenerationSoftware,KiCad,Pcbnew,7.0.7*%
%TF.CreationDate,2024-02-18T16:08:08+01:00*%
%TF.ProjectId,kingslayer-28,6b696e67-736c-4617-9965-722d32382e6b,rev?*%
%TF.SameCoordinates,Original*%
%TF.FileFunction,Copper,L1,Top*%
%TF.FilePolarity,Positive*%
%FSLAX46Y46*%
G04 Gerber Fmt 4.6, Leading zero omitted, Abs format (unit mm)*
G04 Created by KiCad (PCBNEW 7.0.7) date 2024-02-18 16:08:08*
%MOMM*%
%LPD*%
G01*
G04 APERTURE LIST*
G04 Aperture macros list*
%AMRoundRect*
0 Rectangle with rounded corners*
0 $1 Rounding radius*
0 $2 $3 $4 $5 $6 $7 $8 $9 X,Y pos of 4 corners*
0 Add a 4 corners polygon primitive as box body*
4,1,4,$2,$3,$4,$5,$6,$7,$8,$9,$2,$3,0*
0 Add four circle primitives for the rounded corners*
1,1,$1+$1,$2,$3*
1,1,$1+$1,$4,$5*
1,1,$1+$1,$6,$7*
1,1,$1+$1,$8,$9*
0 Add four rect primitives between the rounded corners*
20,1,$1+$1,$2,$3,$4,$5,0*
20,1,$1+$1,$4,$5,$6,$7,0*
20,1,$1+$1,$6,$7,$8,$9,0*
20,1,$1+$1,$8,$9,$2,$3,0*%
%AMOutline4P*
0 Free polygon, 4 corners , with rotation*
0 The origin of the aperture is its center*
0 number of corners: always 4*
0 $1 to $8 corner X, Y*
0 $9 Rotation angle, in degrees counterclockwise*
0 create outline with 4 corners*
4,1,4,$1,$2,$3,$4,$5,$6,$7,$8,$1,$2,$9*%
%AMFreePoly0*
4,1,14,0.123607,0.380423,0.235114,0.323607,0.323607,0.235114,0.380423,0.123607,0.400000,0.000000,0.380423,-0.123607,0.323607,-0.235114,0.235114,-0.323607,0.123607,-0.380423,0.000000,-0.400000,-0.900000,-0.400000,-0.900000,0.400000,0.000000,0.400000,0.123607,0.380423,0.123607,0.380423,$1*%
G04 Aperture macros list end*
%TA.AperFunction,SMDPad,CuDef*%
%ADD10R,1.800000X1.340000*%
%TD*%
%TA.AperFunction,SMDPad,CuDef*%
%ADD11RoundRect,0.250000X-0.337500X-0.475000X0.337500X-0.475000X0.337500X0.475000X-0.337500X0.475000X0*%
%TD*%
%TA.AperFunction,SMDPad,CuDef*%
%ADD12R,1.400000X1.000000*%
%TD*%
%TA.AperFunction,SMDPad,CuDef*%
%ADD13R,0.200000X0.850000*%
%TD*%
%TA.AperFunction,SMDPad,CuDef*%
%ADD14R,0.850000X0.200000*%
%TD*%
%TA.AperFunction,SMDPad,CuDef*%
%ADD15R,2.400000X2.400000*%
%TD*%
%TA.AperFunction,SMDPad,CuDef*%
%ADD16Outline4P,-0.650000X-0.400000X0.650000X-0.400000X0.650000X0.400000X-0.650000X0.400000X0.000000*%
%TD*%
%TA.AperFunction,SMDPad,CuDef*%
%ADD17FreePoly0,0.000000*%
%TD*%
%TA.AperFunction,SMDPad,CuDef*%
%ADD18RoundRect,0.250000X-0.475000X0.337500X-0.475000X-0.337500X0.475000X-0.337500X0.475000X0.337500X0*%
%TD*%
%TA.AperFunction,SMDPad,CuDef*%
%ADD19RoundRect,0.250000X0.400000X0.625000X-0.400000X0.625000X-0.400000X-0.625000X0.400000X-0.625000X0*%
%TD*%
%TA.AperFunction,SMDPad,CuDef*%
%ADD20R,1.475000X0.300000*%
%TD*%
%TA.AperFunction,SMDPad,CuDef*%
%ADD21R,0.300000X1.475000*%
%TD*%
%TA.AperFunction,SMDPad,CuDef*%
%ADD22R,1.020000X1.470000*%
%TD*%
%TA.AperFunction,SMDPad,CuDef*%
%ADD23RoundRect,0.250000X-0.625000X0.400000X-0.625000X-0.400000X0.625000X-0.400000X0.625000X0.400000X0*%
%TD*%
%TA.AperFunction,SMDPad,CuDef*%
%ADD24R,1.470000X1.020000*%
%TD*%
%TA.AperFunction,SMDPad,CuDef*%
%ADD25R,1.520000X1.000000*%
%TD*%
%TA.AperFunction,SMDPad,CuDef*%
%ADD26RoundRect,0.237500X-0.237500X0.300000X-0.237500X-0.300000X0.237500X-0.300000X0.237500X0.300000X0*%
%TD*%
%TA.AperFunction,SMDPad,CuDef*%
%ADD27R,1.000000X1.450000*%
%TD*%
%TA.AperFunction,SMDPad,CuDef*%
%ADD28R,1.450000X1.000000*%
%TD*%
%TA.AperFunction,SMDPad,CuDef*%
%ADD29RoundRect,0.250000X-0.400000X-0.625000X0.400000X-0.625000X0.400000X0.625000X-0.400000X0.625000X0*%
%TD*%
%TA.AperFunction,SMDPad,CuDef*%
%ADD30RoundRect,0.250000X-0.875000X-1.025000X0.875000X-1.025000X0.875000X1.025000X-0.875000X1.025000X0*%
%TD*%
%TA.AperFunction,SMDPad,CuDef*%
%ADD31R,2.000000X7.875000*%
%TD*%
%TA.AperFunction,SMDPad,CuDef*%
%ADD32R,1.750000X0.950000*%
%TD*%
%TA.AperFunction,SMDPad,CuDef*%
%ADD33R,1.750000X3.200000*%
%TD*%
%TA.AperFunction,ComponentPad*%
%ADD34C,0.650000*%
%TD*%
%TA.AperFunction,ComponentPad*%
%ADD35O,2.400000X0.900000*%
%TD*%
%TA.AperFunction,ComponentPad*%
%ADD36O,1.700000X0.900000*%
%TD*%
%TA.AperFunction,ComponentPad*%
%ADD37R,1.350000X1.350000*%
%TD*%
%TA.AperFunction,ComponentPad*%
%ADD38O,1.350000X1.350000*%
%TD*%
%TA.AperFunction,SMDPad,CuDef*%
%ADD39R,1.700000X1.000000*%
%TD*%
%TA.AperFunction,SMDPad,CuDef*%
%ADD40RoundRect,0.237500X0.237500X-0.300000X0.237500X0.300000X-0.237500X0.300000X-0.237500X-0.300000X0*%
%TD*%
%TA.AperFunction,ComponentPad*%
%ADD41R,1.308000X1.308000*%
%TD*%
%TA.AperFunction,ComponentPad*%
%ADD42C,1.308000*%
%TD*%
%TA.AperFunction,ComponentPad*%
%ADD43O,1.230000X2.460000*%
%TD*%
%TA.AperFunction,SMDPad,CuDef*%
%ADD44R,2.550000X2.500000*%
%TD*%
%TA.AperFunction,ViaPad*%
%ADD45C,0.800000*%
%TD*%
%TA.AperFunction,ViaPad*%
%ADD46C,0.700000*%
%TD*%
%TA.AperFunction,Conductor*%
%ADD47C,0.300000*%
%TD*%
%TA.AperFunction,Conductor*%
%ADD48C,0.500000*%
%TD*%
%TA.AperFunction,Conductor*%
%ADD49C,0.200000*%
%TD*%
%TA.AperFunction,Conductor*%
%ADD50C,0.250000*%
%TD*%
G04 APERTURE END LIST*
D10*
%TO.P,D14,1*%
%TO.N,row2*%
X179077848Y-95885000D03*
%TO.P,D14,2*%
%TO.N,Net-(D14-Pad2)*%
X179077848Y-93025000D03*
%TD*%
%TO.P,D18,1*%
%TO.N,row3*%
X131577848Y-114885000D03*
%TO.P,D18,2*%
%TO.N,Net-(D18-Pad2)*%
X131577848Y-112025000D03*
%TD*%
%TO.P,D15,1*%
%TO.N,row2*%
X160077848Y-95885000D03*
%TO.P,D15,2*%
%TO.N,Net-(D15-Pad2)*%
X160077848Y-93025000D03*
%TD*%
D11*
%TO.P,C9,1*%
%TO.N,+5V*%
X98657500Y-94208600D03*
%TO.P,C9,2*%
%TO.N,GND*%
X100732500Y-94208600D03*
%TD*%
D10*
%TO.P,D9,1*%
%TO.N,row1*%
X145827848Y-76885000D03*
%TO.P,D9,2*%
%TO.N,Net-(D9-Pad2)*%
X145827848Y-74025000D03*
%TD*%
D12*
%TO.P,R6,1*%
%TO.N,+5V*%
X105486200Y-95971400D03*
%TO.P,R6,2*%
%TO.N,GND*%
X105486200Y-94071400D03*
%TD*%
D13*
%TO.P,IC2,1,CA9*%
%TO.N,ca9*%
X101219000Y-97573000D03*
%TO.P,IC2,2,VCC*%
%TO.N,+5V*%
X100819000Y-97573000D03*
%TO.P,IC2,3,SDB*%
X100419000Y-97573000D03*
%TO.P,IC2,4,INTB*%
%TO.N,intb*%
X100019000Y-97573000D03*
%TO.P,IC2,5,GND*%
%TO.N,GND*%
X99619000Y-97573000D03*
%TO.P,IC2,6,R_EXT*%
%TO.N,r_ext*%
X99219000Y-97573000D03*
%TO.P,IC2,7,CB1*%
%TO.N,cb1*%
X98819000Y-97573000D03*
D14*
%TO.P,IC2,8,CB2*%
%TO.N,cb2*%
X98069000Y-98323000D03*
%TO.P,IC2,9,CB3*%
%TO.N,cb3*%
X98069000Y-98723000D03*
%TO.P,IC2,10,CB4*%
%TO.N,cb4*%
X98069000Y-99123000D03*
%TO.P,IC2,11,CB5*%
%TO.N,cb5*%
X98069000Y-99523000D03*
%TO.P,IC2,12,CB6*%
%TO.N,cb6*%
X98069000Y-99923000D03*
%TO.P,IC2,13,CB7*%
%TO.N,cb7*%
X98069000Y-100323000D03*
%TO.P,IC2,14,CB8*%
%TO.N,cb8*%
X98069000Y-100723000D03*
D13*
%TO.P,IC2,15,CB9*%
%TO.N,cb9*%
X98819000Y-101473000D03*
%TO.P,IC2,16,C_FILT*%
%TO.N,c_filt*%
X99219000Y-101473000D03*
%TO.P,IC2,17,IN*%
%TO.N,unconnected-(IC2-IN-Pad17)*%
X99619000Y-101473000D03*
%TO.P,IC2,18,AD*%
%TO.N,GND*%
X100019000Y-101473000D03*
%TO.P,IC2,19,SDA*%
%TO.N,/RGB/sda*%
X100419000Y-101473000D03*
%TO.P,IC2,20,SCL*%
%TO.N,/RGB/scl*%
X100819000Y-101473000D03*
%TO.P,IC2,21,CA1*%
%TO.N,ca1*%
X101219000Y-101473000D03*
D14*
%TO.P,IC2,22,CA2*%
%TO.N,ca2*%
X101969000Y-100723000D03*
%TO.P,IC2,23,CA3*%
%TO.N,ca3*%
X101969000Y-100323000D03*
%TO.P,IC2,24,CA4*%
%TO.N,ca4*%
X101969000Y-99923000D03*
%TO.P,IC2,25,CA5*%
%TO.N,ca5*%
X101969000Y-99523000D03*
%TO.P,IC2,26,CA6*%
%TO.N,ca6*%
X101969000Y-99123000D03*
%TO.P,IC2,27,CA7*%
%TO.N,ca7*%
X101969000Y-98723000D03*
%TO.P,IC2,28,CA8*%
%TO.N,ca8*%
X101969000Y-98323000D03*
D15*
%TO.P,IC2,29,PAD*%
%TO.N,GND*%
X100019000Y-99523000D03*
%TD*%
D16*
%TO.P,D48,1,BK*%
%TO.N,cb6*%
X143502848Y-136675000D03*
%TO.P,D48,2,A*%
%TO.N,cb7*%
X143502848Y-135075000D03*
%TO.P,D48,3,GK*%
%TO.N,cb5*%
X148602848Y-136675000D03*
D17*
%TO.P,D48,4,RK*%
%TO.N,cb4*%
X148852848Y-135075000D03*
%TD*%
D10*
%TO.P,D21,1*%
%TO.N,row3*%
X188577848Y-114885000D03*
%TO.P,D21,2*%
%TO.N,Net-(D21-Pad2)*%
X188577848Y-112025000D03*
%TD*%
%TO.P,D12,1*%
%TO.N,row1*%
X207577848Y-76885000D03*
%TO.P,D12,2*%
%TO.N,Net-(D12-Pad2)*%
X207577848Y-74025000D03*
%TD*%
D18*
%TO.P,C11,1*%
%TO.N,+5V*%
X83561648Y-85170100D03*
%TO.P,C11,2*%
%TO.N,GND*%
X83561648Y-87245100D03*
%TD*%
D10*
%TO.P,D28,1*%
%TO.N,row4*%
X126827848Y-133885000D03*
%TO.P,D28,2*%
%TO.N,Net-(D28-Pad2)*%
X126827848Y-131025000D03*
%TD*%
D19*
%TO.P,R5,1*%
%TO.N,+3V3*%
X103069448Y-68224400D03*
%TO.P,R5,2*%
%TO.N,/RGB/sda*%
X99969448Y-68224400D03*
%TD*%
D16*
%TO.P,D55,1,BK*%
%TO.N,cb3*%
X100602848Y-117675000D03*
%TO.P,D55,2,A*%
%TO.N,cb9*%
X100602848Y-116075000D03*
%TO.P,D55,3,GK*%
%TO.N,cb2*%
X105702848Y-117675000D03*
D17*
%TO.P,D55,4,RK*%
%TO.N,cb1*%
X105952848Y-116075000D03*
%TD*%
D10*
%TO.P,D27,1*%
%TO.N,row4*%
X155327848Y-133885000D03*
%TO.P,D27,2*%
%TO.N,Net-(D27-Pad2)*%
X155327848Y-131025000D03*
%TD*%
D16*
%TO.P,D51,1,BK*%
%TO.N,ca9*%
X110102848Y-98675000D03*
%TO.P,D51,2,A*%
%TO.N,ca5*%
X110102848Y-97075000D03*
%TO.P,D51,3,GK*%
%TO.N,ca8*%
X115202848Y-98675000D03*
D17*
%TO.P,D51,4,RK*%
%TO.N,ca7*%
X115452848Y-97075000D03*
%TD*%
D20*
%TO.P,IC1,1,VBAT*%
%TO.N,+3V3*%
X98950248Y-81109000D03*
%TO.P,IC1,2,PC13*%
%TO.N,unconnected-(IC1-PC13-Pad2)*%
X98950248Y-80609000D03*
%TO.P,IC1,3,PC14/OSC32_IN*%
%TO.N,unconnected-(IC1-PC14{slash}OSC32_IN-Pad3)*%
X98950248Y-80109000D03*
%TO.P,IC1,4,PC15/OSC32_OUT*%
%TO.N,unconnected-(IC1-PC15{slash}OSC32_OUT-Pad4)*%
X98950248Y-79609000D03*
%TO.P,IC1,5,PF0/OSC_IN*%
%TO.N,xtal1*%
X98950248Y-79109000D03*
%TO.P,IC1,6,PF1/OSC_OUT*%
%TO.N,xtal2*%
X98950248Y-78609000D03*
%TO.P,IC1,7,NRST*%
%TO.N,nrst*%
X98950248Y-78109000D03*
%TO.P,IC1,8,VSSA/VREF-*%
%TO.N,GND*%
X98950248Y-77609000D03*
%TO.P,IC1,9,VDDA*%
%TO.N,+3V3*%
X98950248Y-77109000D03*
%TO.P,IC1,10,PA0*%
%TO.N,row0*%
X98950248Y-76609000D03*
%TO.P,IC1,11,PA1*%
%TO.N,row1*%
X98950248Y-76109000D03*
%TO.P,IC1,12,PA2*%
%TO.N,row2*%
X98950248Y-75609000D03*
D21*
%TO.P,IC1,13,PA3*%
%TO.N,row3*%
X97462248Y-74121000D03*
%TO.P,IC1,14,PA4*%
%TO.N,row4*%
X96962248Y-74121000D03*
%TO.P,IC1,15,PA5*%
%TO.N,col0*%
X96462248Y-74121000D03*
%TO.P,IC1,16,PA6*%
%TO.N,col1*%
X95962248Y-74121000D03*
%TO.P,IC1,17,PA7*%
%TO.N,col2*%
X95462248Y-74121000D03*
%TO.P,IC1,18,PB0*%
%TO.N,col3*%
X94962248Y-74121000D03*
%TO.P,IC1,19,PB1*%
%TO.N,col4*%
X94462248Y-74121000D03*
%TO.P,IC1,20,PB2*%
%TO.N,col5*%
X93962248Y-74121000D03*
%TO.P,IC1,21,PB10*%
%TO.N,col6*%
X93462248Y-74121000D03*
%TO.P,IC1,22,PB11*%
%TO.N,unconnected-(IC1-PB11-Pad22)*%
X92962248Y-74121000D03*
%TO.P,IC1,23,VSS_1*%
%TO.N,GND*%
X92462248Y-74121000D03*
%TO.P,IC1,24,VDD_1*%
%TO.N,+3V3*%
X91962248Y-74121000D03*
D20*
%TO.P,IC1,25,PB12*%
%TO.N,unconnected-(IC1-PB12-Pad25)*%
X90474248Y-75609000D03*
%TO.P,IC1,26,PB13*%
%TO.N,unconnected-(IC1-PB13-Pad26)*%
X90474248Y-76109000D03*
%TO.P,IC1,27,PB14*%
%TO.N,unconnected-(IC1-PB14-Pad27)*%
X90474248Y-76609000D03*
%TO.P,IC1,28,PB15*%
%TO.N,unconnected-(IC1-PB15-Pad28)*%
X90474248Y-77109000D03*
%TO.P,IC1,29,PA8*%
%TO.N,unconnected-(IC1-PA8-Pad29)*%
X90474248Y-77609000D03*
%TO.P,IC1,30,PA9*%
%TO.N,unconnected-(IC1-PA9-Pad30)*%
X90474248Y-78109000D03*
%TO.P,IC1,31,PA10*%
%TO.N,unconnected-(IC1-PA10-Pad31)*%
X90474248Y-78609000D03*
%TO.P,IC1,32,PA11*%
%TO.N,d-*%
X90474248Y-79109000D03*
%TO.P,IC1,33,PA12*%
%TO.N,d+*%
X90474248Y-79609000D03*
%TO.P,IC1,34,PA13*%
%TO.N,swdio*%
X90474248Y-80109000D03*
%TO.P,IC1,35,VSS_2*%
%TO.N,GND*%
X90474248Y-80609000D03*
%TO.P,IC1,36,VDD_2*%
%TO.N,+3V3*%
X90474248Y-81109000D03*
D21*
%TO.P,IC1,37,PA14*%
%TO.N,swclk*%
X91962248Y-82597000D03*
%TO.P,IC1,38,PA15*%
%TO.N,unconnected-(IC1-PA15-Pad38)*%
X92462248Y-82597000D03*
%TO.P,IC1,39,PB3*%
%TO.N,unconnected-(IC1-PB3-Pad39)*%
X92962248Y-82597000D03*
%TO.P,IC1,40,PB4*%
%TO.N,unconnected-(IC1-PB4-Pad40)*%
X93462248Y-82597000D03*
%TO.P,IC1,41,PB5*%
%TO.N,unconnected-(IC1-PB5-Pad41)*%
X93962248Y-82597000D03*
%TO.P,IC1,42,PB6*%
%TO.N,unconnected-(IC1-PB6-Pad42)*%
X94462248Y-82597000D03*
%TO.P,IC1,43,PB7*%
%TO.N,unconnected-(IC1-PB7-Pad43)*%
X94962248Y-82597000D03*
%TO.P,IC1,44,BOOT0*%
%TO.N,boot0*%
X95462248Y-82597000D03*
%TO.P,IC1,45,PB8*%
%TO.N,/RGB/scl*%
X95962248Y-82597000D03*
%TO.P,IC1,46,PB9*%
%TO.N,/RGB/sda*%
X96462248Y-82597000D03*
%TO.P,IC1,47,VSS_3*%
%TO.N,GND*%
X96962248Y-82597000D03*
%TO.P,IC1,48,VDD_3*%
%TO.N,+3V3*%
X97462248Y-82597000D03*
%TD*%
D22*
%TO.P,C6,1*%
%TO.N,+3V3*%
X91352248Y-71721000D03*
%TO.P,C6,2*%
%TO.N,GND*%
X92972248Y-71721000D03*
%TD*%
D10*
%TO.P,D10,1*%
%TO.N,row1*%
X164827848Y-76885000D03*
%TO.P,D10,2*%
%TO.N,Net-(D10-Pad2)*%
X164827848Y-74025000D03*
%TD*%
%TO.P,D5,1*%
%TO.N,row0*%
X136327848Y-57885000D03*
%TO.P,D5,2*%
%TO.N,Net-(D5-Pad2)*%
X136327848Y-55025000D03*
%TD*%
D23*
%TO.P,R9,1*%
%TO.N,+3V3*%
X88209848Y-75819000D03*
%TO.P,R9,2*%
%TO.N,d+*%
X88209848Y-78919000D03*
%TD*%
D24*
%TO.P,C5,1*%
%TO.N,+3V3*%
X88540048Y-82217000D03*
%TO.P,C5,2*%
%TO.N,GND*%
X88540048Y-80597000D03*
%TD*%
D22*
%TO.P,C4,1*%
%TO.N,+3V3*%
X98722648Y-84709000D03*
%TO.P,C4,2*%
%TO.N,GND*%
X97102648Y-84709000D03*
%TD*%
D25*
%TO.P,F1,1*%
%TO.N,Net-(F1-Pad1)*%
X85873048Y-80752600D03*
%TO.P,F1,2*%
%TO.N,+5V*%
X85873048Y-82772600D03*
%TD*%
D26*
%TO.P,C2,1*%
%TO.N,xtal2*%
X103500648Y-74727900D03*
%TO.P,C2,2*%
%TO.N,GND*%
X103500648Y-76452900D03*
%TD*%
D24*
%TO.P,C3,1*%
%TO.N,+3V3*%
X101113048Y-76050400D03*
%TO.P,C3,2*%
%TO.N,GND*%
X101113048Y-77670400D03*
%TD*%
D27*
%TO.P,R7,1*%
%TO.N,Net-(USB1-CC1)*%
X86299848Y-68326000D03*
%TO.P,R7,2*%
%TO.N,GND*%
X84399848Y-68326000D03*
%TD*%
D16*
%TO.P,D49,1,BK*%
%TO.N,ca3*%
X124502848Y-60675000D03*
%TO.P,D49,2,A*%
%TO.N,ca8*%
X124502848Y-59075000D03*
%TO.P,D49,3,GK*%
%TO.N,ca2*%
X129602848Y-60675000D03*
D17*
%TO.P,D49,4,RK*%
%TO.N,ca1*%
X129852848Y-59075000D03*
%TD*%
D10*
%TO.P,D1,1*%
%TO.N,row0*%
X209952848Y-60260000D03*
%TO.P,D1,2*%
%TO.N,Net-(D1-Pad2)*%
X209952848Y-57400000D03*
%TD*%
D16*
%TO.P,D44,1,BK*%
%TO.N,ca3*%
X143521848Y-60794800D03*
%TO.P,D44,2,A*%
%TO.N,ca7*%
X143521848Y-59194800D03*
%TO.P,D44,3,GK*%
%TO.N,ca2*%
X148621848Y-60794800D03*
D17*
%TO.P,D44,4,RK*%
%TO.N,ca1*%
X148871848Y-59194800D03*
%TD*%
D16*
%TO.P,D37,1,BK*%
%TO.N,cb3*%
X176602848Y-117675000D03*
%TO.P,D37,2,A*%
%TO.N,cb5*%
X176602848Y-116075000D03*
%TO.P,D37,3,GK*%
%TO.N,cb2*%
X181702848Y-117675000D03*
D17*
%TO.P,D37,4,RK*%
%TO.N,cb1*%
X181952848Y-116075000D03*
%TD*%
D28*
%TO.P,R2,1*%
%TO.N,r_ext*%
X103428800Y-95971400D03*
%TO.P,R2,2*%
%TO.N,GND*%
X103428800Y-94071400D03*
%TD*%
D16*
%TO.P,D36,1,BK*%
%TO.N,ca9*%
X167102848Y-98675000D03*
%TO.P,D36,2,A*%
%TO.N,ca2*%
X167102848Y-97075000D03*
%TO.P,D36,3,GK*%
%TO.N,ca8*%
X172202848Y-98675000D03*
D17*
%TO.P,D36,4,RK*%
%TO.N,ca7*%
X172452848Y-97075000D03*
%TD*%
D29*
%TO.P,R4,1*%
%TO.N,+3V3*%
X94838648Y-68173600D03*
%TO.P,R4,2*%
%TO.N,/RGB/scl*%
X97938648Y-68173600D03*
%TD*%
D10*
%TO.P,D26,1*%
%TO.N,row4*%
X174327848Y-133885000D03*
%TO.P,D26,2*%
%TO.N,Net-(D26-Pad2)*%
X174327848Y-131025000D03*
%TD*%
%TO.P,D2,1*%
%TO.N,row0*%
X193327848Y-57885000D03*
%TO.P,D2,2*%
%TO.N,Net-(D2-Pad2)*%
X193327848Y-55025000D03*
%TD*%
D16*
%TO.P,D46,1,BK*%
%TO.N,ca9*%
X129102848Y-98675000D03*
%TO.P,D46,2,A*%
%TO.N,ca4*%
X129102848Y-97075000D03*
%TO.P,D46,3,GK*%
%TO.N,ca8*%
X134202848Y-98675000D03*
D17*
%TO.P,D46,4,RK*%
%TO.N,ca7*%
X134452848Y-97075000D03*
%TD*%
D16*
%TO.P,D50,1,BK*%
%TO.N,ca6*%
X114902848Y-79675000D03*
%TO.P,D50,2,A*%
%TO.N,ca8*%
X114902848Y-78075000D03*
%TO.P,D50,3,GK*%
%TO.N,ca5*%
X120002848Y-79675000D03*
D17*
%TO.P,D50,4,RK*%
%TO.N,ca4*%
X120252848Y-78075000D03*
%TD*%
D16*
%TO.P,D54,1,BK*%
%TO.N,ca3*%
X105502848Y-60675000D03*
%TO.P,D54,2,A*%
%TO.N,ca9*%
X105502848Y-59075000D03*
%TO.P,D54,3,GK*%
%TO.N,ca2*%
X110602848Y-60675000D03*
D17*
%TO.P,D54,4,RK*%
%TO.N,ca1*%
X110852848Y-59075000D03*
%TD*%
D30*
%TO.P,C12,1*%
%TO.N,+3V3*%
X85543248Y-93573600D03*
%TO.P,C12,2*%
%TO.N,GND*%
X91943248Y-93573600D03*
%TD*%
D22*
%TO.P,C10,1*%
%TO.N,GND*%
X100424448Y-87172800D03*
%TO.P,C10,2*%
%TO.N,nrst*%
X98804448Y-87172800D03*
%TD*%
D16*
%TO.P,D45,1,BK*%
%TO.N,ca6*%
X133902848Y-79675000D03*
%TO.P,D45,2,A*%
%TO.N,ca7*%
X133902848Y-78075000D03*
%TO.P,D45,3,GK*%
%TO.N,ca5*%
X139002848Y-79675000D03*
D17*
%TO.P,D45,4,RK*%
%TO.N,ca4*%
X139252848Y-78075000D03*
%TD*%
D16*
%TO.P,D38,1,BK*%
%TO.N,cb6*%
X181502848Y-136675000D03*
%TO.P,D38,2,A*%
%TO.N,cb2*%
X181502848Y-135075000D03*
%TO.P,D38,3,GK*%
%TO.N,cb5*%
X186602848Y-136675000D03*
D17*
%TO.P,D38,4,RK*%
%TO.N,cb4*%
X186852848Y-135075000D03*
%TD*%
D31*
%TO.P,X1,1,1*%
%TO.N,xtal1*%
X107031248Y-81273900D03*
%TO.P,X1,2,2*%
%TO.N,xtal2*%
X107031248Y-69398900D03*
%TD*%
D10*
%TO.P,D4,1*%
%TO.N,row0*%
X155327848Y-57885000D03*
%TO.P,D4,2*%
%TO.N,Net-(D4-Pad2)*%
X155327848Y-55025000D03*
%TD*%
D16*
%TO.P,D29,1,BK*%
%TO.N,ca3*%
X200502848Y-60675000D03*
%TO.P,D29,2,A*%
%TO.N,ca4*%
X200502848Y-59075000D03*
%TO.P,D29,3,GK*%
%TO.N,ca2*%
X205602848Y-60675000D03*
D17*
%TO.P,D29,4,RK*%
%TO.N,ca1*%
X205852848Y-59075000D03*
%TD*%
D16*
%TO.P,D53,1,BK*%
%TO.N,cb6*%
X114902848Y-136675000D03*
%TO.P,D53,2,A*%
%TO.N,cb8*%
X114902848Y-135075000D03*
%TO.P,D53,3,GK*%
%TO.N,cb5*%
X120002848Y-136675000D03*
D17*
%TO.P,D53,4,RK*%
%TO.N,cb4*%
X120252848Y-135075000D03*
%TD*%
D32*
%TO.P,IC3,1,IN*%
%TO.N,+5V*%
X85898048Y-85203000D03*
%TO.P,IC3,2,GND_1*%
%TO.N,GND*%
X85898048Y-87503000D03*
%TO.P,IC3,3,OUT*%
%TO.N,+3V3*%
X85898048Y-89803000D03*
D33*
%TO.P,IC3,4,GND_2*%
%TO.N,GND*%
X92198048Y-87503000D03*
%TD*%
D10*
%TO.P,D19,1*%
%TO.N,row3*%
X150577848Y-114885000D03*
%TO.P,D19,2*%
%TO.N,Net-(D19-Pad2)*%
X150577848Y-112025000D03*
%TD*%
D23*
%TO.P,R3,1*%
%TO.N,+3V3*%
X95707200Y-94182600D03*
%TO.P,R3,2*%
%TO.N,intb*%
X95707200Y-97282600D03*
%TD*%
D16*
%TO.P,D34,1,BK*%
%TO.N,ca3*%
X181502848Y-60675000D03*
%TO.P,D34,2,A*%
%TO.N,ca5*%
X181502848Y-59075000D03*
%TO.P,D34,3,GK*%
%TO.N,ca2*%
X186602848Y-60675000D03*
D17*
%TO.P,D34,4,RK*%
%TO.N,ca1*%
X186852848Y-59075000D03*
%TD*%
D16*
%TO.P,D40,1,BK*%
%TO.N,ca6*%
X152902848Y-79675000D03*
%TO.P,D40,2,A*%
%TO.N,ca3*%
X152902848Y-78075000D03*
%TO.P,D40,3,GK*%
%TO.N,ca5*%
X158002848Y-79675000D03*
D17*
%TO.P,D40,4,RK*%
%TO.N,ca4*%
X158252848Y-78075000D03*
%TD*%
D27*
%TO.P,R8,1*%
%TO.N,Net-(USB1-CC2)*%
X81214648Y-81051400D03*
%TO.P,R8,2*%
%TO.N,GND*%
X83114648Y-81051400D03*
%TD*%
D16*
%TO.P,D41,1,BK*%
%TO.N,ca9*%
X148102848Y-98675000D03*
%TO.P,D41,2,A*%
%TO.N,ca3*%
X148102848Y-97075000D03*
%TO.P,D41,3,GK*%
%TO.N,ca8*%
X153202848Y-98675000D03*
D17*
%TO.P,D41,4,RK*%
%TO.N,ca7*%
X153452848Y-97075000D03*
%TD*%
D16*
%TO.P,D32,1,BK*%
%TO.N,cb3*%
X198102848Y-117675000D03*
%TO.P,D32,2,A*%
%TO.N,cb4*%
X198102848Y-116075000D03*
%TO.P,D32,3,GK*%
%TO.N,cb2*%
X203202848Y-117675000D03*
D17*
%TO.P,D32,4,RK*%
%TO.N,cb1*%
X203452848Y-116075000D03*
%TD*%
D10*
%TO.P,D25,1*%
%TO.N,row4*%
X193327848Y-133885000D03*
%TO.P,D25,2*%
%TO.N,Net-(D25-Pad2)*%
X193327848Y-131025000D03*
%TD*%
%TO.P,D17,1*%
%TO.N,row2*%
X122077848Y-95885000D03*
%TO.P,D17,2*%
%TO.N,Net-(D17-Pad2)*%
X122077848Y-93025000D03*
%TD*%
D16*
%TO.P,D30,1,BK*%
%TO.N,ca6*%
X195702848Y-79675000D03*
%TO.P,D30,2,A*%
%TO.N,ca1*%
X195702848Y-78075000D03*
%TO.P,D30,3,GK*%
%TO.N,ca5*%
X200802848Y-79675000D03*
D17*
%TO.P,D30,4,RK*%
%TO.N,ca4*%
X201052848Y-78075000D03*
%TD*%
D10*
%TO.P,D11,1*%
%TO.N,row1*%
X183827848Y-76885000D03*
%TO.P,D11,2*%
%TO.N,Net-(D11-Pad2)*%
X183827848Y-74025000D03*
%TD*%
%TO.P,D20,1*%
%TO.N,row3*%
X169577848Y-114885000D03*
%TO.P,D20,2*%
%TO.N,Net-(D20-Pad2)*%
X169577848Y-112025000D03*
%TD*%
%TO.P,D8,1*%
%TO.N,row1*%
X126827848Y-76885000D03*
%TO.P,D8,2*%
%TO.N,Net-(D8-Pad2)*%
X126827848Y-74025000D03*
%TD*%
D12*
%TO.P,R1,1*%
%TO.N,Net-(SW1-B)*%
X102357648Y-87274400D03*
%TO.P,R1,2*%
%TO.N,boot0*%
X102357648Y-85374400D03*
%TD*%
D18*
%TO.P,C7,1*%
%TO.N,+3V3*%
X101163848Y-81131500D03*
%TO.P,C7,2*%
%TO.N,GND*%
X101163848Y-83206500D03*
%TD*%
D16*
%TO.P,D43,1,BK*%
%TO.N,cb6*%
X162502848Y-136675000D03*
%TO.P,D43,2,A*%
%TO.N,cb3*%
X162502848Y-135075000D03*
%TO.P,D43,3,GK*%
%TO.N,cb5*%
X167602848Y-136675000D03*
D17*
%TO.P,D43,4,RK*%
%TO.N,cb4*%
X167852848Y-135075000D03*
%TD*%
D10*
%TO.P,D23,1*%
%TO.N,row3*%
X112577848Y-114885000D03*
%TO.P,D23,2*%
%TO.N,Net-(D23-Pad2)*%
X112577848Y-112025000D03*
%TD*%
%TO.P,D3,1*%
%TO.N,row0*%
X174327848Y-57885000D03*
%TO.P,D3,2*%
%TO.N,Net-(D3-Pad2)*%
X174327848Y-55025000D03*
%TD*%
%TO.P,D6,1*%
%TO.N,row0*%
X117327848Y-57885000D03*
%TO.P,D6,2*%
%TO.N,Net-(D6-Pad2)*%
X117327848Y-55025000D03*
%TD*%
D34*
%TO.P,USB1,A1,GND*%
%TO.N,GND*%
X85652848Y-71624800D03*
%TO.P,USB1,A4,VBUS*%
%TO.N,Net-(F1-Pad1)*%
X85652848Y-72474800D03*
%TO.P,USB1,A5,CC1*%
%TO.N,Net-(USB1-CC1)*%
X85652848Y-73324800D03*
%TO.P,USB1,A6,D+*%
%TO.N,d+*%
X85652848Y-74174800D03*
%TO.P,USB1,A7,D-*%
%TO.N,d-*%
X85652848Y-75024800D03*
%TO.P,USB1,A8,SBU1*%
%TO.N,unconnected-(USB1-SBU1-PadA8)*%
X85652848Y-75874800D03*
%TO.P,USB1,A9,VBUS*%
%TO.N,Net-(F1-Pad1)*%
X85652848Y-76724800D03*
%TO.P,USB1,A12,GND*%
%TO.N,GND*%
X85652848Y-77574800D03*
%TO.P,USB1,B1,GND*%
X84327848Y-77579800D03*
%TO.P,USB1,B4,VBUS*%
%TO.N,Net-(F1-Pad1)*%
X84327848Y-76729800D03*
%TO.P,USB1,B5,CC2*%
%TO.N,Net-(USB1-CC2)*%
X84327848Y-75879800D03*
%TO.P,USB1,B6,D+*%
%TO.N,d+*%
X84327848Y-75029800D03*
%TO.P,USB1,B7,D-*%
%TO.N,d-*%
X84327848Y-74179800D03*
%TO.P,USB1,B8,SBU2*%
%TO.N,unconnected-(USB1-SBU2-PadB8)*%
X84327848Y-73329800D03*
%TO.P,USB1,B9,VBUS*%
%TO.N,Net-(F1-Pad1)*%
X84327848Y-72479800D03*
%TO.P,USB1,B12,GND*%
%TO.N,GND*%
X84327848Y-71624800D03*
D35*
%TO.P,USB1,S1,Shell1*%
X84672848Y-70274800D03*
D36*
X81292848Y-70274800D03*
D35*
X84672848Y-78924800D03*
D36*
X81292848Y-78924800D03*
%TD*%
D16*
%TO.P,D47,1,BK*%
%TO.N,cb3*%
X138602848Y-117675000D03*
%TO.P,D47,2,A*%
%TO.N,cb7*%
X138602848Y-116075000D03*
%TO.P,D47,3,GK*%
%TO.N,cb2*%
X143702848Y-117675000D03*
D17*
%TO.P,D47,4,RK*%
%TO.N,cb1*%
X143952848Y-116075000D03*
%TD*%
D22*
%TO.P,C8,1*%
%TO.N,c_filt*%
X98072200Y-103327200D03*
%TO.P,C8,2*%
%TO.N,GND*%
X99692200Y-103327200D03*
%TD*%
D37*
%TO.P,J1,1,Pin_1*%
%TO.N,GND*%
X81072448Y-95504000D03*
D38*
%TO.P,J1,2,Pin_2*%
%TO.N,swclk*%
X81072448Y-93504000D03*
%TO.P,J1,3,Pin_3*%
%TO.N,swdio*%
X81072448Y-91504000D03*
%TO.P,J1,4,Pin_4*%
%TO.N,+3V3*%
X81072448Y-89504000D03*
%TD*%
D16*
%TO.P,D52,1,BK*%
%TO.N,cb3*%
X119602848Y-117675000D03*
%TO.P,D52,2,A*%
%TO.N,cb8*%
X119602848Y-116075000D03*
%TO.P,D52,3,GK*%
%TO.N,cb2*%
X124702848Y-117675000D03*
D17*
%TO.P,D52,4,RK*%
%TO.N,cb1*%
X124952848Y-116075000D03*
%TD*%
D16*
%TO.P,D33,1,BK*%
%TO.N,cb6*%
X200502848Y-136675000D03*
%TO.P,D33,2,A*%
%TO.N,cb1*%
X200502848Y-135075000D03*
%TO.P,D33,3,GK*%
%TO.N,cb5*%
X205602848Y-136675000D03*
D17*
%TO.P,D33,4,RK*%
%TO.N,cb4*%
X205852848Y-135075000D03*
%TD*%
D10*
%TO.P,D16,1*%
%TO.N,row2*%
X141077848Y-95885000D03*
%TO.P,D16,2*%
%TO.N,Net-(D16-Pad2)*%
X141077848Y-93025000D03*
%TD*%
%TO.P,D13,1*%
%TO.N,row2*%
X209952848Y-95885000D03*
%TO.P,D13,2*%
%TO.N,Net-(D13-Pad2)*%
X209952848Y-93025000D03*
%TD*%
D39*
%TO.P,S1,1,1*%
%TO.N,GND*%
X85128048Y-102560200D03*
%TO.P,S1,2,2*%
X91428048Y-102560200D03*
%TO.P,S1,3,3*%
%TO.N,nrst*%
X85128048Y-98760200D03*
%TO.P,S1,4,4*%
X91428048Y-98760200D03*
%TD*%
D10*
%TO.P,D24,1*%
%TO.N,row4*%
X209952848Y-136260000D03*
%TO.P,D24,2*%
%TO.N,Net-(D24-Pad2)*%
X209952848Y-133400000D03*
%TD*%
D16*
%TO.P,D56,1,BK*%
%TO.N,cb9*%
X86502848Y-60675000D03*
%TO.P,D56,2,A*%
%TO.N,cb1*%
X86502848Y-59075000D03*
%TO.P,D56,3,GK*%
%TO.N,cb8*%
X91602848Y-60675000D03*
D17*
%TO.P,D56,4,RK*%
%TO.N,cb7*%
X91852848Y-59075000D03*
%TD*%
D10*
%TO.P,D7,1*%
%TO.N,row0*%
X98327848Y-57885000D03*
%TO.P,D7,2*%
%TO.N,Net-(D7-Pad2)*%
X98327848Y-55025000D03*
%TD*%
D16*
%TO.P,D35,1,BK*%
%TO.N,ca6*%
X171902848Y-79675000D03*
%TO.P,D35,2,A*%
%TO.N,ca2*%
X171902848Y-78075000D03*
%TO.P,D35,3,GK*%
%TO.N,ca5*%
X177002848Y-79675000D03*
D17*
%TO.P,D35,4,RK*%
%TO.N,ca4*%
X177252848Y-78075000D03*
%TD*%
D16*
%TO.P,D31,1,BK*%
%TO.N,ca9*%
X198102848Y-98675000D03*
%TO.P,D31,2,A*%
%TO.N,ca1*%
X198102848Y-97075000D03*
%TO.P,D31,3,GK*%
%TO.N,ca8*%
X203202848Y-98675000D03*
D17*
%TO.P,D31,4,RK*%
%TO.N,ca7*%
X203452848Y-97075000D03*
%TD*%
D40*
%TO.P,C1,1*%
%TO.N,xtal1*%
X103475248Y-79857600D03*
%TO.P,C1,2*%
%TO.N,GND*%
X103475248Y-78132600D03*
%TD*%
D41*
%TO.P,SW1,1,A*%
%TO.N,GND*%
X101344048Y-90678000D03*
D42*
%TO.P,SW1,2,B*%
%TO.N,Net-(SW1-B)*%
X99344048Y-90678000D03*
%TO.P,SW1,3,C*%
%TO.N,+3V3*%
X97344048Y-90678000D03*
D43*
%TO.P,SW1,S1*%
%TO.N,N/C*%
X103544048Y-90678000D03*
%TO.P,SW1,S2*%
X95144048Y-90678000D03*
%TD*%
D16*
%TO.P,D39,1,BK*%
%TO.N,ca3*%
X162502848Y-60675000D03*
%TO.P,D39,2,A*%
%TO.N,ca6*%
X162502848Y-59075000D03*
%TO.P,D39,3,GK*%
%TO.N,ca2*%
X167602848Y-60675000D03*
D17*
%TO.P,D39,4,RK*%
%TO.N,ca1*%
X167852848Y-59075000D03*
%TD*%
D16*
%TO.P,D42,1,BK*%
%TO.N,cb3*%
X157602848Y-117675000D03*
%TO.P,D42,2,A*%
%TO.N,cb6*%
X157602848Y-116075000D03*
%TO.P,D42,3,GK*%
%TO.N,cb2*%
X162702848Y-117675000D03*
D17*
%TO.P,D42,4,RK*%
%TO.N,cb1*%
X162952848Y-116075000D03*
%TD*%
D10*
%TO.P,D22,1*%
%TO.N,row3*%
X209952848Y-114885000D03*
%TO.P,D22,2*%
%TO.N,Net-(D22-Pad2)*%
X209952848Y-112025000D03*
%TD*%
D44*
%TO.P,K9,1*%
%TO.N,col1*%
X168162848Y-68720000D03*
%TO.P,K9,2*%
%TO.N,Net-(D11-Pad2)*%
X182012848Y-71260000D03*
%TD*%
%TO.P,K13,1*%
%TO.N,col0*%
X194362848Y-87720000D03*
%TO.P,K13,2*%
%TO.N,Net-(D13-Pad2)*%
X208212848Y-90260000D03*
%TD*%
%TO.P,K28,1*%
%TO.N,col4*%
X111162848Y-125720000D03*
%TO.P,K28,2*%
%TO.N,Net-(D28-Pad2)*%
X125012848Y-128260000D03*
%TD*%
%TO.P,K8,1*%
%TO.N,col0*%
X191962848Y-68720000D03*
%TO.P,K8,2*%
%TO.N,Net-(D12-Pad2)*%
X205812848Y-71260000D03*
%TD*%
%TO.P,K17,1*%
%TO.N,col4*%
X106362848Y-87720000D03*
%TO.P,K17,2*%
%TO.N,Net-(D17-Pad2)*%
X120212848Y-90260000D03*
%TD*%
%TO.P,K2,1*%
%TO.N,col1*%
X177762848Y-49720000D03*
%TO.P,K2,2*%
%TO.N,Net-(D2-Pad2)*%
X191612848Y-52260000D03*
%TD*%
%TO.P,K4,1*%
%TO.N,col3*%
X139762848Y-49720000D03*
%TO.P,K4,2*%
%TO.N,Net-(D4-Pad2)*%
X153612848Y-52260000D03*
%TD*%
%TO.P,K3,1*%
%TO.N,col2*%
X158762848Y-49720000D03*
%TO.P,K3,2*%
%TO.N,Net-(D3-Pad2)*%
X172612848Y-52260000D03*
%TD*%
%TO.P,K1,1*%
%TO.N,col0*%
X196762848Y-49720000D03*
%TO.P,K1,2*%
%TO.N,Net-(D1-Pad2)*%
X210612848Y-52260000D03*
%TD*%
%TO.P,K24,1*%
%TO.N,col0*%
X196762848Y-125720000D03*
%TO.P,K24,2*%
%TO.N,Net-(D24-Pad2)*%
X210612848Y-128260000D03*
%TD*%
%TO.P,K5,1*%
%TO.N,col4*%
X120762848Y-49720000D03*
%TO.P,K5,2*%
%TO.N,Net-(D5-Pad2)*%
X134612848Y-52260000D03*
%TD*%
%TO.P,K12,1*%
%TO.N,col4*%
X111162848Y-68720000D03*
%TO.P,K12,2*%
%TO.N,Net-(D8-Pad2)*%
X125012848Y-71260000D03*
%TD*%
%TO.P,K14,1*%
%TO.N,col1*%
X163362848Y-87720000D03*
%TO.P,K14,2*%
%TO.N,Net-(D14-Pad2)*%
X177212848Y-90260000D03*
%TD*%
%TO.P,K21,1*%
%TO.N,col3*%
X134862848Y-106720000D03*
%TO.P,K21,2*%
%TO.N,Net-(D19-Pad2)*%
X148712848Y-109260000D03*
%TD*%
%TO.P,K10,1*%
%TO.N,col2*%
X149162848Y-68720000D03*
%TO.P,K10,2*%
%TO.N,Net-(D10-Pad2)*%
X163012848Y-71260000D03*
%TD*%
%TO.P,K18,1*%
%TO.N,col0*%
X194362848Y-106720000D03*
%TO.P,K18,2*%
%TO.N,Net-(D22-Pad2)*%
X208212848Y-109260000D03*
%TD*%
%TO.P,K26,1*%
%TO.N,col2*%
X158762848Y-125720000D03*
%TO.P,K26,2*%
%TO.N,Net-(D26-Pad2)*%
X172612848Y-128260000D03*
%TD*%
%TO.P,K15,1*%
%TO.N,col2*%
X144362848Y-87720000D03*
%TO.P,K15,2*%
%TO.N,Net-(D15-Pad2)*%
X158212848Y-90260000D03*
%TD*%
%TO.P,K20,1*%
%TO.N,col2*%
X153862848Y-106720000D03*
%TO.P,K20,2*%
%TO.N,Net-(D20-Pad2)*%
X167712848Y-109260000D03*
%TD*%
%TO.P,K19,1*%
%TO.N,col1*%
X172862848Y-106720000D03*
%TO.P,K19,2*%
%TO.N,Net-(D21-Pad2)*%
X186712848Y-109260000D03*
%TD*%
%TO.P,K7,1*%
%TO.N,col6*%
X82762848Y-49720000D03*
%TO.P,K7,2*%
%TO.N,Net-(D7-Pad2)*%
X96612848Y-52260000D03*
%TD*%
%TO.P,K16,1*%
%TO.N,col3*%
X125362848Y-87720000D03*
%TO.P,K16,2*%
%TO.N,Net-(D16-Pad2)*%
X139212848Y-90260000D03*
%TD*%
%TO.P,K23,1*%
%TO.N,col5*%
X96862848Y-106720000D03*
%TO.P,K23,2*%
%TO.N,Net-(D23-Pad2)*%
X110712848Y-109260000D03*
%TD*%
%TO.P,K6,1*%
%TO.N,col5*%
X101762848Y-49720000D03*
%TO.P,K6,2*%
%TO.N,Net-(D6-Pad2)*%
X115612848Y-52260000D03*
%TD*%
%TO.P,K27,1*%
%TO.N,col3*%
X139762848Y-125720000D03*
%TO.P,K27,2*%
%TO.N,Net-(D27-Pad2)*%
X153612848Y-128260000D03*
%TD*%
%TO.P,K11,1*%
%TO.N,col3*%
X130162848Y-68720000D03*
%TO.P,K11,2*%
%TO.N,Net-(D9-Pad2)*%
X144012848Y-71260000D03*
%TD*%
%TO.P,K25,1*%
%TO.N,col1*%
X177762848Y-125720000D03*
%TO.P,K25,2*%
%TO.N,Net-(D25-Pad2)*%
X191612848Y-128260000D03*
%TD*%
%TO.P,K22,1*%
%TO.N,col4*%
X115862848Y-106720000D03*
%TO.P,K22,2*%
%TO.N,Net-(D18-Pad2)*%
X129712848Y-109260000D03*
%TD*%
D45*
%TO.N,+3V3*%
X94310878Y-69571278D03*
X97288148Y-66649600D03*
X98247200Y-83134200D03*
X88214200Y-74041000D03*
X87274400Y-81965800D03*
X94514100Y-87122000D03*
X96813100Y-87198200D03*
X90237148Y-85090000D03*
X88238148Y-85344000D03*
X102438200Y-81457800D03*
D46*
%TO.N,nrst*%
X94382048Y-81153000D03*
X94331248Y-84074000D03*
D45*
%TO.N,row0*%
X96934346Y-58097746D03*
X95603094Y-76658000D03*
%TO.N,row1*%
X125323600Y-76936600D03*
X101684348Y-74041000D03*
%TO.N,row2*%
X204368400Y-95885000D03*
X120421400Y-95834200D03*
X202539600Y-95402400D03*
X129794000Y-95935800D03*
X128066800Y-95986600D03*
X101684348Y-73036200D03*
%TO.N,row3*%
X94361000Y-75869800D03*
X110210600Y-115011200D03*
%TO.N,row4*%
X108051600Y-120663700D03*
X108000800Y-115874800D03*
X91971904Y-79517386D03*
X98013022Y-109073178D03*
X91871800Y-104927400D03*
X82626200Y-99999800D03*
%TO.N,ca2*%
X130860800Y-63119000D03*
X131075700Y-60680600D03*
X168808400Y-60756800D03*
X168656000Y-63094967D03*
X206375000Y-61823600D03*
X206375000Y-63285100D03*
X187934600Y-60426600D03*
X170383200Y-77952600D03*
X177647600Y-75819000D03*
X188061600Y-62975663D03*
X149936200Y-63095467D03*
X111836200Y-60921700D03*
X149885400Y-60756800D03*
X165735000Y-96850200D03*
X176072800Y-101777800D03*
X111887000Y-62661800D03*
%TO.N,ca3*%
X153238200Y-102362000D03*
X156845000Y-63794967D03*
X156845000Y-61526663D03*
X156115472Y-97094535D03*
X159867600Y-76185500D03*
X151587200Y-77825600D03*
%TO.N,ca4*%
X192405000Y-81280000D03*
X129057400Y-91008200D03*
X160070800Y-81254600D03*
X178485800Y-78232000D03*
X127685800Y-101580962D03*
X159435800Y-78130400D03*
X178689000Y-81280000D03*
X207594200Y-79578200D03*
X132080000Y-81254600D03*
X121118900Y-81494900D03*
X140397500Y-78130400D03*
X192963800Y-79777576D03*
X209829400Y-79476600D03*
X122287300Y-78804118D03*
X126822200Y-97866200D03*
%TO.N,ca1*%
X131216400Y-59334400D03*
X131775200Y-62395467D03*
X112064800Y-59258200D03*
X194487800Y-82829400D03*
X113106200Y-62458600D03*
X188036200Y-59385200D03*
X168960800Y-59131200D03*
X169646600Y-62276163D03*
X194487800Y-78892400D03*
X150876000Y-62395467D03*
X149936200Y-59283600D03*
X189357000Y-62014300D03*
%TO.N,ca5*%
X140397500Y-79578200D03*
X159308800Y-79756000D03*
X121587800Y-79603600D03*
X109130270Y-97769682D03*
X159054800Y-82067400D03*
X178358800Y-79654400D03*
X120086589Y-82050996D03*
X117398800Y-102151700D03*
X177850800Y-82005400D03*
X109024567Y-92057367D03*
X191033400Y-81979500D03*
X140360400Y-82030300D03*
X118668800Y-82270600D03*
X179527200Y-59613800D03*
%TO.N,ca6*%
X166370000Y-79705200D03*
X107340400Y-96792100D03*
X160375600Y-59359800D03*
X107315000Y-98991100D03*
%TO.N,ca8*%
X121818400Y-82893900D03*
X124168900Y-90525600D03*
X115984181Y-96228424D03*
X115138200Y-100927900D03*
X153683577Y-100927900D03*
X136169400Y-98679000D03*
X121945400Y-86588600D03*
X122986800Y-79527400D03*
X204520800Y-98780600D03*
X130073400Y-76185500D03*
X204408250Y-100875707D03*
X173456600Y-98679000D03*
X122707400Y-63818500D03*
X173406920Y-100927450D03*
X122656600Y-60920000D03*
X121945897Y-84745597D03*
X130073400Y-77584500D03*
X136220200Y-100927900D03*
X154330400Y-98777576D03*
X116281200Y-98729800D03*
%TO.N,ca9*%
X108725700Y-99528900D03*
X106273600Y-91821000D03*
X114757200Y-73329800D03*
X102971600Y-59334400D03*
X108067469Y-94992951D03*
%TO.N,ca7*%
X155117800Y-97155000D03*
X132359400Y-78130400D03*
X135178800Y-100181962D03*
X116750100Y-97358200D03*
X117043200Y-100228400D03*
X141859000Y-60350400D03*
X174726600Y-100176576D03*
X174574200Y-97485200D03*
X141134100Y-89560400D03*
X155448000Y-100176576D03*
X135469900Y-97231200D03*
X146659600Y-94880700D03*
%TO.N,cb2*%
X125982000Y-117271800D03*
X107035600Y-119964200D03*
X99621078Y-119266700D03*
X107035600Y-117652800D03*
X180267411Y-135325654D03*
X183108600Y-117777576D03*
X93345000Y-115671600D03*
X191490600Y-119901700D03*
X145161000Y-119953000D03*
X145262600Y-117678200D03*
X192862200Y-117777576D03*
X163677600Y-119913400D03*
X163969100Y-117754400D03*
X97561400Y-117500400D03*
X98247200Y-115697000D03*
X125425200Y-119875641D03*
X183108600Y-119913400D03*
%TO.N,cb3*%
X157581600Y-118477076D03*
X161086800Y-135585200D03*
X93726000Y-119329200D03*
X95987348Y-119329200D03*
%TO.N,cb4*%
X198856600Y-136398000D03*
X202692000Y-126212600D03*
X163322000Y-137795000D03*
X196926200Y-116916200D03*
X143523700Y-137769600D03*
X161721800Y-137744200D03*
X206908400Y-134874000D03*
X188772800Y-135178800D03*
X180803348Y-137769600D03*
X114020600Y-138049000D03*
X115627348Y-137972800D03*
X199212200Y-133135500D03*
X142124700Y-137795000D03*
X107809558Y-135268314D03*
X182202348Y-137820400D03*
X188798200Y-137298700D03*
X105791678Y-135228922D03*
%TO.N,cb1*%
X203250800Y-119151400D03*
X197485000Y-134645400D03*
X89484200Y-73329800D03*
X183642000Y-116306600D03*
X108915200Y-119176141D03*
X108915200Y-116789200D03*
X197129400Y-133135500D03*
X184277000Y-119202200D03*
X88823800Y-66305700D03*
X126681500Y-119176141D03*
X92645000Y-116789200D03*
X88849200Y-67704700D03*
X101193600Y-119266700D03*
X146214100Y-115951000D03*
X205333600Y-116255800D03*
X164693600Y-119176141D03*
X81254600Y-98450400D03*
X164668200Y-116230400D03*
X126681500Y-116078000D03*
X146177000Y-119253000D03*
%TO.N,cb5*%
X170625100Y-136931400D03*
X151384000Y-135977900D03*
X121158000Y-134273428D03*
X168910000Y-136855200D03*
X149663328Y-136607728D03*
X107085722Y-134530100D03*
X192506600Y-138697700D03*
X180035200Y-134353500D03*
X105080125Y-134518075D03*
X121125455Y-136635101D03*
X192481200Y-135991600D03*
X185140600Y-115519200D03*
%TO.N,cb6*%
X158699200Y-137998200D03*
X156362400Y-116205000D03*
%TO.N,cb7*%
X141630400Y-134747000D03*
X93370400Y-66305700D03*
X137287000Y-116052600D03*
X112699800Y-107696000D03*
X139170700Y-114075501D03*
%TO.N,cb8*%
X112826800Y-105968800D03*
X113436400Y-135559800D03*
X118541800Y-113475500D03*
X91440000Y-66294000D03*
X118211600Y-115747800D03*
%TO.N,cb9*%
X91883822Y-106005900D03*
X90242746Y-72390000D03*
X97028000Y-108569502D03*
X96951800Y-103669100D03*
X90040500Y-66141600D03*
X90144600Y-67704700D03*
X81818812Y-99410623D03*
D46*
%TO.N,Net-(F1-Pad1)*%
X83297113Y-75180300D03*
X83333048Y-76733400D03*
D45*
%TO.N,col0*%
X192303400Y-87477600D03*
X96973148Y-72563748D03*
X194716400Y-125780800D03*
X192328800Y-106680000D03*
X192125600Y-70942200D03*
X194589400Y-49987200D03*
X117272478Y-86206922D03*
%TO.N,col1*%
X118922800Y-86868000D03*
X96977724Y-71564256D03*
X175539400Y-49809400D03*
X175488600Y-125780800D03*
X170865800Y-106680000D03*
X170129200Y-70840600D03*
X161340800Y-87706200D03*
%TO.N,col2*%
X122605800Y-89179400D03*
X156870400Y-125882400D03*
X146812000Y-68681600D03*
X151714200Y-106680000D03*
X96995072Y-70465772D03*
X156235400Y-49758600D03*
X141833600Y-87782400D03*
%TO.N,col3*%
X95322882Y-71669134D03*
X132791200Y-106451400D03*
X123545600Y-87807800D03*
X131089400Y-71018400D03*
X137718800Y-49834800D03*
X137007600Y-125730000D03*
%TO.N,col4*%
X117020612Y-108742483D03*
X119075200Y-64719200D03*
X118160800Y-104800400D03*
X106629200Y-89814400D03*
X112254622Y-122974778D03*
X118922800Y-49682400D03*
%TO.N,col5*%
X108661200Y-105638600D03*
X104521000Y-92760800D03*
X101828600Y-56515000D03*
X101777800Y-62890400D03*
D46*
%TO.N,d+*%
X86626712Y-75046246D03*
X86600237Y-77108566D03*
D45*
%TO.N,boot0*%
X99381705Y-82066030D03*
D46*
X97163248Y-80754650D03*
D45*
%TO.N,/RGB/scl*%
X101862797Y-102215831D03*
X94221500Y-95732600D03*
X93651468Y-79004456D03*
D46*
X95623812Y-79966381D03*
%TO.N,/RGB/sda*%
X98588148Y-74909498D03*
D45*
X102861360Y-102172500D03*
X95656400Y-95605600D03*
D46*
X96428550Y-79508000D03*
D45*
%TO.N,+5V*%
X97205800Y-95633100D03*
X90237148Y-86309200D03*
X87477600Y-86309200D03*
X91348548Y-90398600D03*
X101437229Y-96560273D03*
%TO.N,intb*%
X97459800Y-97053400D03*
X99666288Y-96345083D03*
%TO.N,GND*%
X101066600Y-103708200D03*
D46*
X82520248Y-68326000D03*
X99822000Y-88722200D03*
X83688648Y-82753200D03*
X96697800Y-77409500D03*
X102909100Y-77266800D03*
D45*
X91440000Y-101346000D03*
D46*
X87270048Y-80568800D03*
X92527848Y-75920600D03*
X96783669Y-85917915D03*
X81047048Y-87350600D03*
X91638848Y-96494600D03*
%TD*%
D47*
%TO.N,xtal1*%
X106630948Y-80873600D02*
X107031248Y-81273900D01*
X103270948Y-80061900D02*
X103475248Y-79857600D01*
X104491248Y-80873600D02*
X106630948Y-80873600D01*
X103475248Y-79857600D02*
X104491248Y-80873600D01*
X98950248Y-79109000D02*
X99856448Y-79109000D01*
X99856448Y-79109000D02*
X100809348Y-80061900D01*
X100809348Y-80061900D02*
X103270948Y-80061900D01*
D48*
%TO.N,+3V3*%
X97344048Y-87249000D02*
X96863900Y-87249000D01*
X97344048Y-87249000D02*
X97344048Y-86488200D01*
X94498720Y-85090000D02*
X90237148Y-85090000D01*
D47*
X102433848Y-74729600D02*
X101113048Y-76050400D01*
X98950248Y-81109000D02*
X101141348Y-81109000D01*
X87525600Y-82217000D02*
X87274400Y-81965800D01*
X98722648Y-84586400D02*
X98722648Y-84709000D01*
X90474248Y-81109000D02*
X89366248Y-82217000D01*
X88214200Y-74041000D02*
X88209848Y-74045352D01*
X101494648Y-66649600D02*
X97288148Y-66649600D01*
X102433848Y-68860000D02*
X102433848Y-74729600D01*
D48*
X97344048Y-90678000D02*
X97344048Y-92545752D01*
D47*
X94310878Y-69571278D02*
X94310878Y-68701370D01*
D48*
X81371448Y-89803000D02*
X81072448Y-89504000D01*
D47*
X91352248Y-71496000D02*
X94674648Y-68173600D01*
D48*
X96863900Y-87249000D02*
X96813100Y-87198200D01*
D47*
X100934248Y-76177400D02*
X101087648Y-76177400D01*
X101490148Y-81457800D02*
X101163848Y-81131500D01*
X88540048Y-82217000D02*
X87525600Y-82217000D01*
X91352248Y-72636800D02*
X91352248Y-71721000D01*
D48*
X85898048Y-89803000D02*
X85898048Y-93218800D01*
X85898048Y-89803000D02*
X81371448Y-89803000D01*
X97344048Y-86488200D02*
X98722648Y-85109600D01*
X85898048Y-89803000D02*
X88387648Y-87313400D01*
D47*
X97462248Y-83326000D02*
X98722648Y-84586400D01*
X98950248Y-77109000D02*
X99873848Y-77109000D01*
D48*
X94514100Y-87122000D02*
X94514100Y-85105380D01*
D47*
X102438200Y-81457800D02*
X101490148Y-81457800D01*
D48*
X97344048Y-92545752D02*
X95707200Y-94182600D01*
D47*
X101141348Y-81109000D02*
X101163848Y-81131500D01*
X100932448Y-76050400D02*
X101113048Y-76050400D01*
X94310878Y-68701370D02*
X94838648Y-68173600D01*
X97710000Y-82597000D02*
X98247200Y-83134200D01*
X91352248Y-71721000D02*
X91352248Y-72676600D01*
D48*
X88387648Y-82369400D02*
X88540048Y-82217000D01*
D47*
X94674648Y-68173600D02*
X94838648Y-68173600D01*
D48*
X97344048Y-90678000D02*
X97344048Y-87249000D01*
D47*
X99873848Y-77109000D02*
X100932448Y-76050400D01*
X103069448Y-68224400D02*
X101494648Y-66649600D01*
D48*
X88387648Y-87313400D02*
X88387648Y-82369400D01*
D47*
X91962248Y-73246800D02*
X91352248Y-72636800D01*
X91352248Y-71721000D02*
X91352248Y-71496000D01*
X91962248Y-74121000D02*
X91962248Y-73246800D01*
X88209848Y-74045352D02*
X88209848Y-75819000D01*
D48*
X85898048Y-93218800D02*
X85543248Y-93573600D01*
X94514100Y-85105380D02*
X94498720Y-85090000D01*
X98722648Y-85109600D02*
X98722648Y-84709000D01*
D47*
X97462248Y-82597000D02*
X97462248Y-83326000D01*
X89366248Y-82217000D02*
X88540048Y-82217000D01*
X97462248Y-82597000D02*
X97710000Y-82597000D01*
X91352248Y-72676600D02*
X88209848Y-75819000D01*
X103069448Y-68224400D02*
X102433848Y-68860000D01*
%TO.N,xtal2*%
X102209600Y-78334250D02*
X102209600Y-76018948D01*
X103500648Y-74727900D02*
X104007548Y-74727900D01*
X104007548Y-74727900D02*
X107031248Y-71704200D01*
X107031248Y-71704200D02*
X107031248Y-69398900D01*
X102209600Y-76018948D02*
X103500648Y-74727900D01*
X101934850Y-78609000D02*
X102209600Y-78334250D01*
X98950248Y-78609000D02*
X101934850Y-78609000D01*
D49*
%TO.N,c_filt*%
X98072200Y-103102200D02*
X98072200Y-103327200D01*
X98882200Y-102292200D02*
X98072200Y-103102200D01*
X99219000Y-101473000D02*
X99219000Y-102158800D01*
X99085600Y-102292200D02*
X98882200Y-102292200D01*
X99219000Y-102158800D02*
X99085600Y-102292200D01*
D47*
%TO.N,nrst*%
X97912748Y-78109000D02*
X98950248Y-78109000D01*
X91423048Y-98755200D02*
X85971576Y-98755200D01*
X99589048Y-83333048D02*
X98864027Y-82608027D01*
X94382048Y-81153000D02*
X94382048Y-79171800D01*
X91428048Y-98081352D02*
X91428048Y-98760200D01*
X98861068Y-82608027D02*
X97862748Y-81609707D01*
X98804448Y-87172800D02*
X98804448Y-86947800D01*
X95263600Y-88013047D02*
X93471500Y-89805147D01*
X98804448Y-86947800D02*
X99589048Y-86163200D01*
X94382048Y-79171800D02*
X95444848Y-78109000D01*
X97862748Y-78109000D02*
X97862748Y-78159000D01*
X91428048Y-98760200D02*
X91423048Y-98755200D01*
X95263600Y-85006352D02*
X95263600Y-88013047D01*
X93471500Y-96037900D02*
X91428048Y-98081352D01*
X99589048Y-86163200D02*
X99589048Y-83333048D01*
X95444848Y-78109000D02*
X97862748Y-78109000D01*
X97862748Y-78159000D02*
X97912748Y-78109000D01*
X98864027Y-82608027D02*
X98861068Y-82608027D01*
X94331248Y-84074000D02*
X95263600Y-85006352D01*
X93471500Y-89805147D02*
X93471500Y-96037900D01*
X97862748Y-81609707D02*
X97862748Y-78159000D01*
%TO.N,row0*%
X193427848Y-57785000D02*
X207477848Y-57785000D01*
D49*
X96934346Y-58097746D02*
X98115102Y-58097746D01*
D47*
X207477848Y-57785000D02*
X209952848Y-60260000D01*
D49*
X95652094Y-76609000D02*
X98950248Y-76609000D01*
D47*
X193327848Y-57885000D02*
X193427848Y-57785000D01*
D49*
X98115102Y-58097746D02*
X98327848Y-57885000D01*
X95603094Y-76658000D02*
X95652094Y-76609000D01*
D47*
X98327848Y-57885000D02*
X193327848Y-57885000D01*
%TO.N,Net-(D1-Pad2)*%
X210612848Y-56740000D02*
X209952848Y-57400000D01*
X210612848Y-52260000D02*
X210612848Y-56740000D01*
%TO.N,Net-(D2-Pad2)*%
X191612848Y-52260000D02*
X193327848Y-53975000D01*
X193327848Y-53975000D02*
X193327848Y-55025000D01*
%TO.N,Net-(D3-Pad2)*%
X174327848Y-53975000D02*
X174327848Y-55025000D01*
X172612848Y-52260000D02*
X174327848Y-53975000D01*
%TO.N,Net-(D4-Pad2)*%
X155327848Y-53975000D02*
X155327848Y-55025000D01*
X153612848Y-52260000D02*
X155327848Y-53975000D01*
%TO.N,Net-(D5-Pad2)*%
X136327848Y-53975000D02*
X136327848Y-55025000D01*
X134612848Y-52260000D02*
X136327848Y-53975000D01*
%TO.N,Net-(D6-Pad2)*%
X115612848Y-52260000D02*
X117327848Y-53975000D01*
X117327848Y-53975000D02*
X117327848Y-55025000D01*
%TO.N,Net-(D7-Pad2)*%
X98327848Y-53975000D02*
X98327848Y-55025000D01*
X96612848Y-52260000D02*
X98327848Y-53975000D01*
D49*
%TO.N,row1*%
X100078048Y-75968700D02*
X99937748Y-76109000D01*
X184379448Y-76333400D02*
X183827848Y-76885000D01*
X207026248Y-76333400D02*
X184379448Y-76333400D01*
X100078048Y-75240400D02*
X100078048Y-75968700D01*
X125375200Y-76885000D02*
X125323600Y-76936600D01*
X207577848Y-76885000D02*
X207026248Y-76333400D01*
X101277448Y-74041000D02*
X100078048Y-75240400D01*
X126827848Y-76885000D02*
X125375200Y-76885000D01*
X101684348Y-74041000D02*
X101277448Y-74041000D01*
X164827848Y-76885000D02*
X145827848Y-76885000D01*
X99937748Y-76109000D02*
X98950248Y-76109000D01*
X183827848Y-76885000D02*
X164827848Y-76885000D01*
X145827848Y-76885000D02*
X126827848Y-76885000D01*
D47*
%TO.N,Net-(D8-Pad2)*%
X125012848Y-72210000D02*
X126827848Y-74025000D01*
X125012848Y-71260000D02*
X125012848Y-72210000D01*
%TO.N,Net-(D9-Pad2)*%
X144012848Y-72210000D02*
X145827848Y-74025000D01*
X144012848Y-71260000D02*
X144012848Y-72210000D01*
%TO.N,Net-(D10-Pad2)*%
X163012848Y-72210000D02*
X164827848Y-74025000D01*
X163012848Y-71260000D02*
X163012848Y-72210000D01*
%TO.N,Net-(D11-Pad2)*%
X182012848Y-72210000D02*
X183827848Y-74025000D01*
X182012848Y-71260000D02*
X182012848Y-72210000D01*
%TO.N,Net-(D12-Pad2)*%
X207577848Y-73025000D02*
X207577848Y-74025000D01*
X205812848Y-71260000D02*
X207577848Y-73025000D01*
D49*
%TO.N,row2*%
X141382648Y-95580200D02*
X141077848Y-95885000D01*
X101684348Y-73036200D02*
X99678048Y-75042500D01*
X179077848Y-95885000D02*
X160077848Y-95885000D01*
X129794000Y-95935800D02*
X129844800Y-95885000D01*
X99498600Y-75609000D02*
X98950248Y-75609000D01*
X122027048Y-95834200D02*
X122077848Y-95885000D01*
X127965200Y-95885000D02*
X122077848Y-95885000D01*
X160077848Y-95885000D02*
X159773048Y-95580200D01*
X99678048Y-75429552D02*
X99498600Y-75609000D01*
X179560448Y-95402400D02*
X179077848Y-95885000D01*
X202539600Y-95402400D02*
X179560448Y-95402400D01*
X209952848Y-95885000D02*
X204368400Y-95885000D01*
X99678048Y-75042500D02*
X99678048Y-75429552D01*
X129844800Y-95885000D02*
X141077848Y-95885000D01*
X128066800Y-95986600D02*
X127965200Y-95885000D01*
X120421400Y-95834200D02*
X122027048Y-95834200D01*
X159773048Y-95580200D02*
X141382648Y-95580200D01*
%TO.N,Net-(D13-Pad2)*%
X208212848Y-90260000D02*
X209952848Y-92000000D01*
X209952848Y-92000000D02*
X209952848Y-93025000D01*
%TO.N,Net-(D14-Pad2)*%
X179077848Y-92125000D02*
X179077848Y-93025000D01*
X177212848Y-90260000D02*
X179077848Y-92125000D01*
%TO.N,Net-(D15-Pad2)*%
X158212848Y-90260000D02*
X160077848Y-92125000D01*
X160077848Y-92125000D02*
X160077848Y-93025000D01*
%TO.N,Net-(D16-Pad2)*%
X139212848Y-90260000D02*
X141077848Y-92125000D01*
X141077848Y-92125000D02*
X141077848Y-93025000D01*
%TO.N,Net-(D17-Pad2)*%
X122077848Y-92125000D02*
X122077848Y-93025000D01*
X120212848Y-90260000D02*
X122077848Y-92125000D01*
D47*
%TO.N,row3*%
X209418648Y-114350800D02*
X151112048Y-114350800D01*
D49*
X97077934Y-75558500D02*
X97462248Y-75174186D01*
X97077934Y-75558500D02*
X94672300Y-75558500D01*
X97462248Y-75174186D02*
X97462248Y-74121000D01*
D47*
X131637847Y-114825001D02*
X131577848Y-114885000D01*
X112577848Y-114885000D02*
X110336800Y-114885000D01*
X150577848Y-114885000D02*
X150517849Y-114825001D01*
X150517849Y-114825001D02*
X131637847Y-114825001D01*
X110336800Y-114885000D02*
X110210600Y-115011200D01*
X209952848Y-114885000D02*
X209418648Y-114350800D01*
X131577848Y-114885000D02*
X112577848Y-114885000D01*
D49*
X94672300Y-75558500D02*
X94361000Y-75869800D01*
D47*
X151112048Y-114350800D02*
X150577848Y-114885000D01*
%TO.N,Net-(D18-Pad2)*%
X131577848Y-112025000D02*
X131577848Y-111125000D01*
X131577848Y-111125000D02*
X129712848Y-109260000D01*
%TO.N,Net-(D19-Pad2)*%
X150577848Y-111125000D02*
X148712848Y-109260000D01*
X150577848Y-112025000D02*
X150577848Y-111125000D01*
%TO.N,Net-(D20-Pad2)*%
X169577848Y-112025000D02*
X169577848Y-111125000D01*
X169577848Y-111125000D02*
X167712848Y-109260000D01*
%TO.N,Net-(D21-Pad2)*%
X188577848Y-111125000D02*
X186712848Y-109260000D01*
X188577848Y-112025000D02*
X188577848Y-111125000D01*
%TO.N,Net-(D22-Pad2)*%
X209952848Y-111000000D02*
X208212848Y-109260000D01*
X209952848Y-112025000D02*
X209952848Y-111000000D01*
%TO.N,Net-(D23-Pad2)*%
X112577848Y-112025000D02*
X112577848Y-111125000D01*
X112577848Y-111125000D02*
X110712848Y-109260000D01*
%TO.N,row4*%
X174327848Y-133885000D02*
X173970648Y-133527800D01*
D49*
X123919519Y-133885000D02*
X126827848Y-133885000D01*
D47*
X127185048Y-133527800D02*
X126827848Y-133885000D01*
D49*
X93177848Y-75757552D02*
X93776900Y-75158500D01*
X83369686Y-105587800D02*
X91211400Y-105587800D01*
X98013022Y-109073178D02*
X99673748Y-110733904D01*
D47*
X209952848Y-136260000D02*
X207577848Y-133885000D01*
X174608848Y-133604000D02*
X174327848Y-133885000D01*
D49*
X99673748Y-110733904D02*
X99673748Y-112018148D01*
X81439700Y-103657814D02*
X83369686Y-105587800D01*
X116762848Y-124941648D02*
X112484900Y-120663700D01*
D47*
X193046848Y-133604000D02*
X174608848Y-133604000D01*
D49*
X93177848Y-76189839D02*
X93177848Y-75757552D01*
X106915000Y-114789000D02*
X102444600Y-114789000D01*
X96912248Y-75158500D02*
X96962248Y-75108500D01*
X81439700Y-101186300D02*
X81439700Y-103657814D01*
X99673748Y-112018148D02*
X102444600Y-114789000D01*
X91971904Y-79517386D02*
X91998800Y-79490490D01*
X108000800Y-115874800D02*
X106915000Y-114789000D01*
D47*
X193327848Y-133885000D02*
X193046848Y-133604000D01*
D49*
X91211400Y-105587800D02*
X91871800Y-104927400D01*
X123919519Y-133885000D02*
X116762848Y-126728329D01*
X82626200Y-99999800D02*
X81439700Y-101186300D01*
D47*
X173970648Y-133527800D02*
X127185048Y-133527800D01*
D49*
X96962248Y-75108500D02*
X96962248Y-74121000D01*
X91998800Y-79490490D02*
X91998800Y-77368887D01*
D47*
X207577848Y-133885000D02*
X193327848Y-133885000D01*
D49*
X116762848Y-126728329D02*
X116762848Y-124941648D01*
X112484900Y-120663700D02*
X108051600Y-120663700D01*
X93776900Y-75158500D02*
X96912248Y-75158500D01*
X91998800Y-77368887D02*
X93177848Y-76189839D01*
D47*
%TO.N,Net-(D24-Pad2)*%
X210612848Y-128260000D02*
X210612848Y-132740000D01*
X210612848Y-132740000D02*
X209952848Y-133400000D01*
%TO.N,Net-(D25-Pad2)*%
X193327848Y-129975000D02*
X193327848Y-131025000D01*
X191612848Y-128260000D02*
X193327848Y-129975000D01*
%TO.N,Net-(D26-Pad2)*%
X174327848Y-129975000D02*
X174327848Y-131025000D01*
X172612848Y-128260000D02*
X174327848Y-129975000D01*
%TO.N,Net-(D27-Pad2)*%
X155327848Y-129975000D02*
X155327848Y-131025000D01*
X153612848Y-128260000D02*
X155327848Y-129975000D01*
%TO.N,Net-(D28-Pad2)*%
X125012848Y-129210000D02*
X126827848Y-131025000D01*
X125012848Y-128260000D02*
X125012848Y-129210000D01*
D49*
%TO.N,ca2*%
X206375000Y-61823600D02*
X206375000Y-61447152D01*
X131075700Y-60680600D02*
X129608448Y-60680600D01*
X178409600Y-62975663D02*
X176412848Y-64972415D01*
X173849448Y-101803200D02*
X172001448Y-103651200D01*
X196878294Y-62280800D02*
X192176400Y-62280800D01*
X206375000Y-61447152D02*
X205602848Y-60675000D01*
X111836200Y-60921700D02*
X110849548Y-60921700D01*
X178290296Y-63094967D02*
X168656000Y-63094967D01*
X206375000Y-63285100D02*
X197882594Y-63285100D01*
X120548400Y-63119000D02*
X120497600Y-63169800D01*
X159155900Y-63095467D02*
X159156400Y-63094967D01*
X167684648Y-60756800D02*
X167602848Y-60675000D01*
X171780448Y-77952600D02*
X171902848Y-78075000D01*
X176412848Y-64972415D02*
X176412848Y-72026295D01*
X168808400Y-60756800D02*
X167684648Y-60756800D01*
X176072800Y-101777800D02*
X176047400Y-101803200D01*
X176412848Y-72026295D02*
X177647600Y-73261047D01*
X129608448Y-60680600D02*
X129602848Y-60675000D01*
X120497600Y-63169800D02*
X112395000Y-63169800D01*
X191481537Y-62975663D02*
X178409600Y-62975663D01*
X176047400Y-101803200D02*
X173849448Y-101803200D01*
X112395000Y-63169800D02*
X111887000Y-62661800D01*
X149885400Y-60756800D02*
X148659848Y-60756800D01*
X166878048Y-96850200D02*
X167102848Y-97075000D01*
X130860800Y-63119000D02*
X139112134Y-63119000D01*
X148659848Y-60756800D02*
X148621848Y-60794800D01*
X178409600Y-62975663D02*
X178290296Y-63094967D01*
X165735000Y-96850200D02*
X166878048Y-96850200D01*
X139112134Y-63119000D02*
X139135667Y-63095467D01*
X197882594Y-63285100D02*
X196878294Y-62280800D01*
X103073448Y-100723000D02*
X101969000Y-100723000D01*
X177647600Y-73261047D02*
X177647600Y-75819000D01*
X172001448Y-103651200D02*
X106001648Y-103651200D01*
X187934600Y-60426600D02*
X186851248Y-60426600D01*
X139135667Y-63095467D02*
X159155900Y-63095467D01*
X186851248Y-60426600D02*
X186602848Y-60675000D01*
X159156400Y-63094967D02*
X168656000Y-63094967D01*
X106001648Y-103651200D02*
X103073448Y-100723000D01*
X192176400Y-62280800D02*
X191481537Y-62975663D01*
X110849548Y-60921700D02*
X110602848Y-60675000D01*
X130860800Y-63119000D02*
X120548400Y-63119000D01*
X170383200Y-77952600D02*
X171780448Y-77952600D01*
D47*
%TO.N,ca3*%
X143611600Y-61341444D02*
X143840046Y-61112998D01*
X185847049Y-61430800D02*
X187565400Y-61430800D01*
X162356800Y-61526663D02*
X181559200Y-61526663D01*
D49*
X148904859Y-96272989D02*
X148102848Y-97075000D01*
D47*
X143611600Y-61645967D02*
X131464039Y-61645967D01*
D49*
X153238200Y-102362000D02*
X152349000Y-103251200D01*
D50*
X158826200Y-75144100D02*
X159867600Y-76185500D01*
D47*
X200533000Y-61527163D02*
X197326739Y-61527163D01*
X187565400Y-61430800D02*
X187731400Y-61264800D01*
D50*
X156845000Y-63794967D02*
X156845000Y-71493802D01*
D47*
X124307933Y-61645467D02*
X131851400Y-61645467D01*
D50*
X156845000Y-71493802D02*
X158826200Y-73475002D01*
X149191904Y-61526663D02*
X149072600Y-61645967D01*
D47*
X106499048Y-61671200D02*
X105502848Y-60675000D01*
X124561600Y-61671200D02*
X124282200Y-61671200D01*
X124282200Y-61671200D02*
X124307933Y-61645467D01*
X200533000Y-61527163D02*
X200533000Y-61281244D01*
D49*
X152653448Y-77825600D02*
X152902848Y-78075000D01*
D47*
X181559200Y-61526663D02*
X181559200Y-61255044D01*
X162356800Y-61526663D02*
X162356800Y-61457444D01*
X181559200Y-61255044D02*
X181821046Y-60993198D01*
X122892761Y-61671200D02*
X122891061Y-61669500D01*
X162356800Y-61457444D02*
X162821046Y-60993198D01*
X185751185Y-61526663D02*
X185847049Y-61430800D01*
X185751185Y-61526663D02*
X181559200Y-61526663D01*
D49*
X151587200Y-77825600D02*
X152653448Y-77825600D01*
X156115472Y-97094535D02*
X155293926Y-96272989D01*
D47*
X122891061Y-61669500D02*
X122269739Y-61669500D01*
X143611600Y-61645967D02*
X149072600Y-61645967D01*
D49*
X155293926Y-96272989D02*
X148904859Y-96272989D01*
D47*
X124561600Y-61671200D02*
X124502848Y-61612448D01*
D50*
X156845000Y-61526663D02*
X149191904Y-61526663D01*
X158826200Y-73475002D02*
X158826200Y-75144100D01*
D47*
X197326739Y-61527163D02*
X197064376Y-61264800D01*
D49*
X152349000Y-103251200D02*
X106167334Y-103251200D01*
X106167334Y-103251200D02*
X103239134Y-100323000D01*
D47*
X162356800Y-61526663D02*
X156845000Y-61526663D01*
X124282200Y-61671200D02*
X122892761Y-61671200D01*
X143611600Y-61645967D02*
X143611600Y-61341444D01*
D49*
X103239134Y-100323000D02*
X101969000Y-100323000D01*
D47*
X122269739Y-61669500D02*
X122268039Y-61671200D01*
X200533000Y-61281244D02*
X200850685Y-60963559D01*
X122268039Y-61671200D02*
X106499048Y-61671200D01*
X124502848Y-61612448D02*
X124502848Y-60675000D01*
X197064376Y-61264800D02*
X187731400Y-61264800D01*
D49*
%TO.N,ca4*%
X139308248Y-78130400D02*
X139252848Y-78075000D01*
X121201914Y-78054200D02*
X120273648Y-78054200D01*
X192963800Y-78028800D02*
X192963800Y-79777576D01*
X121652714Y-78505000D02*
X121201914Y-78054200D01*
X207594200Y-79578200D02*
X204749400Y-76733400D01*
X200785691Y-58792158D02*
X200266522Y-58272989D01*
X192405000Y-81280000D02*
X169875200Y-81280000D01*
X121283000Y-81330800D02*
X132003800Y-81330800D01*
X132080000Y-81254600D02*
X132003800Y-81330800D01*
X204749400Y-76733400D02*
X194259200Y-76733400D01*
X206253389Y-58272989D02*
X208356200Y-60375800D01*
X103568848Y-99923000D02*
X101969000Y-99923000D01*
X169799000Y-81254600D02*
X132080000Y-81254600D01*
X209829400Y-63051552D02*
X209829400Y-79476600D01*
X120273648Y-78054200D02*
X120252848Y-78075000D01*
X208356200Y-61578352D02*
X209829400Y-63051552D01*
X208356200Y-60375800D02*
X208356200Y-61578352D01*
X106497048Y-102851200D02*
X103568848Y-99923000D01*
X122287300Y-78804118D02*
X121988182Y-78505000D01*
D50*
X158308248Y-78130400D02*
X158252848Y-78075000D01*
D49*
X169849800Y-81305400D02*
X169799000Y-81254600D01*
X129057400Y-97029552D02*
X129102848Y-97075000D01*
X200266522Y-58272989D02*
X206253389Y-58272989D01*
X121118900Y-81494900D02*
X121283000Y-81330800D01*
X129102848Y-97075000D02*
X127613400Y-97075000D01*
X169875200Y-81280000D02*
X169849800Y-81305400D01*
D50*
X159435800Y-78130400D02*
X158308248Y-78130400D01*
D49*
X127685800Y-102819200D02*
X127653800Y-102851200D01*
D50*
X177409848Y-78232000D02*
X177252848Y-78075000D01*
D49*
X140397500Y-78130400D02*
X139308248Y-78130400D01*
X127653800Y-102851200D02*
X106497048Y-102851200D01*
D50*
X201052848Y-78075000D02*
X201052848Y-76771952D01*
D49*
X127685800Y-101580962D02*
X127685800Y-102819200D01*
X194259200Y-76733400D02*
X192963800Y-78028800D01*
X129057400Y-91008200D02*
X129057400Y-97029552D01*
D50*
X178485800Y-78232000D02*
X177409848Y-78232000D01*
D49*
X121988182Y-78505000D02*
X121652714Y-78505000D01*
X127613400Y-97075000D02*
X126822200Y-97866200D01*
%TO.N,ca1*%
X113182400Y-62382400D02*
X113106200Y-62458600D01*
X131775200Y-62382400D02*
X131775200Y-62395467D01*
X103257763Y-101473000D02*
X105835963Y-104051200D01*
X202222000Y-104051200D02*
X206324200Y-99949000D01*
X192010715Y-61880800D02*
X197043980Y-61880800D01*
X206324200Y-99949000D02*
X206324200Y-96723200D01*
X187163048Y-59385200D02*
X186852848Y-59075000D01*
X189319363Y-61976663D02*
X189357000Y-62014300D01*
X194885448Y-78892400D02*
X195702848Y-78075000D01*
X160502600Y-62276163D02*
X160383296Y-62395467D01*
X203657525Y-96164075D02*
X203452848Y-95959398D01*
X197561200Y-82829400D02*
X194487800Y-82829400D01*
X202612848Y-87881048D02*
X197561200Y-82829400D01*
X208813400Y-64160400D02*
X208813400Y-83293153D01*
X197043980Y-61880800D02*
X197723380Y-62560200D01*
X207111600Y-60333752D02*
X205852848Y-59075000D01*
X202612848Y-91284648D02*
X202612848Y-89493705D01*
D50*
X199013773Y-96164075D02*
X203657525Y-96164075D01*
D49*
X203452848Y-95959398D02*
X203452848Y-92124648D01*
X206324200Y-96723200D02*
X206186000Y-96585000D01*
X188036200Y-59385200D02*
X187163048Y-59385200D01*
X207111600Y-62585600D02*
X207238600Y-62585600D01*
X202612848Y-89493705D02*
X208813400Y-83293153D01*
X203452848Y-92124648D02*
X202612848Y-91284648D01*
X197723380Y-62560200D02*
X199186800Y-62560200D01*
X139611467Y-62395467D02*
X139598400Y-62382400D01*
X179857400Y-62276163D02*
X160502600Y-62276163D01*
X191914852Y-61976663D02*
X192010715Y-61880800D01*
X180156900Y-61976663D02*
X179857400Y-62276163D01*
X105835963Y-104051200D02*
X202222000Y-104051200D01*
X111036048Y-59258200D02*
X110852848Y-59075000D01*
D50*
X198102848Y-97075000D02*
X199013773Y-96164075D01*
D49*
X168960800Y-59131200D02*
X167909048Y-59131200D01*
X130112248Y-59334400D02*
X129852848Y-59075000D01*
X206186000Y-96585000D02*
X204078450Y-96585000D01*
X149936200Y-59283600D02*
X148960648Y-59283600D01*
X207111600Y-62585600D02*
X207111600Y-60333752D01*
X112064800Y-59258200D02*
X111036048Y-59258200D01*
X207238600Y-62585600D02*
X208813400Y-64160400D01*
X204078450Y-96585000D02*
X203657525Y-96164075D01*
X150876000Y-62395467D02*
X139611467Y-62395467D01*
X199212200Y-62585600D02*
X207111600Y-62585600D01*
X101219000Y-101473000D02*
X103257763Y-101473000D01*
X199186800Y-62560200D02*
X199212200Y-62585600D01*
X160383296Y-62395467D02*
X150876000Y-62395467D01*
X194487800Y-78892400D02*
X194885448Y-78892400D01*
X131216400Y-59334400D02*
X130112248Y-59334400D01*
X188544200Y-61976663D02*
X180156900Y-61976663D01*
X188544200Y-61976663D02*
X189319363Y-61976663D01*
X202612848Y-89493705D02*
X202612848Y-87881048D01*
X148871848Y-59194800D02*
X148871848Y-59209848D01*
X167909048Y-59131200D02*
X167852848Y-59075000D01*
X148960648Y-59283600D02*
X148871848Y-59194800D01*
X131775200Y-62382400D02*
X113182400Y-62382400D01*
X139598400Y-62382400D02*
X131775200Y-62382400D01*
X188544200Y-61976663D02*
X191914852Y-61976663D01*
%TO.N,ca5*%
X178358800Y-79654400D02*
X177547934Y-79654400D01*
X121587800Y-79603600D02*
X121516400Y-79675000D01*
X200802848Y-80275000D02*
X200802848Y-79675000D01*
X199098348Y-81979500D02*
X200802848Y-80275000D01*
X121516400Y-79675000D02*
X120002848Y-79675000D01*
X159308800Y-79756000D02*
X158083848Y-79756000D01*
X177547934Y-79654400D02*
X177285691Y-79392157D01*
X103905200Y-99523000D02*
X101969000Y-99523000D01*
X149439900Y-82067400D02*
X159054800Y-82067400D01*
D50*
X109824952Y-97075000D02*
X110102848Y-97075000D01*
D49*
X117264700Y-102285800D02*
X106668000Y-102285800D01*
X149250400Y-82030300D02*
X149326600Y-81954100D01*
X149326600Y-81954100D02*
X149439900Y-82067400D01*
X120086589Y-82050996D02*
X120229993Y-82194400D01*
X130239500Y-82194400D02*
X130403600Y-82030300D01*
X120229993Y-82194400D02*
X130239500Y-82194400D01*
X130403600Y-82030300D02*
X140360400Y-82030300D01*
X117398800Y-102151700D02*
X117264700Y-102285800D01*
X168173400Y-82067400D02*
X168235400Y-82005400D01*
X159054800Y-82067400D02*
X168173400Y-82067400D01*
X168235400Y-82005400D02*
X177850800Y-82005400D01*
D50*
X109130270Y-97769682D02*
X109824952Y-97075000D01*
D49*
X115874800Y-85064599D02*
X115874800Y-85207134D01*
X140360400Y-82030300D02*
X149250400Y-82030300D01*
X106668000Y-102285800D02*
X103905200Y-99523000D01*
X115874800Y-85207134D02*
X109024567Y-92057367D01*
X179527200Y-59613800D02*
X180066000Y-59075000D01*
X118668800Y-82270600D02*
X115874800Y-85064599D01*
X158083848Y-79756000D02*
X158002848Y-79675000D01*
X191033400Y-81979500D02*
X199098348Y-81979500D01*
X191007500Y-82005400D02*
X177850800Y-82005400D01*
X140397500Y-79578200D02*
X139471734Y-79578200D01*
X180066000Y-59075000D02*
X181502848Y-59075000D01*
X139471734Y-79578200D02*
X139285691Y-79392157D01*
X191033400Y-81979500D02*
X191007500Y-82005400D01*
%TO.N,ca6*%
X152908000Y-80235534D02*
X153185691Y-79957843D01*
X166293800Y-80477076D02*
X171297600Y-80477076D01*
X107340400Y-96792100D02*
X107340400Y-94730777D01*
X160660400Y-59075000D02*
X162502848Y-59075000D01*
X166370000Y-79705200D02*
X166370000Y-80400876D01*
X171297600Y-80280248D02*
X171902848Y-79675000D01*
X107340400Y-94730777D02*
X119387089Y-82684089D01*
X152908000Y-80476641D02*
X152908000Y-80235534D01*
X176201272Y-80477576D02*
X195465957Y-80477576D01*
X119303800Y-80476641D02*
X115704489Y-80476641D01*
X152908000Y-80476641D02*
X133350000Y-80476641D01*
X166293800Y-80477076D02*
X156464435Y-80477076D01*
X133902848Y-79923793D02*
X133350000Y-80476641D01*
X171297600Y-80477076D02*
X176200772Y-80477076D01*
X152908000Y-80476641D02*
X156464000Y-80476641D01*
X176200772Y-80477076D02*
X176201272Y-80477576D01*
X104858085Y-99009200D02*
X104744285Y-99123000D01*
X107296900Y-99009200D02*
X104858085Y-99009200D01*
X119387089Y-82684089D02*
X119387089Y-80559930D01*
X133350000Y-80476641D02*
X119303800Y-80476641D01*
X156464435Y-80477076D02*
X156464000Y-80476641D01*
X160375600Y-59359800D02*
X160660400Y-59075000D01*
X171297600Y-80477076D02*
X171297600Y-80280248D01*
X166370000Y-80400876D02*
X166293800Y-80477076D01*
X195465957Y-80477576D02*
X195985691Y-79957842D01*
X104744285Y-99123000D02*
X101969000Y-99123000D01*
X119387089Y-80559930D02*
X119303800Y-80476641D01*
X107315000Y-98991100D02*
X107296900Y-99009200D01*
X115704489Y-80476641D02*
X114902848Y-79675000D01*
X133902848Y-79675000D02*
X133902848Y-79923793D01*
%TO.N,ca8*%
X104235764Y-98323000D02*
X101969000Y-98323000D01*
X116281200Y-98729800D02*
X115257648Y-98729800D01*
X121818400Y-84618100D02*
X121818400Y-82893900D01*
X115149900Y-100939600D02*
X126907768Y-100939600D01*
X115984181Y-96228424D02*
X115716957Y-95961200D01*
X130073400Y-76185500D02*
X130073400Y-73990200D01*
X109566648Y-95961200D02*
X108731000Y-96796848D01*
X129802900Y-77855000D02*
X125631848Y-77855000D01*
X128027848Y-71944648D02*
X128027848Y-67261052D01*
X122656600Y-60920000D02*
X122657848Y-60920000D01*
X108731000Y-96957136D02*
X107796536Y-97891600D01*
D50*
X154227824Y-98675000D02*
X154330400Y-98777576D01*
D49*
X134206848Y-98679000D02*
X134202848Y-98675000D01*
X121945897Y-84745597D02*
X121818400Y-84618100D01*
X125627848Y-77851000D02*
X122072400Y-77851000D01*
X121905800Y-90282800D02*
X122148600Y-90525600D01*
X125631848Y-77855000D02*
X125627848Y-77851000D01*
X122072400Y-77851000D02*
X122986800Y-77851000D01*
X121905800Y-86628200D02*
X121905800Y-90282800D01*
X115257648Y-98729800D02*
X115202848Y-98675000D01*
X121945400Y-86588600D02*
X121905800Y-86628200D01*
X126907768Y-100939600D02*
X126965906Y-100881462D01*
X124585296Y-63818500D02*
X122707400Y-63818500D01*
X107796536Y-97891600D02*
X104667164Y-97891600D01*
X136169400Y-98679000D02*
X134206848Y-98679000D01*
X130073400Y-73990200D02*
X128027848Y-71944648D01*
X115888848Y-77089000D02*
X115185691Y-77792157D01*
X122657848Y-60920000D02*
X124502848Y-59075000D01*
D50*
X172202848Y-98675000D02*
X173452600Y-98675000D01*
D49*
X204407881Y-100876076D02*
X204408250Y-100875707D01*
X126965906Y-100881462D02*
X144673014Y-100881462D01*
X204520800Y-98780600D02*
X203308448Y-98780600D01*
X203308448Y-98780600D02*
X203202848Y-98675000D01*
X108731000Y-96796848D02*
X108731000Y-96957136D01*
X120802400Y-77089000D02*
X115888848Y-77089000D01*
X128027848Y-67261052D02*
X124585296Y-63818500D01*
X121564400Y-77851000D02*
X120802400Y-77089000D01*
X115138200Y-100927900D02*
X115149900Y-100939600D01*
X115716957Y-95961200D02*
X109566648Y-95961200D01*
D50*
X173452600Y-98675000D02*
X173456600Y-98679000D01*
D49*
X130073400Y-77584500D02*
X129802900Y-77855000D01*
X144673014Y-100881462D02*
X144678400Y-100876076D01*
X122072400Y-77851000D02*
X121564400Y-77851000D01*
X122986800Y-77851000D02*
X122986800Y-79527400D01*
X104667164Y-97891600D02*
X104235764Y-98323000D01*
D50*
X153202848Y-98675000D02*
X154227824Y-98675000D01*
D49*
X122148600Y-90525600D02*
X124168900Y-90525600D01*
X144678400Y-100876076D02*
X204407881Y-100876076D01*
%TO.N,ca9*%
X198102848Y-98675000D02*
X197586600Y-99191248D01*
X167102848Y-98675000D02*
X167102848Y-99455428D01*
X108331000Y-95256482D02*
X108067469Y-94992951D01*
X101569000Y-97923000D02*
X104070078Y-97923000D01*
X197586600Y-99191248D02*
X197586600Y-99476641D01*
X167081200Y-99477076D02*
X171119800Y-99477076D01*
X128828800Y-99481962D02*
X110909810Y-99481962D01*
X107630850Y-97491600D02*
X108331000Y-96791450D01*
X128828800Y-99481962D02*
X133121400Y-99481962D01*
X111562848Y-76524152D02*
X114757200Y-73329800D01*
X102971600Y-59334400D02*
X103231000Y-59075000D01*
X103231000Y-59075000D02*
X105502848Y-59075000D01*
X197586600Y-99476641D02*
X171120235Y-99476641D01*
X106273600Y-91821000D02*
X106832400Y-91821000D01*
X167102848Y-99455428D02*
X167081200Y-99477076D01*
X133126286Y-99477076D02*
X133121400Y-99481962D01*
X148102848Y-98675000D02*
X148102848Y-99456228D01*
X128828800Y-98949048D02*
X128828800Y-99481962D01*
X108725700Y-99528900D02*
X109462300Y-99528900D01*
X104070078Y-97923000D02*
X104501479Y-97491600D01*
X104501479Y-97491600D02*
X107630850Y-97491600D01*
X106832400Y-91821000D02*
X107937848Y-90715552D01*
X129102848Y-98675000D02*
X128828800Y-98949048D01*
X111562848Y-83653705D02*
X111562848Y-76524152D01*
X107937848Y-87278705D02*
X111562848Y-83653705D01*
X108331000Y-96791450D02*
X108331000Y-95256482D01*
X148102848Y-99456228D02*
X148082000Y-99477076D01*
X110102848Y-98888352D02*
X110102848Y-98675000D01*
X110909810Y-99481962D02*
X110102848Y-98675000D01*
X109462300Y-99528900D02*
X110102848Y-98888352D01*
X171120235Y-99476641D02*
X171119800Y-99477076D01*
X107937848Y-90715552D02*
X107937848Y-87278705D01*
X167081200Y-99477076D02*
X148082000Y-99477076D01*
X101219000Y-97573000D02*
X101569000Y-97923000D01*
X148082000Y-99477076D02*
X133126286Y-99477076D01*
%TO.N,ca7*%
X205507600Y-97075000D02*
X203452848Y-97075000D01*
X205924200Y-97491600D02*
X205507600Y-97075000D01*
X107605450Y-98291600D02*
X108026200Y-98712350D01*
X172452848Y-97075000D02*
X174164000Y-97075000D01*
D50*
X135313700Y-97075000D02*
X135469900Y-97231200D01*
X155037800Y-97075000D02*
X155117800Y-97155000D01*
D49*
X146659600Y-94880700D02*
X145115500Y-94880700D01*
X205707714Y-99999800D02*
X205924200Y-99783314D01*
X205924200Y-99783314D02*
X205924200Y-97491600D01*
X196340541Y-100101400D02*
X196442141Y-99999800D01*
D50*
X115452848Y-97075000D02*
X116466900Y-97075000D01*
D49*
X174164000Y-97075000D02*
X174574200Y-97485200D01*
X108026200Y-100228400D02*
X117043200Y-100228400D01*
X104578600Y-98723000D02*
X105010000Y-98291600D01*
X196442141Y-99999800D02*
X205707714Y-99999800D01*
X105010000Y-98291600D02*
X107605450Y-98291600D01*
D50*
X134452848Y-97075000D02*
X135313700Y-97075000D01*
D49*
X141859000Y-60350400D02*
X143014600Y-59194800D01*
X108026200Y-98712350D02*
X108026200Y-100228400D01*
X143014600Y-59194800D02*
X143521848Y-59194800D01*
X145115500Y-94880700D02*
X141134100Y-90899300D01*
X133847448Y-78130400D02*
X133902848Y-78075000D01*
X101969000Y-98723000D02*
X104578600Y-98723000D01*
X117043200Y-100228400D02*
X117170200Y-100101400D01*
X132359400Y-78130400D02*
X133847448Y-78130400D01*
D50*
X153452848Y-97075000D02*
X155037800Y-97075000D01*
X116466900Y-97075000D02*
X116750100Y-97358200D01*
D49*
X117170200Y-100101400D02*
X196340541Y-100101400D01*
X141134100Y-90899300D02*
X141134100Y-89560400D01*
%TO.N,cb2*%
X134849759Y-119953000D02*
X145161000Y-119953000D01*
X98069000Y-98323000D02*
X95319019Y-98323000D01*
X97561400Y-117500400D02*
X97561400Y-116382800D01*
D50*
X107013400Y-117675000D02*
X107035600Y-117652800D01*
D49*
X163677600Y-119913400D02*
X183108600Y-119913400D01*
X102463600Y-119964200D02*
X107035600Y-119964200D01*
X97561400Y-116382800D02*
X98247200Y-115697000D01*
X93687848Y-115328752D02*
X93345000Y-115671600D01*
X153110700Y-119953000D02*
X153111200Y-119952500D01*
D50*
X105702848Y-117675000D02*
X107013400Y-117675000D01*
D49*
X145161000Y-119953000D02*
X153110700Y-119953000D01*
X115468400Y-119964200D02*
X115556959Y-119875641D01*
X115556959Y-119875641D02*
X134772400Y-119875641D01*
X100321078Y-119966700D02*
X102461100Y-119966700D01*
X107035600Y-119964200D02*
X115468400Y-119964200D01*
X153150300Y-119913400D02*
X163677600Y-119913400D01*
X193624200Y-117777576D02*
X196128348Y-115273428D01*
X192862200Y-117777576D02*
X193624200Y-117777576D01*
X153111200Y-119952500D02*
X153150300Y-119913400D01*
X99621078Y-119266700D02*
X100321078Y-119966700D01*
D50*
X125982000Y-117271800D02*
X125578800Y-117675000D01*
D49*
X206603600Y-116509800D02*
X205438400Y-117675000D01*
X95319019Y-98323000D02*
X93687848Y-99954171D01*
X183108600Y-119913400D02*
X191478900Y-119913400D01*
X180267411Y-135325654D02*
X181252194Y-135325654D01*
X191478900Y-119913400D02*
X191490600Y-119901700D01*
D50*
X163889700Y-117675000D02*
X163969100Y-117754400D01*
D49*
X134772400Y-119875641D02*
X134849759Y-119953000D01*
X143706048Y-117678200D02*
X143702848Y-117675000D01*
D50*
X181702848Y-117675000D02*
X183006024Y-117675000D01*
D49*
X93687848Y-99954171D02*
X93687848Y-115328752D01*
X205367228Y-115273428D02*
X206603600Y-116509800D01*
D50*
X125578800Y-117675000D02*
X124702848Y-117675000D01*
D49*
X181252194Y-135325654D02*
X181502848Y-135075000D01*
D50*
X183006024Y-117675000D02*
X183108600Y-117777576D01*
D49*
X145262600Y-117678200D02*
X143706048Y-117678200D01*
X205438400Y-117675000D02*
X203202848Y-117675000D01*
X102461100Y-119966700D02*
X102463600Y-119964200D01*
X196128348Y-115273428D02*
X205367228Y-115273428D01*
D50*
X162702848Y-117675000D02*
X163889700Y-117675000D01*
D49*
%TO.N,cb3*%
X138430000Y-118477076D02*
X138316924Y-118364000D01*
X157602848Y-118455828D02*
X157602848Y-117675000D01*
X138430000Y-118477076D02*
X157734000Y-118477076D01*
X94087848Y-100119856D02*
X94087848Y-118967352D01*
X198069200Y-118477076D02*
X198069200Y-118274333D01*
X119602848Y-118329993D02*
X119456200Y-118476641D01*
X182504924Y-118477076D02*
X198069200Y-118477076D01*
X176758600Y-118476641D02*
X161901207Y-118476641D01*
D50*
X176602848Y-118320889D02*
X176758600Y-118476641D01*
D49*
X182504489Y-118476641D02*
X182504924Y-118477076D01*
X161992648Y-135585200D02*
X162502848Y-135075000D01*
X176758600Y-118476641D02*
X182504489Y-118476641D01*
X157602848Y-118345924D02*
X157734000Y-118477076D01*
X94087848Y-118967352D02*
X93726000Y-119329200D01*
X157581600Y-118477076D02*
X157602848Y-118455828D01*
D50*
X100228400Y-118049448D02*
X100228400Y-118567200D01*
D49*
X104810648Y-118567200D02*
X100228400Y-118567200D01*
X95484704Y-98723000D02*
X94087848Y-100119856D01*
X138602848Y-117675000D02*
X138602848Y-118304228D01*
X198069200Y-118274333D02*
X198385691Y-117957842D01*
X104901207Y-118476641D02*
X104810648Y-118567200D01*
X95987348Y-119329200D02*
X96749348Y-118567200D01*
X119456200Y-118476641D02*
X104901207Y-118476641D01*
X138316924Y-118364000D02*
X126362126Y-118364000D01*
X157602848Y-117675000D02*
X157602848Y-118345924D01*
X119602848Y-117675000D02*
X119602848Y-118329993D01*
D50*
X100602848Y-117675000D02*
X100228400Y-118049448D01*
D49*
X126249485Y-118476641D02*
X119456200Y-118476641D01*
D50*
X176602848Y-117675000D02*
X176602848Y-118320889D01*
D49*
X98069000Y-98723000D02*
X95484704Y-98723000D01*
X161900772Y-118477076D02*
X157734000Y-118477076D01*
X138602848Y-118304228D02*
X138430000Y-118477076D01*
X126362126Y-118364000D02*
X126249485Y-118476641D01*
X161901207Y-118476641D02*
X161900772Y-118477076D01*
X161086800Y-135585200D02*
X161992648Y-135585200D01*
X96749348Y-118567200D02*
X100228400Y-118567200D01*
%TO.N,cb4*%
X109216244Y-136675000D02*
X112646600Y-136675000D01*
X163347400Y-137820400D02*
X163322000Y-137795000D01*
X149338300Y-137922000D02*
X144749848Y-137922000D01*
X150582900Y-136677400D02*
X149338300Y-137922000D01*
X202692000Y-127846073D02*
X199212200Y-131325873D01*
X150774400Y-136677400D02*
X150582900Y-136677400D01*
X199212200Y-133135500D02*
X199220600Y-133143900D01*
D50*
X168434505Y-135075000D02*
X169900600Y-136541095D01*
D49*
X187858300Y-137375000D02*
X185953300Y-137375000D01*
D50*
X120252848Y-135075000D02*
X120305848Y-135128000D01*
D49*
X112646600Y-136675000D02*
X114020600Y-138049000D01*
X206908400Y-134874000D02*
X206053848Y-134874000D01*
X196926200Y-116789200D02*
X197240400Y-116475000D01*
X179220541Y-137820400D02*
X169900600Y-137820400D01*
X94487848Y-100285543D02*
X95650390Y-99123000D01*
D50*
X120305848Y-135128000D02*
X122055800Y-135128000D01*
D49*
X198268533Y-116475000D02*
X198385691Y-116357842D01*
X197240400Y-116475000D02*
X198268533Y-116475000D01*
X144749848Y-137922000D02*
X144597448Y-137769600D01*
X116484400Y-138023600D02*
X120726200Y-138023600D01*
X198704200Y-136550400D02*
X198704200Y-136782462D01*
X196926200Y-116916200D02*
X196926200Y-116789200D01*
X150774400Y-136677400D02*
X160655000Y-136677400D01*
X115627348Y-137972800D02*
X116433600Y-137972800D01*
X107809558Y-135268314D02*
X109216244Y-136675000D01*
D50*
X169900600Y-136541095D02*
X169900600Y-137820400D01*
D49*
X116433600Y-137972800D02*
X116484400Y-138023600D01*
X105791678Y-135228922D02*
X104801728Y-135228922D01*
X142124700Y-137781300D02*
X142124700Y-137795000D01*
X206053848Y-134874000D02*
X205852848Y-135075000D01*
X104801728Y-135228922D02*
X94487848Y-124915042D01*
X199220600Y-133143900D02*
X199339200Y-133143900D01*
X187934600Y-137298700D02*
X187858300Y-137375000D01*
D50*
X122055800Y-135128000D02*
X122838800Y-135911000D01*
D49*
X180803348Y-137769600D02*
X179271341Y-137769600D01*
X122838800Y-135911000D02*
X140254400Y-135911000D01*
X120726200Y-138023600D02*
X122838800Y-135911000D01*
X198856600Y-136398000D02*
X198704200Y-136550400D01*
X198704200Y-136782462D02*
X198187962Y-137298700D01*
X198187962Y-137298700D02*
X188798200Y-137298700D01*
X185496200Y-137832100D02*
X182214048Y-137832100D01*
X202692000Y-126212600D02*
X202692000Y-127846073D01*
X144597448Y-137769600D02*
X143523700Y-137769600D01*
X182214048Y-137832100D02*
X182202348Y-137820400D01*
X142062200Y-137718800D02*
X142124700Y-137781300D01*
X95650390Y-99123000D02*
X98069000Y-99123000D01*
D50*
X186852848Y-135075000D02*
X188669000Y-135075000D01*
D49*
X140254400Y-135911000D02*
X142062200Y-137718800D01*
X163347400Y-137820400D02*
X169900600Y-137820400D01*
X150774400Y-136677400D02*
X149225000Y-135128000D01*
X199212200Y-133135500D02*
X199330800Y-133135500D01*
X149225000Y-135128000D02*
X148799847Y-135128000D01*
X160655000Y-136677400D02*
X161721800Y-137744200D01*
X94487848Y-124915042D02*
X94487848Y-100285543D01*
X179271341Y-137769600D02*
X179220541Y-137820400D01*
X199330800Y-133135500D02*
X199339200Y-133143900D01*
X185953300Y-137375000D02*
X185496200Y-137832100D01*
D50*
X188669000Y-135075000D02*
X188772800Y-135178800D01*
D49*
X188798200Y-137298700D02*
X187934600Y-137298700D01*
D50*
X167852848Y-135075000D02*
X168434505Y-135075000D01*
D49*
X199212200Y-131325873D02*
X199212200Y-133135500D01*
%TO.N,cb1*%
X198646589Y-128427930D02*
X196723000Y-130351519D01*
X94532200Y-98544133D02*
X94532200Y-96654783D01*
X92645000Y-116789200D02*
X92645000Y-106705400D01*
X91293872Y-106405900D02*
X91593372Y-106705400D01*
X94854383Y-96332600D02*
X98098875Y-96332600D01*
X83012500Y-106405900D02*
X91293872Y-106405900D01*
D50*
X163108248Y-116230400D02*
X162952848Y-116075000D01*
D49*
X163449650Y-119151400D02*
X203250800Y-119151400D01*
X143952848Y-116075000D02*
X144076848Y-115951000D01*
X89484200Y-68339700D02*
X89484200Y-73329800D01*
X196723000Y-130351519D02*
X196723000Y-132729100D01*
D50*
X183642000Y-116306600D02*
X182184448Y-116306600D01*
D49*
X163348050Y-119253000D02*
X163449650Y-119151400D01*
X117475659Y-119151400D02*
X117500400Y-119176141D01*
X80594200Y-103987600D02*
X83012500Y-106405900D01*
D50*
X164668200Y-116230400D02*
X163108248Y-116230400D01*
D49*
X144076848Y-115951000D02*
X146214100Y-115951000D01*
X117500400Y-119176141D02*
X136168741Y-119176141D01*
X197485000Y-134645400D02*
X197914600Y-135075000D01*
X98819000Y-97052725D02*
X98819000Y-97573000D01*
X81254600Y-98450400D02*
X80594200Y-99110800D01*
X146177000Y-119253000D02*
X163348050Y-119253000D01*
X106667048Y-116789200D02*
X105952848Y-116075000D01*
X98098875Y-96332600D02*
X98819000Y-97052725D01*
X92645000Y-106705400D02*
X92645000Y-100431333D01*
X126678500Y-116075000D02*
X126681500Y-116078000D01*
X136168741Y-119176141D02*
X136245600Y-119253000D01*
X80594200Y-99110800D02*
X80594200Y-103987600D01*
X203250800Y-119151400D02*
X198646589Y-123755611D01*
X198646589Y-123755611D02*
X198646589Y-128427930D01*
D50*
X205152800Y-116075000D02*
X205333600Y-116255800D01*
D49*
X136245600Y-119253000D02*
X146177000Y-119253000D01*
X197914600Y-135075000D02*
X200502848Y-135075000D01*
X144153048Y-115874800D02*
X143952848Y-116075000D01*
X92645000Y-100431333D02*
X94532200Y-98544133D01*
X108915200Y-116789200D02*
X106667048Y-116789200D01*
X94532200Y-96654783D02*
X94854383Y-96332600D01*
X91593372Y-106705400D02*
X92645000Y-106705400D01*
X101308900Y-119151400D02*
X117475659Y-119151400D01*
X124952848Y-116075000D02*
X126678500Y-116075000D01*
X101193600Y-119266700D02*
X101308900Y-119151400D01*
D50*
X182184448Y-116306600D02*
X181952848Y-116075000D01*
X203452848Y-116075000D02*
X205152800Y-116075000D01*
D49*
X85552848Y-60025000D02*
X86502848Y-59075000D01*
X88849200Y-67704700D02*
X89484200Y-68339700D01*
X196723000Y-132729100D02*
X197129400Y-133135500D01*
X85552848Y-63034748D02*
X85552848Y-60025000D01*
X88823800Y-66305700D02*
X85552848Y-63034748D01*
%TO.N,cb5*%
X191410248Y-134137400D02*
X190119000Y-134137400D01*
X114350800Y-134375000D02*
X114121648Y-134375000D01*
X128766800Y-134047000D02*
X127927221Y-134886579D01*
D50*
X188301905Y-136675000D02*
X190119000Y-134857905D01*
D49*
X155614100Y-135977900D02*
X151384000Y-135977900D01*
X122415420Y-134886579D02*
X121802269Y-134273428D01*
D50*
X190119000Y-134857905D02*
X190119000Y-134137400D01*
D49*
X180251300Y-134137400D02*
X180035200Y-134353500D01*
X170625100Y-136589100D02*
X168300400Y-134264400D01*
X94887848Y-100451229D02*
X95816076Y-99523000D01*
X107099422Y-134543800D02*
X107085722Y-134530100D01*
X157327600Y-134264400D02*
X155614100Y-135977900D01*
X168910000Y-136855200D02*
X167783048Y-136855200D01*
D50*
X120002848Y-136675000D02*
X121085556Y-136675000D01*
D49*
X149453100Y-134047000D02*
X128766800Y-134047000D01*
X95816076Y-99523000D02*
X98069000Y-99523000D01*
X121802269Y-134273428D02*
X121158000Y-134273428D01*
X114121648Y-134375000D02*
X113952848Y-134543800D01*
D50*
X177429179Y-115248669D02*
X176602848Y-116075000D01*
D49*
X167783048Y-136855200D02*
X167602848Y-136675000D01*
X192477048Y-135987448D02*
X192477048Y-135204200D01*
D50*
X184870069Y-115248669D02*
X177429179Y-115248669D01*
D49*
X113952848Y-134543800D02*
X107099422Y-134543800D01*
D50*
X185140600Y-115519200D02*
X184870069Y-115248669D01*
D49*
X190119000Y-134137400D02*
X180251300Y-134137400D01*
X177457300Y-136931400D02*
X170625100Y-136931400D01*
X127927221Y-134886579D02*
X122415420Y-134886579D01*
X149663328Y-136607728D02*
X148670120Y-136607728D01*
D50*
X203580148Y-138697700D02*
X192506600Y-138697700D01*
D49*
X192477048Y-135204200D02*
X191410248Y-134137400D01*
X148670120Y-136607728D02*
X148602848Y-136675000D01*
X121158000Y-134273428D02*
X114452372Y-134273428D01*
D50*
X121085556Y-136675000D02*
X121125455Y-136635101D01*
D49*
X168300400Y-134264400D02*
X157327600Y-134264400D01*
X192481200Y-135991600D02*
X192477048Y-135987448D01*
X114452372Y-134273428D02*
X114350800Y-134375000D01*
X170625100Y-136931400D02*
X170625100Y-136589100D01*
X94887848Y-124351848D02*
X94887848Y-100451229D01*
D50*
X186602848Y-136675000D02*
X188301905Y-136675000D01*
D49*
X105054075Y-134518075D02*
X94887848Y-124351848D01*
X180035200Y-134353500D02*
X177457300Y-136931400D01*
X151384000Y-135977900D02*
X149453100Y-134047000D01*
D50*
X205602848Y-136675000D02*
X203580148Y-138697700D01*
D49*
X105080125Y-134518075D02*
X105054075Y-134518075D01*
%TO.N,cb6*%
X157472848Y-116205000D02*
X157602848Y-116075000D01*
X114528600Y-138861800D02*
X119811800Y-138861800D01*
X120991096Y-139659000D02*
X142824200Y-139659000D01*
X167589200Y-138531600D02*
X167602848Y-138517952D01*
X156362400Y-116205000D02*
X157472848Y-116205000D01*
X181406800Y-138531600D02*
X186069448Y-138531600D01*
X119811800Y-138861800D02*
X120002848Y-138670752D01*
X142824200Y-139659000D02*
X148326496Y-139659000D01*
X110413800Y-138861800D02*
X114528600Y-138861800D01*
D50*
X162502848Y-138385552D02*
X162356800Y-138531600D01*
D49*
X186602848Y-137998200D02*
X199745333Y-137998200D01*
X120002848Y-138670752D02*
X120991096Y-139659000D01*
D50*
X114902848Y-136675000D02*
X114902848Y-138487552D01*
D49*
X199745333Y-137998200D02*
X200785691Y-136957842D01*
X148326496Y-139659000D02*
X149453896Y-138531600D01*
X98069000Y-99923000D02*
X95981762Y-99923000D01*
X95981762Y-99923000D02*
X95287848Y-100616914D01*
X162356800Y-138531600D02*
X167589200Y-138531600D01*
X186069448Y-138531600D02*
X186602848Y-137998200D01*
D50*
X114902848Y-138487552D02*
X114528600Y-138861800D01*
D49*
X181502848Y-138435552D02*
X181406800Y-138531600D01*
X181502848Y-136675000D02*
X181502848Y-138435552D01*
D50*
X162502848Y-136675000D02*
X162502848Y-138385552D01*
D49*
X142824200Y-137353648D02*
X143220005Y-136957843D01*
X158648400Y-138531600D02*
X162356800Y-138531600D01*
X158648400Y-138531600D02*
X158648400Y-138049000D01*
X95287848Y-100616914D02*
X95287848Y-123735848D01*
X167602848Y-138531600D02*
X181406800Y-138531600D01*
X149453896Y-138531600D02*
X158648400Y-138531600D01*
X158648400Y-138049000D02*
X158699200Y-137998200D01*
X95287848Y-123735848D02*
X110413800Y-138861800D01*
X142824200Y-139659000D02*
X142824200Y-137353648D01*
%TO.N,cb7*%
X141630400Y-134747000D02*
X142087600Y-135204200D01*
X123069223Y-114198400D02*
X116887948Y-114198400D01*
X112750600Y-107696000D02*
X112699800Y-107696000D01*
X138836399Y-113741200D02*
X123526423Y-113741200D01*
X139170700Y-114075501D02*
X138836399Y-113741200D01*
X142087600Y-135204200D02*
X142807962Y-135204200D01*
X142807962Y-135204200D02*
X143220005Y-134792157D01*
X95687848Y-100782600D02*
X95687848Y-104534285D01*
D50*
X137309400Y-116075000D02*
X137287000Y-116052600D01*
D49*
X112699800Y-107619800D02*
X112699800Y-107696000D01*
X96147448Y-100323000D02*
X95687848Y-100782600D01*
X123526423Y-113741200D02*
X123069223Y-114198400D01*
X93370400Y-66305700D02*
X93370400Y-60592552D01*
X115871948Y-113182400D02*
X115871948Y-110817348D01*
D50*
X138602848Y-116075000D02*
X137309400Y-116075000D01*
D49*
X95687848Y-104534285D02*
X96004763Y-104851200D01*
X93370400Y-60592552D02*
X91852848Y-59075000D01*
X115871948Y-110817348D02*
X112750600Y-107696000D01*
X98069000Y-100323000D02*
X96147448Y-100323000D01*
X116887948Y-114198400D02*
X115871948Y-113182400D01*
X109931200Y-104851200D02*
X112699800Y-107619800D01*
X96004763Y-104851200D02*
X109931200Y-104851200D01*
%TO.N,cb8*%
X112826800Y-105968800D02*
X112725200Y-105968800D01*
X118541800Y-111570623D02*
X117511977Y-110540800D01*
X110469047Y-104451200D02*
X112355924Y-106338076D01*
X96087849Y-104368600D02*
X96170449Y-104451200D01*
X96313134Y-100723000D02*
X96087848Y-100948286D01*
X96087848Y-100948286D02*
X96087849Y-104368600D01*
X98069000Y-100723000D02*
X96313134Y-100723000D01*
X114418048Y-135559800D02*
X114902848Y-135075000D01*
X91440000Y-66294000D02*
X91602848Y-66131152D01*
X117511977Y-110540800D02*
X116558648Y-110540800D01*
X113436400Y-135559800D02*
X114418048Y-135559800D01*
X91602848Y-66131152D02*
X91602848Y-60675000D01*
X119275648Y-115747800D02*
X119602848Y-116075000D01*
X116558648Y-110540800D02*
X112355924Y-106338076D01*
X96170449Y-104451200D02*
X110469047Y-104451200D01*
X118211600Y-115747800D02*
X119275648Y-115747800D01*
X118541800Y-113475500D02*
X118541800Y-111570623D01*
X112725200Y-105968800D02*
X112355924Y-106338076D01*
%TO.N,cb9*%
X90242746Y-67802846D02*
X90242746Y-72390000D01*
X99273748Y-113650148D02*
X100444300Y-114820700D01*
X90040500Y-66141600D02*
X90040500Y-64212652D01*
X90144600Y-67704700D02*
X90242746Y-67802846D01*
X81039700Y-103823500D02*
X83222100Y-106005900D01*
X97028000Y-108569502D02*
X97028000Y-109077400D01*
X90040500Y-64212652D02*
X86502848Y-60675000D01*
X98570277Y-110599100D02*
X99273748Y-111302571D01*
X83222100Y-106005900D02*
X91883822Y-106005900D01*
X81818812Y-99410623D02*
X81039700Y-100189735D01*
X96951800Y-102043648D02*
X96951800Y-103669100D01*
D50*
X100602848Y-116075000D02*
X100602848Y-114979248D01*
X100602848Y-114979248D02*
X100444300Y-114820700D01*
D49*
X98549700Y-110599100D02*
X98570277Y-110599100D01*
X98819000Y-101473000D02*
X97522448Y-101473000D01*
X81039700Y-100189735D02*
X81039700Y-103823500D01*
X99273748Y-111302571D02*
X99273748Y-113650148D01*
X97028000Y-109077400D02*
X98549700Y-110599100D01*
X97522448Y-101473000D02*
X96951800Y-102043648D01*
D48*
%TO.N,Net-(F1-Pad1)*%
X83022848Y-77043600D02*
X83333048Y-76733400D01*
X83336648Y-76729800D02*
X83333048Y-76733400D01*
X83868229Y-72479800D02*
X84327848Y-72479800D01*
X85652848Y-72474800D02*
X84332848Y-72474800D01*
X84332848Y-72474800D02*
X84327848Y-72479800D01*
X84332848Y-76724800D02*
X84327848Y-76729800D01*
X83297113Y-73050916D02*
X83868229Y-72479800D01*
X85873048Y-80752600D02*
X84945248Y-79824800D01*
X84327848Y-76729800D02*
X83336648Y-76729800D01*
X83022848Y-79297592D02*
X83022848Y-77043600D01*
X85652848Y-76724800D02*
X84332848Y-76724800D01*
X84945248Y-79824800D02*
X83550056Y-79824800D01*
X83297113Y-75180300D02*
X83297113Y-73050916D01*
X83550056Y-79824800D02*
X83022848Y-79297592D01*
D49*
%TO.N,col0*%
X194777200Y-125720000D02*
X194716400Y-125780800D01*
X96462248Y-74121000D02*
X96462248Y-73074648D01*
X196762848Y-125720000D02*
X194777200Y-125720000D01*
X192125600Y-68882752D02*
X191962848Y-68720000D01*
X192328800Y-106680000D02*
X192368800Y-106720000D01*
X117272478Y-86206922D02*
X118009400Y-85470000D01*
X190295800Y-85470000D02*
X192303400Y-87477600D01*
X96462248Y-73074648D02*
X96973148Y-72563748D01*
X196762848Y-49720000D02*
X194856600Y-49720000D01*
X192368800Y-106720000D02*
X194362848Y-106720000D01*
X192545800Y-87720000D02*
X192303400Y-87477600D01*
X194362848Y-87720000D02*
X192545800Y-87720000D01*
X118009400Y-85470000D02*
X190295800Y-85470000D01*
X194856600Y-49720000D02*
X194589400Y-49987200D01*
X192125600Y-70942200D02*
X192125600Y-68882752D01*
%TO.N,col1*%
X175628800Y-49720000D02*
X175539400Y-49809400D01*
X96977724Y-71569928D02*
X95962248Y-72585404D01*
X163362848Y-87720000D02*
X161354600Y-87720000D01*
X175488600Y-125780800D02*
X175549400Y-125720000D01*
X177762848Y-49720000D02*
X175628800Y-49720000D01*
X170129200Y-70686352D02*
X168162848Y-68720000D01*
X118922800Y-86868000D02*
X119920800Y-85870000D01*
X119920800Y-85870000D02*
X159504600Y-85870000D01*
X96977724Y-71564256D02*
X96977724Y-71569928D01*
X159504600Y-85870000D02*
X161340800Y-87706200D01*
X95962248Y-72585404D02*
X95962248Y-74121000D01*
X170129200Y-70840600D02*
X170129200Y-70686352D01*
X175549400Y-125720000D02*
X177762848Y-125720000D01*
X170905800Y-106720000D02*
X172862848Y-106720000D01*
X161354600Y-87720000D02*
X161340800Y-87706200D01*
X170865800Y-106680000D02*
X170905800Y-106720000D01*
%TO.N,col2*%
X151754200Y-106720000D02*
X153862848Y-106720000D01*
X133536553Y-89570000D02*
X135386553Y-87720000D01*
X96022882Y-71959084D02*
X95462248Y-72519718D01*
X158600448Y-125882400D02*
X158762848Y-125720000D01*
X96022882Y-71134518D02*
X96022882Y-71959084D01*
X122996400Y-89570000D02*
X133536553Y-89570000D01*
X146812000Y-68681600D02*
X146850400Y-68720000D01*
X96691628Y-70465772D02*
X96022882Y-71134518D01*
X151714200Y-106680000D02*
X151754200Y-106720000D01*
X122605800Y-89179400D02*
X122996400Y-89570000D01*
X95462248Y-72519718D02*
X95462248Y-74121000D01*
X158762848Y-49720000D02*
X156274000Y-49720000D01*
X141833600Y-87782400D02*
X141896000Y-87720000D01*
X141896000Y-87720000D02*
X144362848Y-87720000D01*
X156870400Y-125882400D02*
X158600448Y-125882400D01*
X135386553Y-87720000D02*
X144362848Y-87720000D01*
X146850400Y-68720000D02*
X149162848Y-68720000D01*
X156274000Y-49720000D02*
X156235400Y-49758600D01*
X96995072Y-70465772D02*
X96691628Y-70465772D01*
%TO.N,col3*%
X94982248Y-72009768D02*
X95322882Y-71669134D01*
X125275048Y-87807800D02*
X125362848Y-87720000D01*
X132791200Y-106451400D02*
X133059800Y-106720000D01*
X94962248Y-74121000D02*
X94962248Y-73287352D01*
X131089400Y-69646552D02*
X130162848Y-68720000D01*
X137833600Y-49720000D02*
X139762848Y-49720000D01*
X123545600Y-87807800D02*
X125275048Y-87807800D01*
X133059800Y-106720000D02*
X134862848Y-106720000D01*
X131089400Y-71018400D02*
X131089400Y-69646552D01*
X137718800Y-49834800D02*
X137833600Y-49720000D01*
X137017600Y-125720000D02*
X137007600Y-125730000D01*
X94982248Y-73267352D02*
X94982248Y-72009768D01*
X139762848Y-125720000D02*
X137017600Y-125720000D01*
X94962248Y-73287352D02*
X94982248Y-73267352D01*
%TO.N,col4*%
X94462248Y-74121000D02*
X94462248Y-73207371D01*
X94582248Y-73087370D02*
X94582248Y-71420524D01*
X111187848Y-68720000D02*
X111162848Y-68720000D01*
X115862848Y-106720000D02*
X117782448Y-104800400D01*
X117020612Y-108742483D02*
X115862848Y-107584719D01*
X94582248Y-71420524D02*
X96588648Y-69414123D01*
X96633800Y-62190400D02*
X102067750Y-62190400D01*
X94462248Y-73207371D02*
X94582248Y-73087370D01*
X106362848Y-89548048D02*
X106362848Y-87720000D01*
X115862848Y-107584719D02*
X115862848Y-106720000D01*
X118973600Y-64820800D02*
X115087048Y-64820800D01*
X96588648Y-62235552D02*
X96633800Y-62190400D01*
X106629200Y-89814400D02*
X106362848Y-89548048D01*
X117782448Y-104800400D02*
X118160800Y-104800400D01*
X107052400Y-64761400D02*
X108496933Y-64761400D01*
X108496933Y-64761400D02*
X111162848Y-67427315D01*
X111162848Y-83245485D02*
X111162848Y-68720000D01*
X106688333Y-87720000D02*
X111162848Y-83245485D01*
X115087048Y-64820800D02*
X111187848Y-68720000D01*
X111162848Y-67427315D02*
X111162848Y-68720000D01*
X102067750Y-62190400D02*
X102158150Y-62280800D01*
X111162848Y-125720000D02*
X111162848Y-124066552D01*
X118922800Y-49682400D02*
X120725248Y-49682400D01*
X111162848Y-124066552D02*
X112254622Y-122974778D01*
X104571800Y-62280800D02*
X107052400Y-64761400D01*
X106362848Y-87720000D02*
X106688333Y-87720000D01*
X96588648Y-69414123D02*
X96588648Y-62235552D01*
X120725248Y-49682400D02*
X120762848Y-49720000D01*
X119075200Y-64719200D02*
X118973600Y-64820800D01*
X102158150Y-62280800D02*
X104571800Y-62280800D01*
%TO.N,col5*%
X107967953Y-105638600D02*
X108661200Y-105638600D01*
X98712848Y-108570000D02*
X105036553Y-108570000D01*
X93962248Y-74121000D02*
X93962248Y-73141685D01*
X94182248Y-72921685D02*
X94182248Y-71254838D01*
X97985048Y-56057800D02*
X99465048Y-56057800D01*
X99465048Y-56057800D02*
X101762848Y-53760000D01*
X101762848Y-53760000D02*
X101762848Y-53441600D01*
X104597200Y-62890400D02*
X101777800Y-62890400D01*
X106868200Y-65161400D02*
X104597200Y-62890400D01*
X101762848Y-53441600D02*
X101762848Y-56449248D01*
X104521000Y-92760800D02*
X104521000Y-92481400D01*
X105280144Y-85511400D02*
X108331248Y-85511400D01*
X104787848Y-92214552D02*
X104787848Y-86003696D01*
X104787848Y-86003696D02*
X105280144Y-85511400D01*
X104521000Y-92481400D02*
X104787848Y-92214552D01*
X96188648Y-57854200D02*
X97985048Y-56057800D01*
X108331248Y-65161400D02*
X106868200Y-65161400D01*
X101762848Y-53441600D02*
X101762848Y-49720000D01*
X93962248Y-73141685D02*
X94182248Y-72921685D01*
X94182248Y-71254838D02*
X96188648Y-69248438D01*
X105036553Y-108570000D02*
X107967953Y-105638600D01*
X96862848Y-106720000D02*
X98712848Y-108570000D01*
X108331248Y-85511400D02*
X108331248Y-65161400D01*
X96188648Y-69248438D02*
X96188648Y-57854200D01*
X101762848Y-56449248D02*
X101828600Y-56515000D01*
%TO.N,col6*%
X85090000Y-57615481D02*
X82762848Y-55288329D01*
X95788648Y-69082752D02*
X95788648Y-67162848D01*
X82762848Y-55288329D02*
X82762848Y-49720000D01*
X94204231Y-67005200D02*
X85852000Y-67005200D01*
X95788648Y-67162848D02*
X95624400Y-66998600D01*
X93462248Y-72756000D02*
X93782248Y-72756000D01*
X85090000Y-66243200D02*
X85090000Y-57615481D01*
X93782248Y-72756000D02*
X93782248Y-71089152D01*
X85852000Y-67005200D02*
X85090000Y-66243200D01*
X95624400Y-66998600D02*
X94210831Y-66998600D01*
X93782248Y-71089152D02*
X95788648Y-69082752D01*
X93462248Y-74121000D02*
X93462248Y-72756000D01*
X94210831Y-66998600D02*
X94204231Y-67005200D01*
%TO.N,d-*%
X87182728Y-76771818D02*
X86277848Y-75866938D01*
X85911732Y-75249800D02*
X85877848Y-75249800D01*
X90449249Y-79133999D02*
X89511747Y-79133999D01*
X86277848Y-75866938D02*
X86277848Y-75615916D01*
X84411648Y-74179800D02*
X84327848Y-74179800D01*
X85877848Y-75249800D02*
X85652848Y-75024800D01*
X89386768Y-79009020D02*
X89386768Y-78272434D01*
X85256648Y-75024800D02*
X84411648Y-74179800D01*
X89511747Y-79133999D02*
X89386768Y-79009020D01*
X85652848Y-75024800D02*
X85256648Y-75024800D01*
X87886152Y-76771818D02*
X87182728Y-76771818D01*
X90474248Y-79109000D02*
X90449249Y-79133999D01*
X89886748Y-79109000D02*
X89861748Y-79134000D01*
X90474248Y-79109000D02*
X89886748Y-79109000D01*
X86277848Y-75615916D02*
X85911732Y-75249800D01*
X89386768Y-78272434D02*
X87886152Y-76771818D01*
%TO.N,d+*%
X86626712Y-75046246D02*
X85755266Y-74174800D01*
X86600237Y-77108566D02*
X86713489Y-77221818D01*
X86713489Y-77221818D02*
X87770466Y-77221818D01*
X90474248Y-79609000D02*
X89886748Y-79609000D01*
X88986768Y-79245388D02*
X89325381Y-79584001D01*
X88986768Y-78438120D02*
X88986768Y-79245388D01*
X85755266Y-74174800D02*
X85652848Y-74174800D01*
X89325381Y-79584001D02*
X90449249Y-79584001D01*
X90449249Y-79584001D02*
X90474248Y-79609000D01*
X89886748Y-79609000D02*
X89861748Y-79584000D01*
X87770466Y-77221818D02*
X88986768Y-78438120D01*
D47*
%TO.N,swdio*%
X86762648Y-95198600D02*
X88987648Y-92973600D01*
X91561748Y-81609000D02*
X91561748Y-80159000D01*
X91511748Y-80109000D02*
X90474248Y-80109000D01*
X91561748Y-80159000D02*
X91511748Y-80109000D01*
X84419720Y-95198600D02*
X86762648Y-95198600D01*
X81072448Y-91851328D02*
X84419720Y-95198600D01*
X81072448Y-91504000D02*
X81072448Y-91851328D01*
X88987648Y-84183100D02*
X91561748Y-81609000D01*
X88987648Y-92973600D02*
X88987648Y-84183100D01*
%TO.N,swclk*%
X81072448Y-93504000D02*
X83267048Y-95698600D01*
X83267048Y-95698600D02*
X86973848Y-95698600D01*
X86973848Y-95698600D02*
X89487648Y-93184800D01*
X89487648Y-93184800D02*
X89487648Y-84390206D01*
X89487648Y-84390206D02*
X91280854Y-82597000D01*
X91280854Y-82597000D02*
X91962248Y-82597000D01*
%TO.N,boot0*%
X94881548Y-80662550D02*
X95462248Y-81243250D01*
X100440320Y-82069000D02*
X101687376Y-82069000D01*
X95462248Y-81243250D02*
X95462248Y-82597000D01*
X97163248Y-79252748D02*
X96718500Y-78808000D01*
X99383075Y-82067400D02*
X100438720Y-82067400D01*
X102357648Y-82739272D02*
X102357648Y-85374400D01*
X100438720Y-82067400D02*
X100440320Y-82069000D01*
X101687376Y-82069000D02*
X102357648Y-82739272D01*
X97163248Y-80754650D02*
X97163248Y-79252748D01*
X95592959Y-78808000D02*
X94881548Y-79519411D01*
X94881548Y-79519411D02*
X94881548Y-80662550D01*
X96718500Y-78808000D02*
X95592959Y-78808000D01*
X99381705Y-82066030D02*
X99383075Y-82067400D01*
D49*
%TO.N,/RGB/scl*%
X95264350Y-75958500D02*
X97243620Y-75958500D01*
X95962248Y-82597000D02*
X95962248Y-80304817D01*
X101862797Y-102215831D02*
X101002517Y-102215831D01*
X94113400Y-95624500D02*
X94113400Y-89799643D01*
X94113400Y-89799643D02*
X95713600Y-88199443D01*
X101002517Y-102215831D02*
X100819000Y-102032314D01*
X94221500Y-95732600D02*
X94113400Y-95624500D01*
X100819000Y-102032314D02*
X100819000Y-101473000D01*
X95713600Y-83767463D02*
X95962248Y-83518814D01*
X93651468Y-79004456D02*
X93651468Y-77571382D01*
X95713600Y-88199443D02*
X95713600Y-83767463D01*
X97243620Y-75958500D02*
X97938648Y-75263472D01*
X95962248Y-80304817D02*
X95623812Y-79966381D01*
X97938648Y-75263472D02*
X97938648Y-68173600D01*
X93651468Y-77571382D02*
X95264350Y-75958500D01*
X95962248Y-83518814D02*
X95962248Y-82597000D01*
%TO.N,/RGB/sda*%
X99817648Y-73765952D02*
X99817648Y-68376200D01*
X98674102Y-74909498D02*
X99817648Y-73765952D01*
X94513400Y-93421200D02*
X94513400Y-94791617D01*
X101136831Y-102915831D02*
X100419000Y-102198000D01*
X94513400Y-94791617D02*
X95327383Y-95605600D01*
X99817648Y-68376200D02*
X99969448Y-68224400D01*
X96113600Y-91821000D02*
X94513400Y-93421200D01*
X96134648Y-83912100D02*
X96113600Y-83933148D01*
X95327383Y-95605600D02*
X95656400Y-95605600D01*
X96113600Y-83933148D02*
X96113600Y-91821000D01*
X98588148Y-74909498D02*
X98674102Y-74909498D01*
X96462248Y-79541698D02*
X96428550Y-79508000D01*
X102427019Y-102915831D02*
X101136831Y-102915831D01*
X96462248Y-83584500D02*
X96134648Y-83912100D01*
X100419000Y-102198000D02*
X100419000Y-101473000D01*
X102861360Y-102172500D02*
X102861360Y-102481490D01*
X96462248Y-82597000D02*
X96462248Y-83584500D01*
X96462248Y-82597000D02*
X96462248Y-79541698D01*
X102861360Y-102481490D02*
X102427019Y-102915831D01*
D48*
%TO.N,+5V*%
X105486200Y-95971400D02*
X104516000Y-96941600D01*
X97205800Y-95633100D02*
X97205800Y-93980000D01*
D49*
X101437229Y-96560273D02*
X100981927Y-96560273D01*
D48*
X90237148Y-86309200D02*
X90220800Y-86325548D01*
D49*
X100981927Y-96560273D02*
X100819000Y-96723200D01*
D48*
X90220800Y-89270852D02*
X91348548Y-90398600D01*
X87477600Y-86309200D02*
X86338500Y-85170100D01*
D49*
X100819000Y-96723200D02*
X100819000Y-97573000D01*
X100819000Y-97573000D02*
X100419000Y-97573000D01*
D48*
X83594548Y-85203000D02*
X83561648Y-85170100D01*
X86338500Y-85170100D02*
X83561648Y-85170100D01*
X85898048Y-82797600D02*
X85873048Y-82772600D01*
X97205800Y-93980000D02*
X97409000Y-93776800D01*
X85898048Y-85203000D02*
X85898048Y-82797600D01*
X90220800Y-86325548D02*
X90220800Y-89270852D01*
X104516000Y-96941600D02*
X101818556Y-96941600D01*
X97409000Y-93776800D02*
X98657500Y-93776800D01*
X101818556Y-96941600D02*
X101437229Y-96560273D01*
X85898048Y-85203000D02*
X83594548Y-85203000D01*
D49*
%TO.N,intb*%
X100019000Y-96717000D02*
X100019000Y-97573000D01*
X99666288Y-96345083D02*
X99666288Y-96364288D01*
X97459800Y-97053400D02*
X97230600Y-97282600D01*
X97230600Y-97282600D02*
X95707200Y-97282600D01*
X99666288Y-96364288D02*
X100019000Y-96717000D01*
%TO.N,r_ext*%
X102727800Y-95971400D02*
X103428800Y-95971400D01*
X98704400Y-95783400D02*
X98882200Y-95605600D01*
X98704400Y-96372439D02*
X98704400Y-95783400D01*
X99219000Y-96887039D02*
X98704400Y-96372439D01*
X99219000Y-97573000D02*
X99219000Y-96887039D01*
X98882200Y-95605600D02*
X102362000Y-95605600D01*
X102362000Y-95605600D02*
X102727800Y-95971400D01*
D48*
%TO.N,Net-(SW1-B)*%
X102357648Y-87274400D02*
X102357648Y-87664400D01*
X102357648Y-87664400D02*
X99344048Y-90678000D01*
D47*
%TO.N,Net-(USB1-CC1)*%
X86327848Y-73109419D02*
X86112467Y-73324800D01*
X86112467Y-73324800D02*
X85652848Y-73324800D01*
X86327848Y-70048429D02*
X86327848Y-73109419D01*
X86299848Y-70020429D02*
X86327848Y-70048429D01*
X86299848Y-68326000D02*
X86299848Y-70020429D01*
%TO.N,Net-(USB1-CC2)*%
X81402648Y-77673200D02*
X83196048Y-75879800D01*
X83196048Y-75879800D02*
X84327848Y-75879800D01*
X80092848Y-79929600D02*
X80092848Y-78348000D01*
X80767648Y-77673200D02*
X81402648Y-77673200D01*
X80092848Y-78348000D02*
X80767648Y-77673200D01*
X81214648Y-81051400D02*
X80092848Y-79929600D01*
%TO.N,GND*%
X83114648Y-82179200D02*
X83688648Y-82753200D01*
X97594448Y-77609000D02*
X98950248Y-77609000D01*
X102909100Y-77266800D02*
X102934500Y-77292200D01*
X92462248Y-74121000D02*
X92462248Y-75880400D01*
X96738900Y-77368400D02*
X97353848Y-77368400D01*
D48*
X83561648Y-87245100D02*
X81152548Y-87245100D01*
D49*
X100019000Y-103000400D02*
X99692200Y-103327200D01*
D47*
X92972248Y-72707600D02*
X92972248Y-71721000D01*
X92502448Y-75920600D02*
X92527848Y-75920600D01*
D48*
X85652848Y-71254800D02*
X84672848Y-70274800D01*
X84672848Y-78554800D02*
X85652848Y-77574800D01*
X81152548Y-87245100D02*
X81047048Y-87350600D01*
X100424448Y-83945900D02*
X101163848Y-83206500D01*
X100732500Y-94208600D02*
X100732500Y-92459900D01*
D47*
X88552048Y-80609000D02*
X88540048Y-80597000D01*
X92527848Y-75946000D02*
X92502448Y-75920600D01*
X83114648Y-81051400D02*
X83114648Y-82179200D01*
X102934500Y-77292200D02*
X103475248Y-77292200D01*
X91428048Y-102560200D02*
X91428048Y-101357952D01*
D48*
X100424448Y-87172800D02*
X100424448Y-88119752D01*
D47*
X82520248Y-68326000D02*
X84399848Y-68326000D01*
X96962248Y-84568600D02*
X97102648Y-84709000D01*
D49*
X100019000Y-99523000D02*
X100019000Y-101473000D01*
D48*
X92198048Y-93318800D02*
X92198048Y-87503000D01*
D49*
X100685600Y-103327200D02*
X101066600Y-103708200D01*
D47*
X96697800Y-77409500D02*
X96738900Y-77368400D01*
D48*
X84327848Y-71624800D02*
X84327848Y-70619800D01*
D47*
X83114648Y-81051400D02*
X83114648Y-80746600D01*
D48*
X84298248Y-78550200D02*
X84298248Y-77609400D01*
D49*
X99619000Y-99123000D02*
X99619000Y-97573000D01*
D47*
X96962248Y-82597000D02*
X96962248Y-84568600D01*
D49*
X99692200Y-103327200D02*
X100685600Y-103327200D01*
X105486200Y-94071400D02*
X101027100Y-94071400D01*
D47*
X97394948Y-77409500D02*
X97594448Y-77609000D01*
D48*
X85128048Y-102560200D02*
X85128048Y-100850648D01*
X96783669Y-85917915D02*
X96783669Y-85027979D01*
X91943248Y-96190200D02*
X91638848Y-96494600D01*
X85652848Y-71624800D02*
X85652848Y-71254800D01*
D47*
X87270048Y-80568800D02*
X87309648Y-80529200D01*
X96697800Y-77409500D02*
X97394948Y-77409500D01*
D48*
X84327848Y-70619800D02*
X84672848Y-70274800D01*
X85128048Y-102560200D02*
X91428048Y-102560200D01*
D47*
X91428048Y-101357952D02*
X91440000Y-101346000D01*
X84399848Y-70001800D02*
X84672848Y-70274800D01*
D48*
X85128048Y-100850648D02*
X81072448Y-96795048D01*
X100424448Y-88119752D02*
X99822000Y-88722200D01*
X101344048Y-91848352D02*
X101344048Y-90678000D01*
X84672848Y-78924800D02*
X84672848Y-78554800D01*
X91943248Y-93573600D02*
X92198048Y-93318800D01*
D47*
X83114648Y-80746600D02*
X81292848Y-78924800D01*
X87309648Y-80529200D02*
X88472248Y-80529200D01*
X101051648Y-77609000D02*
X101113048Y-77670400D01*
D49*
X100019000Y-99523000D02*
X99619000Y-99123000D01*
D48*
X81072448Y-96795048D02*
X81072448Y-95504000D01*
D47*
X92462248Y-74121000D02*
X92462248Y-73217600D01*
X92527848Y-75920600D02*
X92527848Y-75946000D01*
X83114648Y-81051400D02*
X83114648Y-80483000D01*
D48*
X91943248Y-93573600D02*
X91943248Y-96190200D01*
D47*
X98950248Y-77609000D02*
X101051648Y-77609000D01*
X90474248Y-80609000D02*
X88552048Y-80609000D01*
D48*
X100732500Y-92459900D02*
X101344048Y-91848352D01*
D47*
X92462248Y-73217600D02*
X92972248Y-72707600D01*
X84399848Y-68326000D02*
X84399848Y-70001800D01*
X103475248Y-77292200D02*
X103475248Y-76478300D01*
X103475248Y-78132600D02*
X103475248Y-77292200D01*
D48*
X83819548Y-87503000D02*
X83561648Y-87245100D01*
X84298248Y-77609400D02*
X84327848Y-77579800D01*
X100424448Y-87172800D02*
X100424448Y-83945900D01*
D47*
X88472248Y-80529200D02*
X88540048Y-80597000D01*
D48*
X81292848Y-70274800D02*
X84672848Y-70274800D01*
X85898048Y-87503000D02*
X83819548Y-87503000D01*
D47*
X103475248Y-76478300D02*
X103500648Y-76452900D01*
D48*
X84672848Y-78924800D02*
X84298248Y-78550200D01*
X96783669Y-85027979D02*
X97102648Y-84709000D01*
D49*
X99997000Y-103102200D02*
X99997000Y-103327200D01*
D47*
X92462248Y-75880400D02*
X92502448Y-75920600D01*
D49*
X100019000Y-101473000D02*
X100019000Y-103000400D01*
%TD*%
M02*
