M48
; DRILL file {KiCad 7.0.7} date 2024 February 18, Sunday 16:07:42
; FORMAT={-:-/ absolute / metric / decimal}
; #@! TF.CreationDate,2024-02-18T16:07:42+01:00
; #@! TF.GenerationSoftware,Kicad,Pcbnew,7.0.7
; #@! TF.FileFunction,MixedPlating,1,2
FMAT,2
METRIC
; #@! TA.AperFunction,Plated,PTH,ViaDrill
T1C0.300
; #@! TA.AperFunction,Plated,PTH,ViaDrill
T2C0.400
; #@! TA.AperFunction,Plated,PTH,ComponentDrill
T3C0.400
; #@! TA.AperFunction,Plated,PTH,ComponentDrill
T4C0.600
; #@! TA.AperFunction,Plated,PTH,ComponentDrill
T5C0.700
; #@! TA.AperFunction,Plated,PTH,ComponentDrill
T6C0.800
; #@! TA.AperFunction,NonPlated,NPTH,ComponentDrill
T7C1.702
; #@! TA.AperFunction,NonPlated,NPTH,ComponentDrill
T8C2.200
; #@! TA.AperFunction,NonPlated,NPTH,ComponentDrill
T9C3.000
; #@! TA.AperFunction,NonPlated,NPTH,ComponentDrill
T10C3.048
; #@! TA.AperFunction,NonPlated,NPTH,ComponentDrill
T11C3.988
%
G90
G05
T1
X81.047Y-87.351
X82.52Y-68.326
X83.297Y-75.18
X83.333Y-76.733
X83.689Y-82.753
X86.6Y-77.109
X86.627Y-75.046
X87.27Y-80.569
X91.639Y-96.495
X92.528Y-75.921
X94.331Y-84.074
X94.382Y-81.153
X95.624Y-79.966
X96.429Y-79.508
X96.698Y-77.409
X96.784Y-85.918
X97.163Y-80.755
X98.588Y-74.909
X99.822Y-88.722
X102.909Y-77.267
T2
X81.255Y-98.45
X81.819Y-99.411
X82.626Y-100.0
X87.274Y-81.966
X87.478Y-86.309
X88.214Y-74.041
X88.238Y-85.344
X88.824Y-66.306
X88.849Y-67.705
X89.484Y-73.33
X90.04Y-66.142
X90.145Y-67.705
X90.237Y-85.09
X90.237Y-86.309
X90.243Y-72.39
X91.349Y-90.399
X91.44Y-66.294
X91.44Y-101.346
X91.872Y-104.927
X91.884Y-106.006
X91.972Y-79.517
X92.645Y-116.789
X93.345Y-115.672
X93.37Y-66.306
X93.651Y-79.004
X93.726Y-119.329
X94.221Y-95.733
X94.311Y-69.571
X94.361Y-75.87
X94.514Y-87.122
X95.323Y-71.669
X95.603Y-76.658
X95.656Y-95.606
X95.987Y-119.329
X96.813Y-87.198
X96.934Y-58.098
X96.952Y-103.669
X96.973Y-72.564
X96.978Y-71.564
X96.995Y-70.466
X97.028Y-108.57
X97.206Y-95.633
X97.288Y-66.65
X97.46Y-97.053
X97.561Y-117.5
X98.013Y-109.073
X98.247Y-83.134
X98.247Y-115.697
X99.382Y-82.066
X99.621Y-119.267
X99.666Y-96.345
X101.067Y-103.708
X101.194Y-119.267
X101.437Y-96.56
X101.684Y-73.036
X101.684Y-74.041
X101.778Y-62.89
X101.829Y-56.515
X101.863Y-102.216
X102.438Y-81.458
X102.861Y-102.172
X102.972Y-59.334
X104.521Y-92.761
X105.08Y-134.518
X105.792Y-135.229
X106.274Y-91.821
X106.629Y-89.814
X107.036Y-117.653
X107.036Y-119.964
X107.086Y-134.53
X107.315Y-98.991
X107.34Y-96.792
X107.81Y-135.268
X108.001Y-115.875
X108.052Y-120.664
X108.067Y-94.993
X108.661Y-105.639
X108.726Y-99.529
X108.915Y-116.789
X108.915Y-119.176
X109.025Y-92.057
X109.13Y-97.77
X110.211Y-115.011
X111.836Y-60.922
X111.887Y-62.662
X112.065Y-59.258
X112.255Y-122.975
X112.7Y-107.696
X112.827Y-105.969
X113.106Y-62.459
X113.436Y-135.56
X114.021Y-138.049
X114.757Y-73.33
X115.138Y-100.928
X115.627Y-137.973
X115.984Y-96.228
X116.281Y-98.73
X116.75Y-97.358
X117.021Y-108.742
X117.043Y-100.228
X117.272Y-86.207
X117.399Y-102.152
X118.161Y-104.8
X118.212Y-115.748
X118.542Y-113.475
X118.669Y-82.271
X118.923Y-49.682
X118.923Y-86.868
X119.075Y-64.719
X120.087Y-82.051
X120.421Y-95.834
X121.119Y-81.495
X121.125Y-136.635
X121.158Y-134.273
X121.588Y-79.604
X121.818Y-82.894
X121.945Y-86.589
X121.946Y-84.746
X122.287Y-78.804
X122.606Y-89.179
X122.657Y-60.92
X122.707Y-63.819
X122.987Y-79.527
X123.546Y-87.808
X124.169Y-90.526
X125.324Y-76.937
X125.425Y-119.876
X125.982Y-117.272
X126.681Y-116.078
X126.681Y-119.176
X126.822Y-97.866
X127.686Y-101.581
X128.067Y-95.987
X129.057Y-91.008
X129.794Y-95.936
X130.073Y-76.185
X130.073Y-77.584
X130.861Y-63.119
X131.076Y-60.681
X131.089Y-71.018
X131.216Y-59.334
X131.775Y-62.395
X132.08Y-81.255
X132.359Y-78.13
X132.791Y-106.451
X135.179Y-100.182
X135.47Y-97.231
X136.169Y-98.679
X136.22Y-100.928
X137.008Y-125.73
X137.287Y-116.053
X137.719Y-49.835
X139.171Y-114.076
X140.36Y-82.03
X140.397Y-78.13
X140.397Y-79.578
X141.134Y-89.56
X141.63Y-134.747
X141.834Y-87.782
X141.859Y-60.35
X142.125Y-137.795
X143.524Y-137.77
X145.161Y-119.953
X145.263Y-117.678
X146.177Y-119.253
X146.214Y-115.951
X146.66Y-94.881
X146.812Y-68.682
X149.663Y-136.608
X149.885Y-60.757
X149.936Y-59.284
X149.936Y-63.095
X150.876Y-62.395
X151.384Y-135.978
X151.587Y-77.826
X151.714Y-106.68
X153.238Y-102.362
X153.684Y-100.928
X154.33Y-98.778
X155.118Y-97.155
X155.448Y-100.177
X156.115Y-97.095
X156.235Y-49.759
X156.362Y-116.205
X156.845Y-61.527
X156.845Y-63.795
X156.87Y-125.882
X157.582Y-118.477
X158.699Y-137.998
X159.055Y-82.067
X159.309Y-79.756
X159.436Y-78.13
X159.868Y-76.185
X160.071Y-81.255
X160.376Y-59.36
X161.087Y-135.585
X161.341Y-87.706
X161.722Y-137.744
X163.322Y-137.795
X163.678Y-119.913
X163.969Y-117.754
X164.668Y-116.23
X164.694Y-119.176
X165.735Y-96.85
X166.37Y-79.705
X168.656Y-63.095
X168.808Y-60.757
X168.91Y-136.855
X168.961Y-59.131
X169.647Y-62.276
X170.129Y-70.841
X170.383Y-77.953
X170.625Y-136.931
X170.866Y-106.68
X173.407Y-100.927
X173.457Y-98.679
X174.574Y-97.485
X174.727Y-100.177
X175.489Y-125.781
X175.539Y-49.809
X176.073Y-101.778
X177.648Y-75.819
X177.851Y-82.005
X178.359Y-79.654
X178.486Y-78.232
X178.689Y-81.28
X179.527Y-59.614
X180.035Y-134.353
X180.267Y-135.326
X180.803Y-137.77
X182.202Y-137.82
X183.109Y-117.778
X183.109Y-119.913
X183.642Y-116.307
X184.277Y-119.202
X185.141Y-115.519
X187.935Y-60.427
X188.036Y-59.385
X188.062Y-62.976
X188.773Y-135.179
X188.798Y-137.299
X189.357Y-62.014
X191.033Y-81.98
X191.491Y-119.902
X192.126Y-70.942
X192.303Y-87.478
X192.329Y-106.68
X192.405Y-81.28
X192.481Y-135.992
X192.507Y-138.698
X192.862Y-117.778
X192.964Y-79.778
X194.488Y-78.892
X194.488Y-82.829
X194.589Y-49.987
X194.716Y-125.781
X196.926Y-116.916
X197.129Y-133.136
X197.485Y-134.645
X198.857Y-136.398
X199.212Y-133.136
X202.54Y-95.402
X202.692Y-126.213
X203.251Y-119.151
X204.368Y-95.885
X204.408Y-100.876
X204.521Y-98.781
X205.334Y-116.256
X206.375Y-61.824
X206.375Y-63.285
X206.908Y-134.874
X207.594Y-79.578
X209.829Y-79.477
T3
X84.328Y-71.625
X84.328Y-72.48
X84.328Y-73.33
X84.328Y-74.18
X84.328Y-75.03
X84.328Y-75.88
X84.328Y-76.73
X84.328Y-77.58
X85.653Y-71.625
X85.653Y-72.475
X85.653Y-73.325
X85.653Y-74.175
X85.653Y-75.025
X85.653Y-75.875
X85.653Y-76.725
X85.653Y-77.575
T6
X81.072Y-89.504
X81.072Y-91.504
X81.072Y-93.504
X81.072Y-95.504
X97.344Y-90.678
X99.344Y-90.678
X101.344Y-90.678
T7
X83.973Y-54.8
X94.133Y-54.8
X98.073Y-111.8
X102.973Y-54.8
X107.573Y-92.8
X108.233Y-111.8
X112.373Y-73.8
X112.373Y-130.8
X113.133Y-54.8
X117.073Y-111.8
X117.733Y-92.8
X121.973Y-54.8
X122.533Y-73.8
X122.533Y-130.8
X126.573Y-92.8
X127.233Y-111.8
X131.373Y-73.8
X132.133Y-54.8
X136.073Y-111.8
X136.733Y-92.8
X140.973Y-54.8
X140.973Y-130.8
X141.533Y-73.8
X145.573Y-92.8
X146.233Y-111.8
X150.373Y-73.8
X151.133Y-54.8
X151.133Y-130.8
X155.073Y-111.8
X155.733Y-92.8
X159.973Y-54.8
X159.973Y-130.8
X160.533Y-73.8
X164.573Y-92.8
X165.233Y-111.8
X169.373Y-73.8
X170.133Y-54.8
X170.133Y-130.8
X174.073Y-111.8
X174.733Y-92.8
X178.973Y-54.8
X178.973Y-130.8
X179.533Y-73.8
X184.233Y-111.8
X189.133Y-54.8
X189.133Y-130.8
X193.173Y-73.8
X195.573Y-92.8
X195.573Y-111.8
X197.973Y-54.8
X197.973Y-130.8
X203.333Y-73.8
X205.733Y-92.8
X205.733Y-111.8
X208.133Y-54.8
X208.133Y-130.8
T8
X98.553Y-64.3
X98.553Y-121.3
X193.553Y-64.3
X193.553Y-121.3
T9
X86.513Y-49.72
X92.863Y-52.26
X100.613Y-106.72
X105.513Y-49.72
X106.963Y-109.26
X110.113Y-87.72
X111.863Y-52.26
X114.913Y-68.72
X114.913Y-125.72
X116.463Y-90.26
X119.613Y-106.72
X121.263Y-71.26
X121.263Y-128.26
X124.513Y-49.72
X125.963Y-109.26
X129.113Y-87.72
X130.863Y-52.26
X133.913Y-68.72
X135.463Y-90.26
X138.613Y-106.72
X140.263Y-71.26
X143.513Y-49.72
X143.513Y-125.72
X144.963Y-109.26
X148.113Y-87.72
X149.863Y-52.26
X149.863Y-128.26
X152.913Y-68.72
X154.463Y-90.26
X157.613Y-106.72
X159.263Y-71.26
X162.513Y-49.72
X162.513Y-125.72
X163.963Y-109.26
X167.113Y-87.72
X168.863Y-52.26
X168.863Y-128.26
X171.913Y-68.72
X173.463Y-90.26
X176.613Y-106.72
X178.263Y-71.26
X181.513Y-49.72
X181.513Y-125.72
X182.963Y-109.26
X187.863Y-52.26
X187.863Y-128.26
X195.713Y-68.72
X198.113Y-87.72
X198.113Y-106.72
X200.513Y-49.72
X200.513Y-125.72
X202.063Y-71.26
X204.463Y-90.26
X204.463Y-109.26
X206.863Y-52.26
X206.863Y-128.26
T10
X105.553Y-137.785
X129.353Y-137.785
T11
X89.053Y-54.8
X103.153Y-111.8
X105.553Y-122.545
X108.053Y-54.8
X112.653Y-92.8
X117.453Y-73.8
X117.453Y-130.8
X122.153Y-111.8
X127.053Y-54.8
X129.353Y-122.545
X131.653Y-92.8
X136.453Y-73.8
X141.153Y-111.8
X146.053Y-54.8
X146.053Y-130.8
X150.653Y-92.8
X155.453Y-73.8
X160.153Y-111.8
X165.053Y-54.8
X165.053Y-130.8
X169.653Y-92.8
X174.453Y-73.8
X179.153Y-111.8
X184.053Y-54.8
X184.053Y-130.8
X198.253Y-73.8
X200.653Y-92.8
X200.653Y-111.8
X203.053Y-54.8
X203.053Y-130.8
T4
G00X81.693Y-70.275
M15
G01X80.893Y-70.275
M16
G05
G00X81.693Y-78.925
M15
G01X80.893Y-78.925
M16
G05
G00X85.423Y-70.275
M15
G01X83.923Y-70.275
M16
G05
G00X85.423Y-78.925
M15
G01X83.923Y-78.925
M16
G05
T5
G00X95.144Y-91.078
M15
G01X95.144Y-90.278
M16
G05
G00X103.544Y-91.078
M15
G01X103.544Y-90.278
M16
G05
T0
M30
