%TF.GenerationSoftware,KiCad,Pcbnew,7.0.7*%
%TF.CreationDate,2024-02-18T16:08:08+01:00*%
%TF.ProjectId,kingslayer-28,6b696e67-736c-4617-9965-722d32382e6b,rev?*%
%TF.SameCoordinates,Original*%
%TF.FileFunction,Soldermask,Top*%
%TF.FilePolarity,Negative*%
%FSLAX46Y46*%
G04 Gerber Fmt 4.6, Leading zero omitted, Abs format (unit mm)*
G04 Created by KiCad (PCBNEW 7.0.7) date 2024-02-18 16:08:08*
%MOMM*%
%LPD*%
G01*
G04 APERTURE LIST*
G04 Aperture macros list*
%AMRoundRect*
0 Rectangle with rounded corners*
0 $1 Rounding radius*
0 $2 $3 $4 $5 $6 $7 $8 $9 X,Y pos of 4 corners*
0 Add a 4 corners polygon primitive as box body*
4,1,4,$2,$3,$4,$5,$6,$7,$8,$9,$2,$3,0*
0 Add four circle primitives for the rounded corners*
1,1,$1+$1,$2,$3*
1,1,$1+$1,$4,$5*
1,1,$1+$1,$6,$7*
1,1,$1+$1,$8,$9*
0 Add four rect primitives between the rounded corners*
20,1,$1+$1,$2,$3,$4,$5,0*
20,1,$1+$1,$4,$5,$6,$7,0*
20,1,$1+$1,$6,$7,$8,$9,0*
20,1,$1+$1,$8,$9,$2,$3,0*%
%AMOutline4P*
0 Free polygon, 4 corners , with rotation*
0 The origin of the aperture is its center*
0 number of corners: always 4*
0 $1 to $8 corner X, Y*
0 $9 Rotation angle, in degrees counterclockwise*
0 create outline with 4 corners*
4,1,4,$1,$2,$3,$4,$5,$6,$7,$8,$1,$2,$9*%
%AMFreePoly0*
4,1,14,0.123607,0.380423,0.235114,0.323607,0.323607,0.235114,0.380423,0.123607,0.400000,0.000000,0.380423,-0.123607,0.323607,-0.235114,0.235114,-0.323607,0.123607,-0.380423,0.000000,-0.400000,-0.900000,-0.400000,-0.900000,0.400000,0.000000,0.400000,0.123607,0.380423,0.123607,0.380423,$1*%
G04 Aperture macros list end*
%ADD10R,1.800000X1.340000*%
%ADD11RoundRect,0.250000X-0.337500X-0.475000X0.337500X-0.475000X0.337500X0.475000X-0.337500X0.475000X0*%
%ADD12R,1.400000X1.000000*%
%ADD13R,0.200000X0.850000*%
%ADD14R,0.850000X0.200000*%
%ADD15R,2.400000X2.400000*%
%ADD16Outline4P,-0.650000X-0.400000X0.650000X-0.400000X0.650000X0.400000X-0.650000X0.400000X0.000000*%
%ADD17FreePoly0,0.000000*%
%ADD18RoundRect,0.250000X-0.475000X0.337500X-0.475000X-0.337500X0.475000X-0.337500X0.475000X0.337500X0*%
%ADD19RoundRect,0.250000X0.400000X0.625000X-0.400000X0.625000X-0.400000X-0.625000X0.400000X-0.625000X0*%
%ADD20R,1.475000X0.300000*%
%ADD21R,0.300000X1.475000*%
%ADD22R,1.020000X1.470000*%
%ADD23RoundRect,0.250000X-0.625000X0.400000X-0.625000X-0.400000X0.625000X-0.400000X0.625000X0.400000X0*%
%ADD24R,1.470000X1.020000*%
%ADD25R,1.520000X1.000000*%
%ADD26RoundRect,0.237500X-0.237500X0.300000X-0.237500X-0.300000X0.237500X-0.300000X0.237500X0.300000X0*%
%ADD27R,1.000000X1.450000*%
%ADD28R,1.450000X1.000000*%
%ADD29RoundRect,0.250000X-0.400000X-0.625000X0.400000X-0.625000X0.400000X0.625000X-0.400000X0.625000X0*%
%ADD30RoundRect,0.250000X-0.875000X-1.025000X0.875000X-1.025000X0.875000X1.025000X-0.875000X1.025000X0*%
%ADD31R,2.000000X7.875000*%
%ADD32R,1.750000X0.950000*%
%ADD33R,1.750000X3.200000*%
%ADD34C,0.650000*%
%ADD35O,2.400000X0.900000*%
%ADD36O,1.700000X0.900000*%
%ADD37R,1.350000X1.350000*%
%ADD38O,1.350000X1.350000*%
%ADD39R,1.700000X1.000000*%
%ADD40RoundRect,0.237500X0.237500X-0.300000X0.237500X0.300000X-0.237500X0.300000X-0.237500X-0.300000X0*%
%ADD41RoundRect,0.102000X0.654000X0.654000X-0.654000X0.654000X-0.654000X-0.654000X0.654000X-0.654000X0*%
%ADD42C,1.512000*%
%ADD43O,1.434000X2.664000*%
%ADD44C,1.701800*%
%ADD45C,3.000000*%
%ADD46C,3.987800*%
%ADD47R,2.550000X2.500000*%
%ADD48C,2.200000*%
%ADD49C,3.048000*%
G04 APERTURE END LIST*
D10*
%TO.C,D14*%
X179077848Y-95885000D03*
X179077848Y-93025000D03*
%TD*%
%TO.C,D18*%
X131577848Y-114885000D03*
X131577848Y-112025000D03*
%TD*%
%TO.C,D15*%
X160077848Y-95885000D03*
X160077848Y-93025000D03*
%TD*%
D11*
%TO.C,C9*%
X98657500Y-94208600D03*
X100732500Y-94208600D03*
%TD*%
D10*
%TO.C,D9*%
X145827848Y-76885000D03*
X145827848Y-74025000D03*
%TD*%
D12*
%TO.C,R6*%
X105486200Y-95971400D03*
X105486200Y-94071400D03*
%TD*%
D13*
%TO.C,IC2*%
X101219000Y-97573000D03*
X100819000Y-97573000D03*
X100419000Y-97573000D03*
X100019000Y-97573000D03*
X99619000Y-97573000D03*
X99219000Y-97573000D03*
X98819000Y-97573000D03*
D14*
X98069000Y-98323000D03*
X98069000Y-98723000D03*
X98069000Y-99123000D03*
X98069000Y-99523000D03*
X98069000Y-99923000D03*
X98069000Y-100323000D03*
X98069000Y-100723000D03*
D13*
X98819000Y-101473000D03*
X99219000Y-101473000D03*
X99619000Y-101473000D03*
X100019000Y-101473000D03*
X100419000Y-101473000D03*
X100819000Y-101473000D03*
X101219000Y-101473000D03*
D14*
X101969000Y-100723000D03*
X101969000Y-100323000D03*
X101969000Y-99923000D03*
X101969000Y-99523000D03*
X101969000Y-99123000D03*
X101969000Y-98723000D03*
X101969000Y-98323000D03*
D15*
X100019000Y-99523000D03*
%TD*%
D16*
%TO.C,D48*%
X143502848Y-136675000D03*
X143502848Y-135075000D03*
X148602848Y-136675000D03*
D17*
X148852848Y-135075000D03*
%TD*%
D10*
%TO.C,D21*%
X188577848Y-114885000D03*
X188577848Y-112025000D03*
%TD*%
%TO.C,D12*%
X207577848Y-76885000D03*
X207577848Y-74025000D03*
%TD*%
D18*
%TO.C,C11*%
X83561648Y-85170100D03*
X83561648Y-87245100D03*
%TD*%
D10*
%TO.C,D28*%
X126827848Y-133885000D03*
X126827848Y-131025000D03*
%TD*%
D19*
%TO.C,R5*%
X103069448Y-68224400D03*
X99969448Y-68224400D03*
%TD*%
D16*
%TO.C,D55*%
X100602848Y-117675000D03*
X100602848Y-116075000D03*
X105702848Y-117675000D03*
D17*
X105952848Y-116075000D03*
%TD*%
D10*
%TO.C,D27*%
X155327848Y-133885000D03*
X155327848Y-131025000D03*
%TD*%
D16*
%TO.C,D51*%
X110102848Y-98675000D03*
X110102848Y-97075000D03*
X115202848Y-98675000D03*
D17*
X115452848Y-97075000D03*
%TD*%
D20*
%TO.C,IC1*%
X98950248Y-81109000D03*
X98950248Y-80609000D03*
X98950248Y-80109000D03*
X98950248Y-79609000D03*
X98950248Y-79109000D03*
X98950248Y-78609000D03*
X98950248Y-78109000D03*
X98950248Y-77609000D03*
X98950248Y-77109000D03*
X98950248Y-76609000D03*
X98950248Y-76109000D03*
X98950248Y-75609000D03*
D21*
X97462248Y-74121000D03*
X96962248Y-74121000D03*
X96462248Y-74121000D03*
X95962248Y-74121000D03*
X95462248Y-74121000D03*
X94962248Y-74121000D03*
X94462248Y-74121000D03*
X93962248Y-74121000D03*
X93462248Y-74121000D03*
X92962248Y-74121000D03*
X92462248Y-74121000D03*
X91962248Y-74121000D03*
D20*
X90474248Y-75609000D03*
X90474248Y-76109000D03*
X90474248Y-76609000D03*
X90474248Y-77109000D03*
X90474248Y-77609000D03*
X90474248Y-78109000D03*
X90474248Y-78609000D03*
X90474248Y-79109000D03*
X90474248Y-79609000D03*
X90474248Y-80109000D03*
X90474248Y-80609000D03*
X90474248Y-81109000D03*
D21*
X91962248Y-82597000D03*
X92462248Y-82597000D03*
X92962248Y-82597000D03*
X93462248Y-82597000D03*
X93962248Y-82597000D03*
X94462248Y-82597000D03*
X94962248Y-82597000D03*
X95462248Y-82597000D03*
X95962248Y-82597000D03*
X96462248Y-82597000D03*
X96962248Y-82597000D03*
X97462248Y-82597000D03*
%TD*%
D22*
%TO.C,C6*%
X91352248Y-71721000D03*
X92972248Y-71721000D03*
%TD*%
D10*
%TO.C,D10*%
X164827848Y-76885000D03*
X164827848Y-74025000D03*
%TD*%
%TO.C,D5*%
X136327848Y-57885000D03*
X136327848Y-55025000D03*
%TD*%
D23*
%TO.C,R9*%
X88209848Y-75819000D03*
X88209848Y-78919000D03*
%TD*%
D24*
%TO.C,C5*%
X88540048Y-82217000D03*
X88540048Y-80597000D03*
%TD*%
D22*
%TO.C,C4*%
X98722648Y-84709000D03*
X97102648Y-84709000D03*
%TD*%
D25*
%TO.C,F1*%
X85873048Y-80752600D03*
X85873048Y-82772600D03*
%TD*%
D26*
%TO.C,C2*%
X103500648Y-74727900D03*
X103500648Y-76452900D03*
%TD*%
D24*
%TO.C,C3*%
X101113048Y-76050400D03*
X101113048Y-77670400D03*
%TD*%
D27*
%TO.C,R7*%
X86299848Y-68326000D03*
X84399848Y-68326000D03*
%TD*%
D16*
%TO.C,D49*%
X124502848Y-60675000D03*
X124502848Y-59075000D03*
X129602848Y-60675000D03*
D17*
X129852848Y-59075000D03*
%TD*%
D10*
%TO.C,D1*%
X209952848Y-60260000D03*
X209952848Y-57400000D03*
%TD*%
D16*
%TO.C,D44*%
X143521848Y-60794800D03*
X143521848Y-59194800D03*
X148621848Y-60794800D03*
D17*
X148871848Y-59194800D03*
%TD*%
D16*
%TO.C,D37*%
X176602848Y-117675000D03*
X176602848Y-116075000D03*
X181702848Y-117675000D03*
D17*
X181952848Y-116075000D03*
%TD*%
D28*
%TO.C,R2*%
X103428800Y-95971400D03*
X103428800Y-94071400D03*
%TD*%
D16*
%TO.C,D36*%
X167102848Y-98675000D03*
X167102848Y-97075000D03*
X172202848Y-98675000D03*
D17*
X172452848Y-97075000D03*
%TD*%
D29*
%TO.C,R4*%
X94838648Y-68173600D03*
X97938648Y-68173600D03*
%TD*%
D10*
%TO.C,D26*%
X174327848Y-133885000D03*
X174327848Y-131025000D03*
%TD*%
%TO.C,D2*%
X193327848Y-57885000D03*
X193327848Y-55025000D03*
%TD*%
D16*
%TO.C,D46*%
X129102848Y-98675000D03*
X129102848Y-97075000D03*
X134202848Y-98675000D03*
D17*
X134452848Y-97075000D03*
%TD*%
D16*
%TO.C,D50*%
X114902848Y-79675000D03*
X114902848Y-78075000D03*
X120002848Y-79675000D03*
D17*
X120252848Y-78075000D03*
%TD*%
D16*
%TO.C,D54*%
X105502848Y-60675000D03*
X105502848Y-59075000D03*
X110602848Y-60675000D03*
D17*
X110852848Y-59075000D03*
%TD*%
D30*
%TO.C,C12*%
X85543248Y-93573600D03*
X91943248Y-93573600D03*
%TD*%
D22*
%TO.C,C10*%
X100424448Y-87172800D03*
X98804448Y-87172800D03*
%TD*%
D16*
%TO.C,D45*%
X133902848Y-79675000D03*
X133902848Y-78075000D03*
X139002848Y-79675000D03*
D17*
X139252848Y-78075000D03*
%TD*%
D16*
%TO.C,D38*%
X181502848Y-136675000D03*
X181502848Y-135075000D03*
X186602848Y-136675000D03*
D17*
X186852848Y-135075000D03*
%TD*%
D31*
%TO.C,X1*%
X107031248Y-81273900D03*
X107031248Y-69398900D03*
%TD*%
D10*
%TO.C,D4*%
X155327848Y-57885000D03*
X155327848Y-55025000D03*
%TD*%
D16*
%TO.C,D29*%
X200502848Y-60675000D03*
X200502848Y-59075000D03*
X205602848Y-60675000D03*
D17*
X205852848Y-59075000D03*
%TD*%
D16*
%TO.C,D53*%
X114902848Y-136675000D03*
X114902848Y-135075000D03*
X120002848Y-136675000D03*
D17*
X120252848Y-135075000D03*
%TD*%
D32*
%TO.C,IC3*%
X85898048Y-85203000D03*
X85898048Y-87503000D03*
X85898048Y-89803000D03*
D33*
X92198048Y-87503000D03*
%TD*%
D10*
%TO.C,D19*%
X150577848Y-114885000D03*
X150577848Y-112025000D03*
%TD*%
D23*
%TO.C,R3*%
X95707200Y-94182600D03*
X95707200Y-97282600D03*
%TD*%
D16*
%TO.C,D34*%
X181502848Y-60675000D03*
X181502848Y-59075000D03*
X186602848Y-60675000D03*
D17*
X186852848Y-59075000D03*
%TD*%
D16*
%TO.C,D40*%
X152902848Y-79675000D03*
X152902848Y-78075000D03*
X158002848Y-79675000D03*
D17*
X158252848Y-78075000D03*
%TD*%
D27*
%TO.C,R8*%
X81214648Y-81051400D03*
X83114648Y-81051400D03*
%TD*%
D16*
%TO.C,D41*%
X148102848Y-98675000D03*
X148102848Y-97075000D03*
X153202848Y-98675000D03*
D17*
X153452848Y-97075000D03*
%TD*%
D16*
%TO.C,D32*%
X198102848Y-117675000D03*
X198102848Y-116075000D03*
X203202848Y-117675000D03*
D17*
X203452848Y-116075000D03*
%TD*%
D10*
%TO.C,D25*%
X193327848Y-133885000D03*
X193327848Y-131025000D03*
%TD*%
%TO.C,D17*%
X122077848Y-95885000D03*
X122077848Y-93025000D03*
%TD*%
D16*
%TO.C,D30*%
X195702848Y-79675000D03*
X195702848Y-78075000D03*
X200802848Y-79675000D03*
D17*
X201052848Y-78075000D03*
%TD*%
D10*
%TO.C,D11*%
X183827848Y-76885000D03*
X183827848Y-74025000D03*
%TD*%
%TO.C,D20*%
X169577848Y-114885000D03*
X169577848Y-112025000D03*
%TD*%
%TO.C,D8*%
X126827848Y-76885000D03*
X126827848Y-74025000D03*
%TD*%
D12*
%TO.C,R1*%
X102357648Y-87274400D03*
X102357648Y-85374400D03*
%TD*%
D18*
%TO.C,C7*%
X101163848Y-81131500D03*
X101163848Y-83206500D03*
%TD*%
D16*
%TO.C,D43*%
X162502848Y-136675000D03*
X162502848Y-135075000D03*
X167602848Y-136675000D03*
D17*
X167852848Y-135075000D03*
%TD*%
D10*
%TO.C,D23*%
X112577848Y-114885000D03*
X112577848Y-112025000D03*
%TD*%
%TO.C,D3*%
X174327848Y-57885000D03*
X174327848Y-55025000D03*
%TD*%
%TO.C,D6*%
X117327848Y-57885000D03*
X117327848Y-55025000D03*
%TD*%
D34*
%TO.C,USB1*%
X85652848Y-71624800D03*
X85652848Y-72474800D03*
X85652848Y-73324800D03*
X85652848Y-74174800D03*
X85652848Y-75024800D03*
X85652848Y-75874800D03*
X85652848Y-76724800D03*
X85652848Y-77574800D03*
X84327848Y-77579800D03*
X84327848Y-76729800D03*
X84327848Y-75879800D03*
X84327848Y-75029800D03*
X84327848Y-74179800D03*
X84327848Y-73329800D03*
X84327848Y-72479800D03*
X84327848Y-71624800D03*
D35*
X84672848Y-70274800D03*
D36*
X81292848Y-70274800D03*
D35*
X84672848Y-78924800D03*
D36*
X81292848Y-78924800D03*
%TD*%
D16*
%TO.C,D47*%
X138602848Y-117675000D03*
X138602848Y-116075000D03*
X143702848Y-117675000D03*
D17*
X143952848Y-116075000D03*
%TD*%
D22*
%TO.C,C8*%
X98072200Y-103327200D03*
X99692200Y-103327200D03*
%TD*%
D37*
%TO.C,J1*%
X81072448Y-95504000D03*
D38*
X81072448Y-93504000D03*
X81072448Y-91504000D03*
X81072448Y-89504000D03*
%TD*%
D16*
%TO.C,D52*%
X119602848Y-117675000D03*
X119602848Y-116075000D03*
X124702848Y-117675000D03*
D17*
X124952848Y-116075000D03*
%TD*%
D16*
%TO.C,D33*%
X200502848Y-136675000D03*
X200502848Y-135075000D03*
X205602848Y-136675000D03*
D17*
X205852848Y-135075000D03*
%TD*%
D10*
%TO.C,D16*%
X141077848Y-95885000D03*
X141077848Y-93025000D03*
%TD*%
%TO.C,D13*%
X209952848Y-95885000D03*
X209952848Y-93025000D03*
%TD*%
D39*
%TO.C,S1*%
X85128048Y-102560200D03*
X91428048Y-102560200D03*
X85128048Y-98760200D03*
X91428048Y-98760200D03*
%TD*%
D10*
%TO.C,D24*%
X209952848Y-136260000D03*
X209952848Y-133400000D03*
%TD*%
D16*
%TO.C,D56*%
X86502848Y-60675000D03*
X86502848Y-59075000D03*
X91602848Y-60675000D03*
D17*
X91852848Y-59075000D03*
%TD*%
D10*
%TO.C,D7*%
X98327848Y-57885000D03*
X98327848Y-55025000D03*
%TD*%
D16*
%TO.C,D35*%
X171902848Y-79675000D03*
X171902848Y-78075000D03*
X177002848Y-79675000D03*
D17*
X177252848Y-78075000D03*
%TD*%
D16*
%TO.C,D31*%
X198102848Y-98675000D03*
X198102848Y-97075000D03*
X203202848Y-98675000D03*
D17*
X203452848Y-97075000D03*
%TD*%
D40*
%TO.C,C1*%
X103475248Y-79857600D03*
X103475248Y-78132600D03*
%TD*%
D41*
%TO.C,SW1*%
X101344048Y-90678000D03*
D42*
X99344048Y-90678000D03*
X97344048Y-90678000D03*
D43*
X103544048Y-90678000D03*
X95144048Y-90678000D03*
%TD*%
D16*
%TO.C,D39*%
X162502848Y-60675000D03*
X162502848Y-59075000D03*
X167602848Y-60675000D03*
D17*
X167852848Y-59075000D03*
%TD*%
D16*
%TO.C,D42*%
X157602848Y-117675000D03*
X157602848Y-116075000D03*
X162702848Y-117675000D03*
D17*
X162952848Y-116075000D03*
%TD*%
D10*
%TO.C,D22*%
X209952848Y-114885000D03*
X209952848Y-112025000D03*
%TD*%
D44*
%TO.C,K9*%
X179532848Y-73800000D03*
D45*
X178262848Y-71260000D03*
D46*
X174452848Y-73800000D03*
D45*
X171912848Y-68720000D03*
D44*
X169372848Y-73800000D03*
D47*
X168162848Y-68720000D03*
X182012848Y-71260000D03*
%TD*%
D44*
%TO.C,K13*%
X205732848Y-92800000D03*
D45*
X204462848Y-90260000D03*
D46*
X200652848Y-92800000D03*
D45*
X198112848Y-87720000D03*
D44*
X195572848Y-92800000D03*
D47*
X194362848Y-87720000D03*
X208212848Y-90260000D03*
%TD*%
D44*
%TO.C,K28*%
X122532848Y-130800000D03*
D45*
X121262848Y-128260000D03*
D46*
X117452848Y-130800000D03*
D45*
X114912848Y-125720000D03*
D44*
X112372848Y-130800000D03*
D47*
X111162848Y-125720000D03*
X125012848Y-128260000D03*
%TD*%
D44*
%TO.C,K8*%
X203332848Y-73800000D03*
D45*
X202062848Y-71260000D03*
D46*
X198252848Y-73800000D03*
D45*
X195712848Y-68720000D03*
D44*
X193172848Y-73800000D03*
D47*
X191962848Y-68720000D03*
X205812848Y-71260000D03*
%TD*%
D44*
%TO.C,K17*%
X117732848Y-92800000D03*
D45*
X116462848Y-90260000D03*
D46*
X112652848Y-92800000D03*
D45*
X110112848Y-87720000D03*
D44*
X107572848Y-92800000D03*
D47*
X106362848Y-87720000D03*
X120212848Y-90260000D03*
%TD*%
D48*
%TO.C,H3*%
X98552848Y-64300000D03*
%TD*%
D44*
%TO.C,K2*%
X189132848Y-54800000D03*
D45*
X187862848Y-52260000D03*
D46*
X184052848Y-54800000D03*
D45*
X181512848Y-49720000D03*
D44*
X178972848Y-54800000D03*
D47*
X177762848Y-49720000D03*
X191612848Y-52260000D03*
%TD*%
D44*
%TO.C,K4*%
X151132848Y-54800000D03*
D45*
X149862848Y-52260000D03*
D46*
X146052848Y-54800000D03*
D45*
X143512848Y-49720000D03*
D44*
X140972848Y-54800000D03*
D47*
X139762848Y-49720000D03*
X153612848Y-52260000D03*
%TD*%
D44*
%TO.C,K3*%
X170132848Y-54800000D03*
D45*
X168862848Y-52260000D03*
D46*
X165052848Y-54800000D03*
D45*
X162512848Y-49720000D03*
D44*
X159972848Y-54800000D03*
D47*
X158762848Y-49720000D03*
X172612848Y-52260000D03*
%TD*%
D44*
%TO.C,K1*%
X208132848Y-54800000D03*
D45*
X206862848Y-52260000D03*
D46*
X203052848Y-54800000D03*
D45*
X200512848Y-49720000D03*
D44*
X197972848Y-54800000D03*
D47*
X196762848Y-49720000D03*
X210612848Y-52260000D03*
%TD*%
D44*
%TO.C,K24*%
X208132848Y-130800000D03*
D45*
X206862848Y-128260000D03*
D46*
X203052848Y-130800000D03*
D45*
X200512848Y-125720000D03*
D44*
X197972848Y-130800000D03*
D47*
X196762848Y-125720000D03*
X210612848Y-128260000D03*
%TD*%
D44*
%TO.C,K5*%
X132132848Y-54800000D03*
D45*
X130862848Y-52260000D03*
D46*
X127052848Y-54800000D03*
D45*
X124512848Y-49720000D03*
D44*
X121972848Y-54800000D03*
D47*
X120762848Y-49720000D03*
X134612848Y-52260000D03*
%TD*%
D44*
%TO.C,K12*%
X122532848Y-73800000D03*
D45*
X121262848Y-71260000D03*
D46*
X117452848Y-73800000D03*
D45*
X114912848Y-68720000D03*
D44*
X112372848Y-73800000D03*
D47*
X111162848Y-68720000D03*
X125012848Y-71260000D03*
%TD*%
D44*
%TO.C,K14*%
X174732848Y-92800000D03*
D45*
X173462848Y-90260000D03*
D46*
X169652848Y-92800000D03*
D45*
X167112848Y-87720000D03*
D44*
X164572848Y-92800000D03*
D47*
X163362848Y-87720000D03*
X177212848Y-90260000D03*
%TD*%
D44*
%TO.C,K21*%
X146232848Y-111800000D03*
D45*
X144962848Y-109260000D03*
D46*
X141152848Y-111800000D03*
D45*
X138612848Y-106720000D03*
D44*
X136072848Y-111800000D03*
D47*
X134862848Y-106720000D03*
X148712848Y-109260000D03*
%TD*%
D48*
%TO.C,H4*%
X193552848Y-121300000D03*
%TD*%
D44*
%TO.C,K10*%
X160532848Y-73800000D03*
D45*
X159262848Y-71260000D03*
D46*
X155452848Y-73800000D03*
D45*
X152912848Y-68720000D03*
D44*
X150372848Y-73800000D03*
D47*
X149162848Y-68720000D03*
X163012848Y-71260000D03*
%TD*%
D44*
%TO.C,K18*%
X205732848Y-111800000D03*
D45*
X204462848Y-109260000D03*
D46*
X200652848Y-111800000D03*
D45*
X198112848Y-106720000D03*
D44*
X195572848Y-111800000D03*
D47*
X194362848Y-106720000D03*
X208212848Y-109260000D03*
%TD*%
D44*
%TO.C,K26*%
X170132848Y-130800000D03*
D45*
X168862848Y-128260000D03*
D46*
X165052848Y-130800000D03*
D45*
X162512848Y-125720000D03*
D44*
X159972848Y-130800000D03*
D47*
X158762848Y-125720000D03*
X172612848Y-128260000D03*
%TD*%
D44*
%TO.C,K15*%
X155732848Y-92800000D03*
D45*
X154462848Y-90260000D03*
D46*
X150652848Y-92800000D03*
D45*
X148112848Y-87720000D03*
D44*
X145572848Y-92800000D03*
D47*
X144362848Y-87720000D03*
X158212848Y-90260000D03*
%TD*%
D44*
%TO.C,K20*%
X165232848Y-111800000D03*
D45*
X163962848Y-109260000D03*
D46*
X160152848Y-111800000D03*
D45*
X157612848Y-106720000D03*
D44*
X155072848Y-111800000D03*
D47*
X153862848Y-106720000D03*
X167712848Y-109260000D03*
%TD*%
D44*
%TO.C,K19*%
X184232848Y-111800000D03*
D45*
X182962848Y-109260000D03*
D46*
X179152848Y-111800000D03*
D45*
X176612848Y-106720000D03*
D44*
X174072848Y-111800000D03*
D47*
X172862848Y-106720000D03*
X186712848Y-109260000D03*
%TD*%
D44*
%TO.C,K7*%
X94132848Y-54800000D03*
D45*
X92862848Y-52260000D03*
D46*
X89052848Y-54800000D03*
D45*
X86512848Y-49720000D03*
D44*
X83972848Y-54800000D03*
D47*
X82762848Y-49720000D03*
X96612848Y-52260000D03*
%TD*%
D48*
%TO.C,H5*%
X98552848Y-121300000D03*
%TD*%
%TO.C,H2*%
X193552848Y-64300000D03*
%TD*%
D46*
%TO.C,H1*%
X105552848Y-122545000D03*
D49*
X105552848Y-137785000D03*
D46*
X129352848Y-122545000D03*
D49*
X129352848Y-137785000D03*
%TD*%
D44*
%TO.C,K16*%
X136732848Y-92800000D03*
D45*
X135462848Y-90260000D03*
D46*
X131652848Y-92800000D03*
D45*
X129112848Y-87720000D03*
D44*
X126572848Y-92800000D03*
D47*
X125362848Y-87720000D03*
X139212848Y-90260000D03*
%TD*%
D44*
%TO.C,K23*%
X108232848Y-111800000D03*
D45*
X106962848Y-109260000D03*
D46*
X103152848Y-111800000D03*
D45*
X100612848Y-106720000D03*
D44*
X98072848Y-111800000D03*
D47*
X96862848Y-106720000D03*
X110712848Y-109260000D03*
%TD*%
D44*
%TO.C,K6*%
X113132848Y-54800000D03*
D45*
X111862848Y-52260000D03*
D46*
X108052848Y-54800000D03*
D45*
X105512848Y-49720000D03*
D44*
X102972848Y-54800000D03*
D47*
X101762848Y-49720000D03*
X115612848Y-52260000D03*
%TD*%
D44*
%TO.C,K27*%
X151132848Y-130800000D03*
D45*
X149862848Y-128260000D03*
D46*
X146052848Y-130800000D03*
D45*
X143512848Y-125720000D03*
D44*
X140972848Y-130800000D03*
D47*
X139762848Y-125720000D03*
X153612848Y-128260000D03*
%TD*%
D44*
%TO.C,K11*%
X141532848Y-73800000D03*
D45*
X140262848Y-71260000D03*
D46*
X136452848Y-73800000D03*
D45*
X133912848Y-68720000D03*
D44*
X131372848Y-73800000D03*
D47*
X130162848Y-68720000D03*
X144012848Y-71260000D03*
%TD*%
D44*
%TO.C,K25*%
X189132848Y-130800000D03*
D45*
X187862848Y-128260000D03*
D46*
X184052848Y-130800000D03*
D45*
X181512848Y-125720000D03*
D44*
X178972848Y-130800000D03*
D47*
X177762848Y-125720000D03*
X191612848Y-128260000D03*
%TD*%
D44*
%TO.C,K22*%
X127232848Y-111800000D03*
D45*
X125962848Y-109260000D03*
D46*
X122152848Y-111800000D03*
D45*
X119612848Y-106720000D03*
D44*
X117072848Y-111800000D03*
D47*
X115862848Y-106720000D03*
X129712848Y-109260000D03*
%TD*%
M02*
