%TF.GenerationSoftware,KiCad,Pcbnew,7.0.7*%
%TF.CreationDate,2024-02-18T16:08:08+01:00*%
%TF.ProjectId,kingslayer-28,6b696e67-736c-4617-9965-722d32382e6b,rev?*%
%TF.SameCoordinates,Original*%
%TF.FileFunction,Copper,L2,Bot*%
%TF.FilePolarity,Positive*%
%FSLAX46Y46*%
G04 Gerber Fmt 4.6, Leading zero omitted, Abs format (unit mm)*
G04 Created by KiCad (PCBNEW 7.0.7) date 2024-02-18 16:08:08*
%MOMM*%
%LPD*%
G01*
G04 APERTURE LIST*
%TA.AperFunction,ComponentPad*%
%ADD10C,0.650000*%
%TD*%
%TA.AperFunction,ComponentPad*%
%ADD11O,2.400000X0.900000*%
%TD*%
%TA.AperFunction,ComponentPad*%
%ADD12O,1.700000X0.900000*%
%TD*%
%TA.AperFunction,ComponentPad*%
%ADD13R,1.350000X1.350000*%
%TD*%
%TA.AperFunction,ComponentPad*%
%ADD14O,1.350000X1.350000*%
%TD*%
%TA.AperFunction,ComponentPad*%
%ADD15R,1.308000X1.308000*%
%TD*%
%TA.AperFunction,ComponentPad*%
%ADD16C,1.308000*%
%TD*%
%TA.AperFunction,ComponentPad*%
%ADD17O,1.230000X2.460000*%
%TD*%
%TA.AperFunction,ViaPad*%
%ADD18C,0.800000*%
%TD*%
%TA.AperFunction,ViaPad*%
%ADD19C,0.700000*%
%TD*%
%TA.AperFunction,Conductor*%
%ADD20C,0.300000*%
%TD*%
%TA.AperFunction,Conductor*%
%ADD21C,0.500000*%
%TD*%
%TA.AperFunction,Conductor*%
%ADD22C,0.200000*%
%TD*%
%TA.AperFunction,Conductor*%
%ADD23C,0.250000*%
%TD*%
G04 APERTURE END LIST*
D10*
%TO.P,USB1,A1,GND*%
%TO.N,GND*%
X85652848Y-71624800D03*
%TO.P,USB1,A4,VBUS*%
%TO.N,Net-(F1-Pad1)*%
X85652848Y-72474800D03*
%TO.P,USB1,A5,CC1*%
%TO.N,Net-(USB1-CC1)*%
X85652848Y-73324800D03*
%TO.P,USB1,A6,D+*%
%TO.N,d+*%
X85652848Y-74174800D03*
%TO.P,USB1,A7,D-*%
%TO.N,d-*%
X85652848Y-75024800D03*
%TO.P,USB1,A8,SBU1*%
%TO.N,unconnected-(USB1-SBU1-PadA8)*%
X85652848Y-75874800D03*
%TO.P,USB1,A9,VBUS*%
%TO.N,Net-(F1-Pad1)*%
X85652848Y-76724800D03*
%TO.P,USB1,A12,GND*%
%TO.N,GND*%
X85652848Y-77574800D03*
%TO.P,USB1,B1,GND*%
X84327848Y-77579800D03*
%TO.P,USB1,B4,VBUS*%
%TO.N,Net-(F1-Pad1)*%
X84327848Y-76729800D03*
%TO.P,USB1,B5,CC2*%
%TO.N,Net-(USB1-CC2)*%
X84327848Y-75879800D03*
%TO.P,USB1,B6,D+*%
%TO.N,d+*%
X84327848Y-75029800D03*
%TO.P,USB1,B7,D-*%
%TO.N,d-*%
X84327848Y-74179800D03*
%TO.P,USB1,B8,SBU2*%
%TO.N,unconnected-(USB1-SBU2-PadB8)*%
X84327848Y-73329800D03*
%TO.P,USB1,B9,VBUS*%
%TO.N,Net-(F1-Pad1)*%
X84327848Y-72479800D03*
%TO.P,USB1,B12,GND*%
%TO.N,GND*%
X84327848Y-71624800D03*
D11*
%TO.P,USB1,S1,Shell1*%
X84672848Y-70274800D03*
D12*
X81292848Y-70274800D03*
D11*
X84672848Y-78924800D03*
D12*
X81292848Y-78924800D03*
%TD*%
D13*
%TO.P,J1,1,Pin_1*%
%TO.N,GND*%
X81072448Y-95504000D03*
D14*
%TO.P,J1,2,Pin_2*%
%TO.N,swclk*%
X81072448Y-93504000D03*
%TO.P,J1,3,Pin_3*%
%TO.N,swdio*%
X81072448Y-91504000D03*
%TO.P,J1,4,Pin_4*%
%TO.N,+3V3*%
X81072448Y-89504000D03*
%TD*%
D15*
%TO.P,SW1,1,A*%
%TO.N,GND*%
X101344048Y-90678000D03*
D16*
%TO.P,SW1,2,B*%
%TO.N,Net-(SW1-B)*%
X99344048Y-90678000D03*
%TO.P,SW1,3,C*%
%TO.N,+3V3*%
X97344048Y-90678000D03*
D17*
%TO.P,SW1,S1*%
%TO.N,N/C*%
X103544048Y-90678000D03*
%TO.P,SW1,S2*%
X95144048Y-90678000D03*
%TD*%
D18*
%TO.N,+3V3*%
X94310878Y-69571278D03*
X97288148Y-66649600D03*
X98247200Y-83134200D03*
X88214200Y-74041000D03*
X87274400Y-81965800D03*
X94514100Y-87122000D03*
X96813100Y-87198200D03*
X90237148Y-85090000D03*
X88238148Y-85344000D03*
X102438200Y-81457800D03*
D19*
%TO.N,nrst*%
X94382048Y-81153000D03*
X94331248Y-84074000D03*
D18*
%TO.N,row0*%
X96934346Y-58097746D03*
X95603094Y-76658000D03*
%TO.N,row1*%
X125323600Y-76936600D03*
X101684348Y-74041000D03*
%TO.N,row2*%
X204368400Y-95885000D03*
X120421400Y-95834200D03*
X202539600Y-95402400D03*
X129794000Y-95935800D03*
X128066800Y-95986600D03*
X101684348Y-73036200D03*
%TO.N,row3*%
X94361000Y-75869800D03*
X110210600Y-115011200D03*
%TO.N,row4*%
X108051600Y-120663700D03*
X108000800Y-115874800D03*
X91971904Y-79517386D03*
X98013022Y-109073178D03*
X91871800Y-104927400D03*
X82626200Y-99999800D03*
%TO.N,ca2*%
X130860800Y-63119000D03*
X131075700Y-60680600D03*
X168808400Y-60756800D03*
X168656000Y-63094967D03*
X206375000Y-61823600D03*
X206375000Y-63285100D03*
X187934600Y-60426600D03*
X170383200Y-77952600D03*
X177647600Y-75819000D03*
X188061600Y-62975663D03*
X149936200Y-63095467D03*
X111836200Y-60921700D03*
X149885400Y-60756800D03*
X165735000Y-96850200D03*
X176072800Y-101777800D03*
X111887000Y-62661800D03*
%TO.N,ca3*%
X153238200Y-102362000D03*
X156845000Y-63794967D03*
X156845000Y-61526663D03*
X156115472Y-97094535D03*
X159867600Y-76185500D03*
X151587200Y-77825600D03*
%TO.N,ca4*%
X192405000Y-81280000D03*
X129057400Y-91008200D03*
X160070800Y-81254600D03*
X178485800Y-78232000D03*
X127685800Y-101580962D03*
X159435800Y-78130400D03*
X178689000Y-81280000D03*
X207594200Y-79578200D03*
X132080000Y-81254600D03*
X121118900Y-81494900D03*
X140397500Y-78130400D03*
X192963800Y-79777576D03*
X209829400Y-79476600D03*
X122287300Y-78804118D03*
X126822200Y-97866200D03*
%TO.N,ca1*%
X131216400Y-59334400D03*
X131775200Y-62395467D03*
X112064800Y-59258200D03*
X194487800Y-82829400D03*
X113106200Y-62458600D03*
X188036200Y-59385200D03*
X168960800Y-59131200D03*
X169646600Y-62276163D03*
X194487800Y-78892400D03*
X150876000Y-62395467D03*
X149936200Y-59283600D03*
X189357000Y-62014300D03*
%TO.N,ca5*%
X140397500Y-79578200D03*
X159308800Y-79756000D03*
X121587800Y-79603600D03*
X109130270Y-97769682D03*
X159054800Y-82067400D03*
X178358800Y-79654400D03*
X120086589Y-82050996D03*
X117398800Y-102151700D03*
X177850800Y-82005400D03*
X109024567Y-92057367D03*
X191033400Y-81979500D03*
X140360400Y-82030300D03*
X118668800Y-82270600D03*
X179527200Y-59613800D03*
%TO.N,ca6*%
X166370000Y-79705200D03*
X107340400Y-96792100D03*
X160375600Y-59359800D03*
X107315000Y-98991100D03*
%TO.N,ca8*%
X121818400Y-82893900D03*
X124168900Y-90525600D03*
X115984181Y-96228424D03*
X115138200Y-100927900D03*
X153683577Y-100927900D03*
X136169400Y-98679000D03*
X121945400Y-86588600D03*
X122986800Y-79527400D03*
X204520800Y-98780600D03*
X130073400Y-76185500D03*
X204408250Y-100875707D03*
X173456600Y-98679000D03*
X122707400Y-63818500D03*
X173406920Y-100927450D03*
X122656600Y-60920000D03*
X121945897Y-84745597D03*
X130073400Y-77584500D03*
X136220200Y-100927900D03*
X154330400Y-98777576D03*
X116281200Y-98729800D03*
%TO.N,ca9*%
X108725700Y-99528900D03*
X106273600Y-91821000D03*
X114757200Y-73329800D03*
X102971600Y-59334400D03*
X108067469Y-94992951D03*
%TO.N,ca7*%
X155117800Y-97155000D03*
X132359400Y-78130400D03*
X135178800Y-100181962D03*
X116750100Y-97358200D03*
X117043200Y-100228400D03*
X141859000Y-60350400D03*
X174726600Y-100176576D03*
X174574200Y-97485200D03*
X141134100Y-89560400D03*
X155448000Y-100176576D03*
X135469900Y-97231200D03*
X146659600Y-94880700D03*
%TO.N,cb2*%
X125982000Y-117271800D03*
X107035600Y-119964200D03*
X99621078Y-119266700D03*
X107035600Y-117652800D03*
X180267411Y-135325654D03*
X183108600Y-117777576D03*
X93345000Y-115671600D03*
X191490600Y-119901700D03*
X145161000Y-119953000D03*
X145262600Y-117678200D03*
X192862200Y-117777576D03*
X163677600Y-119913400D03*
X163969100Y-117754400D03*
X97561400Y-117500400D03*
X98247200Y-115697000D03*
X125425200Y-119875641D03*
X183108600Y-119913400D03*
%TO.N,cb3*%
X157581600Y-118477076D03*
X161086800Y-135585200D03*
X93726000Y-119329200D03*
X95987348Y-119329200D03*
%TO.N,cb4*%
X198856600Y-136398000D03*
X202692000Y-126212600D03*
X163322000Y-137795000D03*
X196926200Y-116916200D03*
X143523700Y-137769600D03*
X161721800Y-137744200D03*
X206908400Y-134874000D03*
X188772800Y-135178800D03*
X180803348Y-137769600D03*
X114020600Y-138049000D03*
X115627348Y-137972800D03*
X199212200Y-133135500D03*
X142124700Y-137795000D03*
X107809558Y-135268314D03*
X182202348Y-137820400D03*
X188798200Y-137298700D03*
X105791678Y-135228922D03*
%TO.N,cb1*%
X203250800Y-119151400D03*
X197485000Y-134645400D03*
X89484200Y-73329800D03*
X183642000Y-116306600D03*
X108915200Y-119176141D03*
X108915200Y-116789200D03*
X197129400Y-133135500D03*
X184277000Y-119202200D03*
X88823800Y-66305700D03*
X126681500Y-119176141D03*
X92645000Y-116789200D03*
X88849200Y-67704700D03*
X101193600Y-119266700D03*
X146214100Y-115951000D03*
X205333600Y-116255800D03*
X164693600Y-119176141D03*
X81254600Y-98450400D03*
X164668200Y-116230400D03*
X126681500Y-116078000D03*
X146177000Y-119253000D03*
%TO.N,cb5*%
X170625100Y-136931400D03*
X151384000Y-135977900D03*
X121158000Y-134273428D03*
X168910000Y-136855200D03*
X149663328Y-136607728D03*
X107085722Y-134530100D03*
X192506600Y-138697700D03*
X180035200Y-134353500D03*
X105080125Y-134518075D03*
X121125455Y-136635101D03*
X192481200Y-135991600D03*
X185140600Y-115519200D03*
%TO.N,cb6*%
X158699200Y-137998200D03*
X156362400Y-116205000D03*
%TO.N,cb7*%
X141630400Y-134747000D03*
X93370400Y-66305700D03*
X137287000Y-116052600D03*
X112699800Y-107696000D03*
X139170700Y-114075501D03*
%TO.N,cb8*%
X112826800Y-105968800D03*
X113436400Y-135559800D03*
X118541800Y-113475500D03*
X91440000Y-66294000D03*
X118211600Y-115747800D03*
%TO.N,cb9*%
X91883822Y-106005900D03*
X90242746Y-72390000D03*
X97028000Y-108569502D03*
X96951800Y-103669100D03*
X90040500Y-66141600D03*
X90144600Y-67704700D03*
X81818812Y-99410623D03*
D19*
%TO.N,Net-(F1-Pad1)*%
X83297113Y-75180300D03*
X83333048Y-76733400D03*
D18*
%TO.N,col0*%
X192303400Y-87477600D03*
X96973148Y-72563748D03*
X194716400Y-125780800D03*
X192328800Y-106680000D03*
X192125600Y-70942200D03*
X194589400Y-49987200D03*
X117272478Y-86206922D03*
%TO.N,col1*%
X118922800Y-86868000D03*
X96977724Y-71564256D03*
X175539400Y-49809400D03*
X175488600Y-125780800D03*
X170865800Y-106680000D03*
X170129200Y-70840600D03*
X161340800Y-87706200D03*
%TO.N,col2*%
X122605800Y-89179400D03*
X156870400Y-125882400D03*
X146812000Y-68681600D03*
X151714200Y-106680000D03*
X96995072Y-70465772D03*
X156235400Y-49758600D03*
X141833600Y-87782400D03*
%TO.N,col3*%
X95322882Y-71669134D03*
X132791200Y-106451400D03*
X123545600Y-87807800D03*
X131089400Y-71018400D03*
X137718800Y-49834800D03*
X137007600Y-125730000D03*
%TO.N,col4*%
X117020612Y-108742483D03*
X119075200Y-64719200D03*
X118160800Y-104800400D03*
X106629200Y-89814400D03*
X112254622Y-122974778D03*
X118922800Y-49682400D03*
%TO.N,col5*%
X108661200Y-105638600D03*
X104521000Y-92760800D03*
X101828600Y-56515000D03*
X101777800Y-62890400D03*
D19*
%TO.N,d+*%
X86626712Y-75046246D03*
X86600237Y-77108566D03*
D18*
%TO.N,boot0*%
X99381705Y-82066030D03*
D19*
X97163248Y-80754650D03*
D18*
%TO.N,/RGB/scl*%
X101862797Y-102215831D03*
X94221500Y-95732600D03*
X93651468Y-79004456D03*
D19*
X95623812Y-79966381D03*
%TO.N,/RGB/sda*%
X98588148Y-74909498D03*
D18*
X102861360Y-102172500D03*
X95656400Y-95605600D03*
D19*
X96428550Y-79508000D03*
D18*
%TO.N,+5V*%
X97205800Y-95633100D03*
X90237148Y-86309200D03*
X87477600Y-86309200D03*
X91348548Y-90398600D03*
X101437229Y-96560273D03*
%TO.N,intb*%
X97459800Y-97053400D03*
X99666288Y-96345083D03*
%TO.N,GND*%
X101066600Y-103708200D03*
D19*
X82520248Y-68326000D03*
X99822000Y-88722200D03*
X83688648Y-82753200D03*
X96697800Y-77409500D03*
X102909100Y-77266800D03*
D18*
X91440000Y-101346000D03*
D19*
X87270048Y-80568800D03*
X92527848Y-75920600D03*
X96783669Y-85917915D03*
X81047048Y-87350600D03*
X91638848Y-96494600D03*
%TD*%
D20*
%TO.N,+3V3*%
X97288148Y-66649600D02*
X97232556Y-66649600D01*
X100761800Y-83134200D02*
X102438200Y-81457800D01*
D21*
X96813100Y-87198200D02*
X94590300Y-87198200D01*
D20*
X88214200Y-74041000D02*
X88849200Y-74676000D01*
D21*
X89983148Y-85344000D02*
X90237148Y-85090000D01*
X88238148Y-85344000D02*
X89983148Y-85344000D01*
D20*
X97232556Y-66649600D02*
X94310878Y-69571278D01*
X88849200Y-81532604D02*
X88416004Y-81965800D01*
X88849200Y-74676000D02*
X88849200Y-81532604D01*
X88416004Y-81965800D02*
X87274400Y-81965800D01*
X98247200Y-83134200D02*
X100761800Y-83134200D01*
D21*
X94590300Y-87198200D02*
X94514100Y-87122000D01*
D20*
%TO.N,nrst*%
X94331248Y-81203800D02*
X94382048Y-81153000D01*
X94331248Y-84074000D02*
X94331248Y-81203800D01*
D22*
%TO.N,row0*%
X95603094Y-76658000D02*
X95514894Y-76569800D01*
X93649800Y-73237138D02*
X92570400Y-72157737D01*
X95514894Y-76569800D02*
X94071050Y-76569800D01*
X94071050Y-76569800D02*
X93649800Y-76148550D01*
X92570400Y-68440400D02*
X90740000Y-66610000D01*
X93649800Y-76148550D02*
X93649800Y-73237138D01*
X92570400Y-72157737D02*
X92570400Y-68440400D01*
X90740000Y-66610000D02*
X90740000Y-64292092D01*
X90740000Y-64292092D02*
X96934346Y-58097746D01*
%TO.N,row1*%
X123977400Y-78282800D02*
X125323600Y-76936600D01*
X120561450Y-85140800D02*
X122518400Y-83183850D01*
X97263098Y-73263748D02*
X95927546Y-73263748D01*
X100556198Y-72898000D02*
X97628846Y-72898000D01*
X95927546Y-73263748D02*
X94622882Y-71959084D01*
X97628846Y-72898000D02*
X97263098Y-73263748D01*
X101684348Y-74041000D02*
X101447600Y-73804252D01*
X122518400Y-83183850D02*
X122518400Y-81418200D01*
X118893363Y-85140800D02*
X120561450Y-85140800D01*
X94622882Y-71959084D02*
X94622882Y-71283033D01*
X96659115Y-69246800D02*
X102617658Y-69246800D01*
X101447600Y-73789402D02*
X100556198Y-72898000D01*
X118059486Y-84306922D02*
X118893363Y-85140800D01*
X123977400Y-79959200D02*
X123977400Y-78282800D01*
X102617658Y-69246800D02*
X117677780Y-84306922D01*
X117677780Y-84306922D02*
X118059486Y-84306922D01*
X122518400Y-81418200D02*
X123977400Y-79959200D01*
X94622882Y-71283033D02*
X96659115Y-69246800D01*
X101447600Y-73804252D02*
X101447600Y-73789402D01*
%TO.N,row2*%
X203022200Y-95885000D02*
X204368400Y-95885000D01*
X116572478Y-86072608D02*
X116572478Y-86496872D01*
X120421400Y-90345794D02*
X120421400Y-95834200D01*
X202539600Y-95402400D02*
X203022200Y-95885000D01*
X128117600Y-95935800D02*
X128066800Y-95986600D01*
X129794000Y-95935800D02*
X128117600Y-95935800D01*
X103536070Y-73036200D02*
X116572478Y-86072608D01*
X101684348Y-73036200D02*
X103536070Y-73036200D01*
X116572478Y-86496872D02*
X120421400Y-90345794D01*
%TO.N,row3*%
X101063028Y-75541000D02*
X100184348Y-74662321D01*
X104459048Y-76061848D02*
X103938200Y-75541000D01*
X100097340Y-74136200D02*
X98087704Y-74136200D01*
X98087704Y-74136200D02*
X97760155Y-74463748D01*
X110210600Y-109724575D02*
X105562400Y-105076375D01*
X97760155Y-74463748D02*
X95767052Y-74463748D01*
X110210600Y-115011200D02*
X110210600Y-109724575D01*
X103938200Y-75541000D02*
X101063028Y-75541000D01*
X95767052Y-74463748D02*
X94361000Y-75869800D01*
X103479600Y-93218000D02*
X103479600Y-92651453D01*
X104459048Y-91672005D02*
X104459048Y-76061848D01*
X105562400Y-105076375D02*
X105562400Y-95300800D01*
X103479600Y-92651453D02*
X104459048Y-91672005D01*
X105562400Y-95300800D02*
X103479600Y-93218000D01*
X100184348Y-74223208D02*
X100097340Y-74136200D01*
X100184348Y-74662321D02*
X100184348Y-74223208D01*
%TO.N,row4*%
X98018600Y-103745950D02*
X97241750Y-102969100D01*
X98013022Y-109073178D02*
X98018600Y-109067600D01*
X108051600Y-115925600D02*
X108000800Y-115874800D01*
X82626200Y-99403971D02*
X84709000Y-97321171D01*
X95961200Y-103669750D02*
X95961200Y-104927400D01*
X97241750Y-102969100D02*
X96661850Y-102969100D01*
X98018600Y-109067600D02*
X98018600Y-103745950D01*
X84709000Y-87706200D02*
X91971904Y-80443296D01*
X96661850Y-102969100D02*
X95961200Y-103669750D01*
X84709000Y-97321171D02*
X84709000Y-87706200D01*
X82626200Y-99999800D02*
X82626200Y-99403971D01*
X91971904Y-80443296D02*
X91971904Y-79517386D01*
X95961200Y-104927400D02*
X91871800Y-104927400D01*
X108051600Y-120663700D02*
X108051600Y-115925600D01*
%TO.N,ca2*%
X176098200Y-96393000D02*
X176047400Y-96342200D01*
X166312211Y-96272989D02*
X173456600Y-96272989D01*
X179459201Y-77275001D02*
X179222400Y-77038200D01*
X176047400Y-96342200D02*
X173525811Y-96342200D01*
X188061600Y-62975663D02*
X188061600Y-60553600D01*
X173525811Y-96342200D02*
X173456600Y-96272989D01*
X168656000Y-60909200D02*
X168808400Y-60756800D01*
X149936200Y-60807600D02*
X149885400Y-60756800D01*
X176098200Y-101752400D02*
X176098200Y-96393000D01*
X111887000Y-62661800D02*
X111887000Y-60972500D01*
X179103601Y-77275001D02*
X177647600Y-75819000D01*
X166312211Y-96272989D02*
X165735000Y-96850200D01*
X206375000Y-63285100D02*
X206375000Y-61823600D01*
X131075700Y-60680600D02*
X130860800Y-60895500D01*
X111887000Y-60972500D02*
X111836200Y-60921700D01*
X179459201Y-77275001D02*
X179103601Y-77275001D01*
X188061600Y-60553600D02*
X187934600Y-60426600D01*
X176047400Y-96342200D02*
X177139600Y-96342200D01*
X179806600Y-93675200D02*
X179806600Y-77597000D01*
X179806600Y-77597000D02*
X179484601Y-77275001D01*
X168656000Y-63094967D02*
X168656000Y-60909200D01*
X149936200Y-63095467D02*
X149936200Y-60807600D01*
X177139600Y-96342200D02*
X179806600Y-93675200D01*
X179484601Y-77275001D02*
X179459201Y-77275001D01*
X171297600Y-77038200D02*
X170383200Y-77952600D01*
X130860800Y-60895500D02*
X130860800Y-63119000D01*
X179222400Y-77038200D02*
X171297600Y-77038200D01*
X176072800Y-101777800D02*
X176098200Y-101752400D01*
%TO.N,ca3*%
X156252137Y-97231200D02*
X156115472Y-97094535D01*
X160883600Y-78333600D02*
X160883600Y-87173450D01*
X156540200Y-100787200D02*
X156540200Y-97231200D01*
X159867600Y-77317600D02*
X160883600Y-78333600D01*
X156540200Y-96494600D02*
X160883600Y-92151200D01*
X152139372Y-77273428D02*
X151587200Y-77825600D01*
X160883600Y-88238950D02*
X160883600Y-92151200D01*
X159823428Y-77273428D02*
X152139372Y-77273428D01*
X156540200Y-97231200D02*
X156252137Y-97231200D01*
X159867600Y-77317600D02*
X159823428Y-77273428D01*
X160640800Y-87416250D02*
X160640800Y-87996150D01*
X153238200Y-102362000D02*
X154965400Y-102362000D01*
X159867600Y-76185500D02*
X159867600Y-77317600D01*
X154965400Y-102362000D02*
X156540200Y-100787200D01*
X160883600Y-87173450D02*
X160640800Y-87416250D01*
D23*
X156845000Y-61526663D02*
X156845000Y-63794967D01*
D22*
X160640800Y-87996150D02*
X160883600Y-88238950D01*
X156540200Y-97231200D02*
X156540200Y-96494600D01*
%TO.N,ca4*%
X134352300Y-84175600D02*
X140397500Y-78130400D01*
X132207000Y-81381600D02*
X132080000Y-81254600D01*
D23*
X179222400Y-80746600D02*
X179222400Y-78968600D01*
D22*
X207695800Y-79476600D02*
X207594200Y-79578200D01*
X122287300Y-79947500D02*
X121118900Y-81115900D01*
X126822200Y-97866200D02*
X126822200Y-100717362D01*
X132207000Y-84175600D02*
X132207000Y-81381600D01*
D23*
X160070800Y-81254600D02*
X160070800Y-78765400D01*
D22*
X209829400Y-79476600D02*
X207695800Y-79476600D01*
X126822200Y-100717362D02*
X127685800Y-101580962D01*
X132207000Y-84175600D02*
X134352300Y-84175600D01*
D23*
X160070800Y-78765400D02*
X159435800Y-78130400D01*
D22*
X122287300Y-78804118D02*
X122287300Y-79947500D01*
D23*
X178689000Y-81280000D02*
X179222400Y-80746600D01*
D22*
X192963800Y-79777576D02*
X192963800Y-80721200D01*
X192963800Y-80721200D02*
X192405000Y-81280000D01*
X129057400Y-91008200D02*
X132207000Y-87858600D01*
D23*
X179222400Y-78968600D02*
X178485800Y-78232000D01*
D22*
X121118900Y-81115900D02*
X121118900Y-81494900D01*
X132207000Y-87858600D02*
X132207000Y-84175600D01*
%TO.N,ca1*%
X131775200Y-62395467D02*
X131775200Y-59893200D01*
X150876000Y-60223400D02*
X149936200Y-59283600D01*
X113106200Y-60299600D02*
X112064800Y-59258200D01*
X113106200Y-62458600D02*
X113106200Y-60299600D01*
X169646600Y-59817000D02*
X168960800Y-59131200D01*
X169646600Y-62276163D02*
X169646600Y-59817000D01*
X150876000Y-62395467D02*
X150876000Y-60223400D01*
X189357000Y-60706000D02*
X188036200Y-59385200D01*
X189357000Y-62014300D02*
X189357000Y-60706000D01*
X194487800Y-82829400D02*
X194487800Y-78892400D01*
X131775200Y-59893200D02*
X131216400Y-59334400D01*
%TO.N,ca5*%
X109130270Y-97769682D02*
X109499400Y-97400552D01*
X177850800Y-82005400D02*
X177850800Y-80162400D01*
X117760800Y-96551800D02*
X116459000Y-95250000D01*
X159054800Y-80010000D02*
X159308800Y-79756000D01*
X117760800Y-101789700D02*
X117760800Y-96551800D01*
X140360400Y-79615300D02*
X140397500Y-79578200D01*
X117398800Y-102151700D02*
X117760800Y-101789700D01*
X119866985Y-82270600D02*
X118668800Y-82270600D01*
X188595000Y-69392800D02*
X179527200Y-60325000D01*
X159054800Y-82067400D02*
X159054800Y-80010000D01*
X177850800Y-80162400D02*
X178358800Y-79654400D01*
X120051600Y-81139800D02*
X120051600Y-82016007D01*
X191033400Y-76110100D02*
X188595000Y-73671700D01*
X116459000Y-95250000D02*
X109499400Y-95250000D01*
X109499400Y-95250000D02*
X109024567Y-94775167D01*
X109024567Y-94775167D02*
X109024567Y-92057367D01*
X188595000Y-73671700D02*
X188595000Y-69392800D01*
X120051600Y-82016007D02*
X120086589Y-82050996D01*
X191033400Y-81979500D02*
X191033400Y-76110100D01*
X121587800Y-79603600D02*
X120051600Y-81139800D01*
X109499400Y-97400552D02*
X109499400Y-95250000D01*
X179527200Y-60325000D02*
X179527200Y-59613800D01*
X120086589Y-82050996D02*
X119866985Y-82270600D01*
X140360400Y-82030300D02*
X140360400Y-79615300D01*
%TO.N,ca6*%
X166370000Y-65354200D02*
X166370000Y-79705200D01*
X107315000Y-96817500D02*
X107340400Y-96792100D01*
X160375600Y-59359800D02*
X166370000Y-65354200D01*
X107315000Y-98991100D02*
X107315000Y-96817500D01*
%TO.N,ca8*%
X115138200Y-100927900D02*
X115138200Y-100838000D01*
X124168900Y-92094381D02*
X124168900Y-90525600D01*
X128592302Y-95143900D02*
X135402900Y-95143900D01*
X136169400Y-98679000D02*
X136169400Y-100877100D01*
X116255800Y-98755200D02*
X116281200Y-98729800D01*
X135402900Y-95143900D02*
X136169400Y-95910400D01*
D23*
X154330400Y-100281077D02*
X153683577Y-100927900D01*
D22*
X115138200Y-100838000D02*
X116255800Y-99720400D01*
X130073400Y-76185500D02*
X130073400Y-77584500D01*
X127889000Y-94440598D02*
X128592302Y-95143900D01*
X122986800Y-79527400D02*
X122986800Y-80289400D01*
X121945897Y-84745597D02*
X121945400Y-84746094D01*
X122707400Y-63818500D02*
X122707400Y-60970800D01*
X115984181Y-97582231D02*
X115984181Y-96228424D01*
X121945400Y-84746094D02*
X121945400Y-86588600D01*
X126515117Y-94440598D02*
X127889000Y-94440598D01*
X126515117Y-94440598D02*
X124168900Y-92094381D01*
D23*
X173456600Y-98679000D02*
X173456600Y-100877770D01*
D22*
X116230400Y-97828450D02*
X115984181Y-97582231D01*
D23*
X154330400Y-98777576D02*
X154330400Y-100281077D01*
D22*
X136169400Y-95910400D02*
X136169400Y-98679000D01*
X122986800Y-80289400D02*
X121818400Y-81457800D01*
X136169400Y-100877100D02*
X136220200Y-100927900D01*
X116281200Y-98729800D02*
X116230400Y-98679000D01*
X116230400Y-98679000D02*
X116230400Y-97828450D01*
D23*
X173456600Y-100877770D02*
X173406920Y-100927450D01*
D22*
X116255800Y-99720400D02*
X116255800Y-98755200D01*
X204408250Y-100875707D02*
X204408250Y-98893150D01*
X122707400Y-60970800D02*
X122656600Y-60920000D01*
X204408250Y-98893150D02*
X204520800Y-98780600D01*
X121818400Y-81457800D02*
X121818400Y-82893900D01*
%TO.N,ca9*%
X112547400Y-68910200D02*
X112547400Y-71120000D01*
X108430270Y-97257866D02*
X108440400Y-97247735D01*
X108440400Y-97247735D02*
X108440400Y-95365882D01*
X102971600Y-59334400D02*
X112547400Y-68910200D01*
X108725700Y-99528900D02*
X108430270Y-99233470D01*
X106273600Y-91821000D02*
X106273600Y-93199082D01*
X108440400Y-95365882D02*
X108067469Y-94992951D01*
X112547400Y-71120000D02*
X114757200Y-73329800D01*
X106273600Y-93199082D02*
X108067469Y-94992951D01*
X108430270Y-99233470D02*
X108430270Y-97257866D01*
%TO.N,ca7*%
X141097000Y-77241400D02*
X133248400Y-77241400D01*
X141859000Y-60350400D02*
X141859000Y-62484000D01*
D23*
X135356600Y-97344500D02*
X135356600Y-100004162D01*
X147054300Y-95275400D02*
X153238200Y-95275400D01*
D22*
X174726600Y-97637600D02*
X174726600Y-100176576D01*
X117043200Y-100228400D02*
X117043200Y-97651300D01*
X133248400Y-77241400D02*
X132359400Y-78130400D01*
X174574200Y-97485200D02*
X174726600Y-97637600D01*
X141097000Y-89523300D02*
X141134100Y-89560400D01*
D23*
X146659600Y-94880700D02*
X147054300Y-95275400D01*
D22*
X141859000Y-62484000D02*
X142733748Y-63358748D01*
D23*
X153238200Y-95275400D02*
X155117800Y-97155000D01*
D22*
X117043200Y-97651300D02*
X116750100Y-97358200D01*
D23*
X116750100Y-97358200D02*
X117006200Y-97614300D01*
X155117800Y-99846376D02*
X155448000Y-100176576D01*
D22*
X142733748Y-75604652D02*
X141097000Y-77241400D01*
D23*
X155117800Y-97155000D02*
X155117800Y-99846376D01*
D22*
X141097000Y-77241400D02*
X141097000Y-89523300D01*
D23*
X135356600Y-100004162D02*
X135178800Y-100181962D01*
X135469900Y-97231200D02*
X135356600Y-97344500D01*
D22*
X142733748Y-63358748D02*
X142733748Y-75604652D01*
D23*
%TO.N,cb2*%
X107035600Y-117652800D02*
X107035600Y-119964200D01*
D22*
X97561400Y-117500400D02*
X99327700Y-119266700D01*
X98247200Y-115697000D02*
X98221800Y-115671600D01*
D23*
X125956500Y-118875836D02*
X125956500Y-119344341D01*
X125982000Y-117271800D02*
X125958600Y-117295200D01*
D22*
X145161000Y-117779800D02*
X145262600Y-117678200D01*
X186012848Y-129026295D02*
X186012848Y-125379452D01*
X187096553Y-133324753D02*
X187096553Y-130110000D01*
X191490600Y-119149176D02*
X192862200Y-117777576D01*
X186012848Y-125379452D02*
X191490600Y-119901700D01*
X187096553Y-130110000D02*
X186012848Y-129026295D01*
D23*
X125956500Y-119344341D02*
X125425200Y-119875641D01*
X163969100Y-119621900D02*
X163677600Y-119913400D01*
X163969100Y-117754400D02*
X163969100Y-119621900D01*
X125958600Y-118873736D02*
X125956500Y-118875836D01*
D22*
X182268312Y-133324753D02*
X180267411Y-135325654D01*
X191490600Y-119901700D02*
X191490600Y-119149176D01*
X98221800Y-115671600D02*
X93345000Y-115671600D01*
D23*
X125958600Y-117295200D02*
X125958600Y-118873736D01*
D22*
X187096553Y-133324753D02*
X182268312Y-133324753D01*
X145161000Y-119953000D02*
X145161000Y-117779800D01*
X99327700Y-119266700D02*
X99621078Y-119266700D01*
D23*
X183108600Y-117777576D02*
X183108600Y-119913400D01*
D22*
%TO.N,cb3*%
X172440600Y-125425200D02*
X172440600Y-133154414D01*
X163118800Y-133553200D02*
X161086800Y-135585200D01*
X159308800Y-120624600D02*
X160407236Y-120624600D01*
X172041814Y-133553200D02*
X163118800Y-133553200D01*
X165207836Y-125425200D02*
X172440600Y-125425200D01*
X160407236Y-120624600D02*
X165207836Y-125425200D01*
X157581600Y-118897400D02*
X159308800Y-120624600D01*
X157581600Y-118477076D02*
X157581600Y-118897400D01*
X95987348Y-119329200D02*
X93726000Y-119329200D01*
X172440600Y-133154414D02*
X172041814Y-133553200D01*
%TO.N,cb4*%
X105792356Y-135229600D02*
X105791678Y-135228922D01*
X163322000Y-137795000D02*
X161772600Y-137795000D01*
X107809558Y-135268314D02*
X107770844Y-135229600D01*
X199220600Y-133143900D02*
X199212200Y-133135500D01*
X161772600Y-137795000D02*
X161721800Y-137744200D01*
X199212200Y-133135500D02*
X198856600Y-133491100D01*
X115551148Y-138049000D02*
X115627348Y-137972800D01*
X114020600Y-138049000D02*
X115551148Y-138049000D01*
X202692000Y-126212600D02*
X202692000Y-124924377D01*
X107770844Y-135229600D02*
X105792356Y-135229600D01*
X198856600Y-133491100D02*
X198856600Y-136398000D01*
X180854148Y-137820400D02*
X180803348Y-137769600D01*
X202692000Y-124924377D02*
X196926200Y-119158577D01*
X182202348Y-137820400D02*
X180854148Y-137820400D01*
D23*
X188772800Y-137273300D02*
X188798200Y-137298700D01*
D22*
X142124700Y-137795000D02*
X143498300Y-137795000D01*
X143498300Y-137795000D02*
X143523700Y-137769600D01*
X196926200Y-119158577D02*
X196926200Y-116916200D01*
D23*
X188772800Y-135178800D02*
X188772800Y-137273300D01*
D22*
X206908400Y-134874000D02*
X205178300Y-133143900D01*
X205178300Y-133143900D02*
X199220600Y-133143900D01*
%TO.N,cb1*%
X146214100Y-119215900D02*
X146177000Y-119253000D01*
X98275800Y-116789200D02*
X100753300Y-119266700D01*
D23*
X164693600Y-116255800D02*
X164668200Y-116230400D01*
X184277000Y-119202200D02*
X184277000Y-116941600D01*
D22*
X81254600Y-98450400D02*
X82448400Y-98450400D01*
X204495400Y-119151400D02*
X205333600Y-118313200D01*
X108915200Y-116789200D02*
X108915200Y-119176141D01*
X82448400Y-98450400D02*
X83909000Y-96989800D01*
X126681500Y-116078000D02*
X126681500Y-119176141D01*
X88849200Y-66331100D02*
X88849200Y-67704700D01*
X92645000Y-116789200D02*
X98275800Y-116789200D01*
X146214100Y-115951000D02*
X146214100Y-119215900D01*
X83909000Y-96989800D02*
X83909000Y-87109200D01*
X83909000Y-87109200D02*
X89484200Y-81534000D01*
X205333600Y-118313200D02*
X205333600Y-116255800D01*
X89484200Y-81534000D02*
X89484200Y-73329800D01*
X197129400Y-134289800D02*
X197485000Y-134645400D01*
D23*
X184277000Y-116941600D02*
X183642000Y-116306600D01*
D22*
X197129400Y-133135500D02*
X197129400Y-134289800D01*
X88823800Y-66305700D02*
X88849200Y-66331100D01*
X100753300Y-119266700D02*
X101193600Y-119266700D01*
D23*
X164693600Y-119176141D02*
X164693600Y-116255800D01*
D22*
X203250800Y-119151400D02*
X204495400Y-119151400D01*
D23*
%TO.N,cb5*%
X121125455Y-134305973D02*
X121158000Y-134273428D01*
D22*
X168986200Y-136931400D02*
X168910000Y-136855200D01*
X150293156Y-135977900D02*
X149663328Y-136607728D01*
X107073697Y-134518075D02*
X105080125Y-134518075D01*
X185140600Y-126330577D02*
X180035200Y-131435977D01*
D23*
X192506600Y-138697700D02*
X192506600Y-136017000D01*
D22*
X185140600Y-115519200D02*
X185140600Y-126330577D01*
X170625100Y-136931400D02*
X168986200Y-136931400D01*
X180035200Y-134353500D02*
X180035200Y-131435977D01*
X107085722Y-134530100D02*
X107073697Y-134518075D01*
D23*
X121125455Y-136635101D02*
X121125455Y-134305973D01*
D22*
X151384000Y-135977900D02*
X150293156Y-135977900D01*
D23*
X192506600Y-136017000D02*
X192481200Y-135991600D01*
D22*
%TO.N,cb6*%
X158699200Y-126721250D02*
X158699200Y-137998200D01*
X156362400Y-116205000D02*
X155600400Y-116967000D01*
X155600400Y-123622450D02*
X158699200Y-126721250D01*
X155600400Y-116967000D02*
X155600400Y-123622450D01*
%TO.N,cb7*%
X95207782Y-73663748D02*
X97428784Y-73663748D01*
X101394398Y-74741000D02*
X104357400Y-74741000D01*
X105333800Y-75717400D02*
X105333800Y-91871150D01*
X104357400Y-74741000D02*
X105333800Y-75717400D01*
X146011900Y-114211100D02*
X139306299Y-114211100D01*
X146913600Y-127927047D02*
X146913600Y-115112800D01*
D23*
X139170700Y-114168900D02*
X137287000Y-116052600D01*
D22*
X100984348Y-74330950D02*
X101394398Y-74741000D01*
X100396912Y-73304400D02*
X100984348Y-73891836D01*
X149096553Y-130110000D02*
X146913600Y-127927047D01*
X146913600Y-115112800D02*
X146011900Y-114211100D01*
X108040400Y-96502150D02*
X108040400Y-97082050D01*
X105873600Y-92410950D02*
X105873600Y-93364768D01*
X141630400Y-134747000D02*
X143233500Y-133143900D01*
X107367469Y-94858637D02*
X107367469Y-95829219D01*
X111868486Y-104444800D02*
X113131600Y-104444800D01*
X113576800Y-104890000D02*
X113576800Y-106819000D01*
X93370400Y-66305700D02*
X93370400Y-71826366D01*
X97428784Y-73663748D02*
X97788132Y-73304400D01*
X149048653Y-133143900D02*
X149096553Y-133096000D01*
X108015000Y-97107450D02*
X108015000Y-100591314D01*
D23*
X139170700Y-114075501D02*
X139170700Y-114168900D01*
D22*
X149096553Y-133096000D02*
X149096553Y-130110000D01*
X107367469Y-95829219D02*
X108040400Y-96502150D01*
X93370400Y-71826366D02*
X95207782Y-73663748D01*
X108015000Y-100591314D02*
X111868486Y-104444800D01*
X113576800Y-106819000D02*
X112699800Y-107696000D01*
X113131600Y-104444800D02*
X113576800Y-104890000D01*
X139306299Y-114211100D02*
X139170700Y-114075501D01*
X105333800Y-91871150D02*
X105873600Y-92410950D01*
X100984348Y-73891836D02*
X100984348Y-74330950D01*
X143233500Y-133143900D02*
X149048653Y-133143900D01*
X108040400Y-97082050D02*
X108015000Y-97107450D01*
X97788132Y-73304400D02*
X100396912Y-73304400D01*
X105873600Y-93364768D02*
X107367469Y-94858637D01*
%TO.N,cb8*%
X126982828Y-115273428D02*
X120339728Y-115273428D01*
X120339728Y-115273428D02*
X120331500Y-115265200D01*
X97594470Y-74063748D02*
X97922018Y-73736200D01*
X100584348Y-74057522D02*
X100584348Y-74496636D01*
X120868050Y-133573428D02*
X121447950Y-133573428D01*
X127008948Y-123515875D02*
X127008948Y-121574125D01*
X104191714Y-75141000D02*
X104933800Y-75883086D01*
X104933800Y-75883086D02*
X104933800Y-92036836D01*
X122113522Y-134239000D02*
X124916550Y-134239000D01*
X95042097Y-74063748D02*
X97594470Y-74063748D01*
X106603800Y-94977486D02*
X106603800Y-99745800D01*
X120227878Y-134213600D02*
X120868050Y-133573428D01*
X127381000Y-115671600D02*
X126982828Y-115273428D01*
X127381000Y-131774550D02*
X127381000Y-123887927D01*
X97922018Y-73736200D02*
X100263026Y-73736200D01*
X120339728Y-115273428D02*
X118541800Y-113475500D01*
X92970400Y-67824400D02*
X92970400Y-71992052D01*
X101228713Y-75141000D02*
X104191714Y-75141000D01*
X127381000Y-121202073D02*
X127381000Y-115671600D01*
X100263026Y-73736200D02*
X100584348Y-74057522D01*
X118694200Y-115265200D02*
X118211600Y-115747800D01*
X120331500Y-115265200D02*
X118694200Y-115265200D01*
X114782600Y-134213600D02*
X120227878Y-134213600D01*
X105473600Y-92576636D02*
X105473600Y-93847286D01*
X121447950Y-133573428D02*
X122113522Y-134239000D01*
X106603800Y-99745800D02*
X112826800Y-105968800D01*
X124916550Y-134239000D02*
X127381000Y-131774550D01*
X105473600Y-93847286D02*
X106603800Y-94977486D01*
X113436400Y-135559800D02*
X114782600Y-134213600D01*
X92970400Y-71992052D02*
X95042097Y-74063748D01*
X127381000Y-123887927D02*
X127008948Y-123515875D01*
X104933800Y-92036836D02*
X105473600Y-92576636D01*
X100584348Y-74496636D02*
X101228713Y-75141000D01*
X127008948Y-121574125D02*
X127381000Y-121202073D01*
X91440000Y-66294000D02*
X92970400Y-67824400D01*
%TO.N,cb9*%
X91883822Y-106005900D02*
X94464398Y-106005900D01*
X90392200Y-72539454D02*
X90242746Y-72390000D01*
X81818812Y-99410623D02*
X82053863Y-99410623D01*
X84309000Y-97155486D02*
X84309000Y-87540514D01*
X90040500Y-66141600D02*
X90068400Y-66169500D01*
X90068400Y-67628500D02*
X90144600Y-67704700D01*
X84309000Y-87540514D02*
X90392200Y-81457314D01*
X82053863Y-99410623D02*
X84309000Y-97155486D01*
X90392200Y-81457314D02*
X90392200Y-72539454D01*
X96951800Y-103669100D02*
X96951800Y-108493302D01*
X90068400Y-66169500D02*
X90068400Y-67628500D01*
X96951800Y-108493302D02*
X97028000Y-108569502D01*
X94464398Y-106005900D02*
X97028000Y-108569502D01*
D21*
%TO.N,Net-(F1-Pad1)*%
X83333048Y-76733400D02*
X83333048Y-75216235D01*
X83333048Y-75216235D02*
X83297113Y-75180300D01*
D22*
%TO.N,col0*%
X192125600Y-71577200D02*
X193147500Y-72599100D01*
X192303400Y-87477600D02*
X192303400Y-106654600D01*
X192125600Y-66339504D02*
X192102848Y-66316752D01*
X194371948Y-110986852D02*
X194371948Y-112297429D01*
X193147500Y-72599100D02*
X193670277Y-72599100D01*
X194373748Y-73302571D02*
X194373748Y-74297429D01*
X195707000Y-113632481D02*
X195707000Y-124790200D01*
X97200696Y-72336200D02*
X103401756Y-72336200D01*
X194373748Y-74297429D02*
X193649600Y-75021577D01*
X192303400Y-106654600D02*
X192328800Y-106680000D01*
X192125600Y-70942200D02*
X192125600Y-71577200D01*
X192102848Y-66316752D02*
X192102848Y-52473752D01*
X192125600Y-70942200D02*
X192125600Y-66339504D01*
X193649600Y-79473426D02*
X193663800Y-79487626D01*
X195707000Y-124790200D02*
X194716400Y-125780800D01*
X192102848Y-52473752D02*
X194589400Y-49987200D01*
X193663800Y-86117200D02*
X192303400Y-87477600D01*
X195503800Y-109855000D02*
X194371948Y-110986852D01*
X96973148Y-72563748D02*
X97200696Y-72336200D01*
X193663800Y-79487626D02*
X193663800Y-86117200D01*
X193649600Y-75021577D02*
X193649600Y-79473426D01*
X103401756Y-72336200D02*
X117272478Y-86206922D01*
X194371948Y-112297429D02*
X195707000Y-113632481D01*
X192328800Y-106680000D02*
X195503800Y-109855000D01*
X193670277Y-72599100D02*
X194373748Y-73302571D01*
%TO.N,col1*%
X170062848Y-70774248D02*
X170062848Y-64379152D01*
X175439300Y-125731500D02*
X175488600Y-125780800D01*
X170062848Y-64379152D02*
X175539400Y-58902600D01*
X118922800Y-86867294D02*
X118922800Y-86868000D01*
X117180722Y-85506922D02*
X117562428Y-85506922D01*
X170129200Y-70840600D02*
X167716200Y-73253600D01*
X161340800Y-87706200D02*
X161340800Y-99339400D01*
X170865800Y-106680000D02*
X175439300Y-111253500D01*
X167716200Y-81330800D02*
X161340800Y-87706200D01*
X168681400Y-106680000D02*
X170865800Y-106680000D01*
X161340800Y-99339400D02*
X168681400Y-106680000D01*
X96977724Y-71564256D02*
X97114774Y-71427206D01*
X167716200Y-73253600D02*
X167716200Y-81330800D01*
X175439300Y-111253500D02*
X175439300Y-125731500D01*
X175539400Y-58902600D02*
X175539400Y-49809400D01*
X170129200Y-70840600D02*
X170062848Y-70774248D01*
X97114774Y-71427206D02*
X103101006Y-71427206D01*
X117562428Y-85506922D02*
X118922800Y-86867294D01*
X103101006Y-71427206D02*
X117180722Y-85506922D01*
%TO.N,col2*%
X156235400Y-49758600D02*
X156235400Y-59258200D01*
X144968350Y-101576076D02*
X145128913Y-101415513D01*
X121818400Y-89179400D02*
X122605800Y-89179400D01*
X119212750Y-86168000D02*
X119622800Y-86578050D01*
X156235400Y-59258200D02*
X146812000Y-68681600D01*
X117346408Y-85106922D02*
X117728114Y-85106922D01*
X144388450Y-101576076D02*
X144968350Y-101576076D01*
X141833600Y-87782400D02*
X141833600Y-99021226D01*
X151714200Y-120726200D02*
X156870400Y-125882400D01*
X96995072Y-70465772D02*
X102705258Y-70465772D01*
X145128913Y-101415513D02*
X146449713Y-101415513D01*
X151714200Y-106680000D02*
X151714200Y-120726200D01*
X146812000Y-68681600D02*
X146812000Y-82804000D01*
X117728114Y-85106922D02*
X118789191Y-86168000D01*
X102705258Y-70465772D02*
X117346408Y-85106922D01*
X146812000Y-82804000D02*
X141833600Y-87782400D01*
X146449713Y-101415513D02*
X151714200Y-106680000D01*
X118789191Y-86168000D02*
X119212750Y-86168000D01*
X119622800Y-86983800D02*
X121818400Y-89179400D01*
X141833600Y-99021226D02*
X144388450Y-101576076D01*
X119622800Y-86578050D02*
X119622800Y-86983800D01*
%TO.N,col3*%
X133333748Y-54219852D02*
X137718800Y-49834800D01*
X129082800Y-82270600D02*
X123545600Y-87807800D01*
X118954877Y-85768000D02*
X119378436Y-85768000D01*
X123186485Y-87807800D02*
X123545600Y-87807800D01*
X129082800Y-73025000D02*
X129082800Y-82270600D01*
X131089400Y-71018400D02*
X129082800Y-73025000D01*
X132062848Y-69486295D02*
X132062848Y-67953705D01*
X95322882Y-71669134D02*
X95322882Y-71148718D01*
X132969000Y-57334481D02*
X133333748Y-56969733D01*
X132791200Y-121513600D02*
X132791200Y-106451400D01*
X133333748Y-56969733D02*
X133333748Y-54219852D01*
X96824800Y-69646800D02*
X102451972Y-69646800D01*
X132969000Y-67047553D02*
X132969000Y-57334481D01*
X137007600Y-125730000D02*
X132791200Y-121513600D01*
X131546600Y-106451400D02*
X123469400Y-98374200D01*
X120022800Y-86412364D02*
X120022800Y-86723400D01*
X121070857Y-87771457D02*
X123150143Y-87771457D01*
X131089400Y-71018400D02*
X132342177Y-69765623D01*
X120022800Y-86723400D02*
X121070857Y-87771457D01*
X102451972Y-69646800D02*
X117512094Y-84706922D01*
X117512094Y-84706922D02*
X117893800Y-84706922D01*
X132791200Y-106451400D02*
X131546600Y-106451400D01*
X119378436Y-85768000D02*
X120022800Y-86412364D01*
X117893800Y-84706922D02*
X118954877Y-85768000D01*
X95322882Y-71148718D02*
X96824800Y-69646800D01*
X123469400Y-98374200D02*
X123469400Y-88090714D01*
X132342177Y-69765623D02*
X132062848Y-69486295D01*
X132062848Y-67953705D02*
X132969000Y-67047553D01*
X123469400Y-88090714D02*
X123150143Y-87771457D01*
X123150143Y-87771457D02*
X123186485Y-87807800D01*
%TO.N,col4*%
X118160800Y-104800400D02*
X118160800Y-94926281D01*
X117020612Y-108742483D02*
X117020612Y-110153907D01*
X113400953Y-89814400D02*
X116484400Y-92897846D01*
X117020612Y-110153907D02*
X112242600Y-114931919D01*
X112242600Y-122986800D02*
X112254622Y-122974778D01*
X119075200Y-64719200D02*
X118973600Y-64617600D01*
X118160800Y-94926281D02*
X116484400Y-93249881D01*
X112242600Y-114931919D02*
X112242600Y-122986800D01*
X113400953Y-89814400D02*
X106629200Y-89814400D01*
X118973600Y-49733200D02*
X118922800Y-49682400D01*
X116484400Y-93249881D02*
X116484400Y-92897846D01*
X118973600Y-64617600D02*
X118973600Y-49733200D01*
%TO.N,col5*%
X106095800Y-95035172D02*
X106095800Y-99803486D01*
X104521000Y-93446600D02*
X104533800Y-93459400D01*
X101777800Y-56565800D02*
X101828600Y-56515000D01*
X106095800Y-99803486D02*
X108661200Y-102368886D01*
X104533800Y-93473171D02*
X106095800Y-95035172D01*
X101777800Y-62890400D02*
X101777800Y-56565800D01*
X108661200Y-102368886D02*
X108661200Y-105638600D01*
X104533800Y-93459400D02*
X104533800Y-93473171D01*
X104521000Y-92760800D02*
X104521000Y-93446600D01*
%TO.N,d+*%
X84763964Y-75029800D02*
X85618964Y-74174800D01*
X86600237Y-77108566D02*
X86600237Y-75072721D01*
X84327848Y-75029800D02*
X84763964Y-75029800D01*
X85618964Y-74174800D02*
X85652848Y-74174800D01*
X86600237Y-75072721D02*
X86626712Y-75046246D01*
D20*
%TO.N,boot0*%
X99381705Y-82066030D02*
X98474430Y-82066030D01*
X97163248Y-80754848D02*
X97163248Y-80754650D01*
X98474430Y-82066030D02*
X97163248Y-80754848D01*
D22*
%TO.N,/RGB/scl*%
X93651468Y-79004456D02*
X94124342Y-79004456D01*
X101118095Y-102215831D02*
X98286064Y-99383800D01*
X94221500Y-95743500D02*
X94221500Y-95732600D01*
X97861800Y-99383800D02*
X94221500Y-95743500D01*
X95086267Y-79966381D02*
X95623812Y-79966381D01*
X98286064Y-99383800D02*
X97861800Y-99383800D01*
X101862797Y-102215831D02*
X101118095Y-102215831D01*
X94124342Y-79004456D02*
X95086267Y-79966381D01*
%TO.N,/RGB/sda*%
X98451750Y-98983800D02*
X98027486Y-98983800D01*
X97953048Y-75544598D02*
X97953048Y-77983502D01*
X98588148Y-74909498D02*
X97953048Y-75544598D01*
X102161860Y-101473000D02*
X100940950Y-101473000D01*
X102861360Y-102172500D02*
X102161860Y-101473000D01*
X97953048Y-77983502D02*
X96428550Y-79508000D01*
X100940950Y-101473000D02*
X98451750Y-98983800D01*
X95656400Y-96612714D02*
X95656400Y-95605600D01*
X98027486Y-98983800D02*
X95656400Y-96612714D01*
D21*
%TO.N,+5V*%
X91971300Y-90398600D02*
X91348548Y-90398600D01*
X97404217Y-95495083D02*
X97242900Y-95656400D01*
X100372039Y-95495083D02*
X97404217Y-95495083D01*
X90237148Y-86309200D02*
X87477600Y-86309200D01*
X97205800Y-95633100D02*
X91971300Y-90398600D01*
X101437229Y-96560273D02*
X100372039Y-95495083D01*
D22*
%TO.N,intb*%
X99666288Y-96345083D02*
X98168117Y-96345083D01*
X98168117Y-96345083D02*
X97459800Y-97053400D01*
%TD*%
%TA.AperFunction,Conductor*%
%TO.N,GND*%
G36*
X90082539Y-64408685D02*
G01*
X90128294Y-64461489D01*
X90139500Y-64513000D01*
X90139500Y-65117100D01*
X90119815Y-65184139D01*
X90067011Y-65229894D01*
X90015500Y-65241100D01*
X89945854Y-65241100D01*
X89913397Y-65247998D01*
X89760697Y-65280455D01*
X89760692Y-65280457D01*
X89587770Y-65357448D01*
X89587765Y-65357451D01*
X89434635Y-65468706D01*
X89434630Y-65468710D01*
X89415705Y-65489728D01*
X89356217Y-65526374D01*
X89286360Y-65525041D01*
X89273122Y-65520031D01*
X89103607Y-65444557D01*
X89103602Y-65444555D01*
X88957800Y-65413565D01*
X88918446Y-65405200D01*
X88729154Y-65405200D01*
X88696697Y-65412098D01*
X88543997Y-65444555D01*
X88543992Y-65444557D01*
X88371070Y-65521548D01*
X88371065Y-65521551D01*
X88217929Y-65632811D01*
X88091266Y-65773485D01*
X87996621Y-65937415D01*
X87996618Y-65937422D01*
X87938145Y-66117384D01*
X87938126Y-66117444D01*
X87918340Y-66305700D01*
X87938126Y-66493956D01*
X87938127Y-66493959D01*
X87996618Y-66673977D01*
X87996621Y-66673984D01*
X88091264Y-66837912D01*
X88091265Y-66837914D01*
X88091267Y-66837916D01*
X88179883Y-66936334D01*
X88210112Y-66999323D01*
X88201487Y-67068658D01*
X88179882Y-67102276D01*
X88116666Y-67172484D01*
X88022021Y-67336415D01*
X88022018Y-67336422D01*
X87965378Y-67510744D01*
X87963526Y-67516444D01*
X87943740Y-67704700D01*
X87963526Y-67892956D01*
X87963527Y-67892959D01*
X88022018Y-68072977D01*
X88022021Y-68072984D01*
X88116667Y-68236916D01*
X88201500Y-68331132D01*
X88243329Y-68377588D01*
X88396465Y-68488848D01*
X88396470Y-68488851D01*
X88569392Y-68565842D01*
X88569397Y-68565844D01*
X88754554Y-68605200D01*
X88754555Y-68605200D01*
X88943844Y-68605200D01*
X88943846Y-68605200D01*
X89129003Y-68565844D01*
X89301930Y-68488851D01*
X89424017Y-68400149D01*
X89489821Y-68376671D01*
X89557875Y-68392496D01*
X89569772Y-68400142D01*
X89691866Y-68488848D01*
X89691870Y-68488851D01*
X89864792Y-68565842D01*
X89864797Y-68565844D01*
X90049954Y-68605200D01*
X90049955Y-68605200D01*
X90239244Y-68605200D01*
X90239246Y-68605200D01*
X90424403Y-68565844D01*
X90597330Y-68488851D01*
X90750471Y-68377588D01*
X90877133Y-68236916D01*
X90971779Y-68072984D01*
X91002923Y-67977132D01*
X91042360Y-67919458D01*
X91106719Y-67892259D01*
X91175565Y-67904173D01*
X91208535Y-67927770D01*
X91933581Y-68652816D01*
X91967066Y-68714139D01*
X91969900Y-68740497D01*
X91969900Y-72114308D01*
X91969369Y-72122410D01*
X91964718Y-72157736D01*
X91964718Y-72157737D01*
X91969900Y-72197097D01*
X91985355Y-72314497D01*
X91985356Y-72314499D01*
X92045745Y-72460292D01*
X92045864Y-72460578D01*
X92142118Y-72586019D01*
X92170395Y-72607717D01*
X92176485Y-72613057D01*
X92655405Y-73091977D01*
X93012981Y-73449553D01*
X93046466Y-73510876D01*
X93049300Y-73537234D01*
X93049300Y-76105121D01*
X93048769Y-76113223D01*
X93044118Y-76148549D01*
X93044118Y-76148550D01*
X93049300Y-76187910D01*
X93064755Y-76305310D01*
X93064756Y-76305312D01*
X93125264Y-76451391D01*
X93221518Y-76576832D01*
X93249795Y-76598530D01*
X93255885Y-76603870D01*
X93615729Y-76963714D01*
X93621075Y-76969810D01*
X93642767Y-76998081D01*
X93672959Y-77021248D01*
X93672977Y-77021263D01*
X93768207Y-77094335D01*
X93768208Y-77094335D01*
X93768209Y-77094336D01*
X93914288Y-77154844D01*
X93992669Y-77165162D01*
X94071049Y-77175482D01*
X94071050Y-77175482D01*
X94106379Y-77170830D01*
X94114478Y-77170300D01*
X94797420Y-77170300D01*
X94864459Y-77189985D01*
X94889570Y-77211328D01*
X94997223Y-77330888D01*
X95150359Y-77442148D01*
X95150364Y-77442151D01*
X95323286Y-77519142D01*
X95323291Y-77519144D01*
X95508448Y-77558500D01*
X95508449Y-77558500D01*
X95697738Y-77558500D01*
X95697740Y-77558500D01*
X95882897Y-77519144D01*
X96055824Y-77442151D01*
X96208965Y-77330888D01*
X96335627Y-77190216D01*
X96430273Y-77026284D01*
X96488768Y-76846256D01*
X96508554Y-76658000D01*
X96488768Y-76469744D01*
X96430273Y-76289716D01*
X96335627Y-76125784D01*
X96208965Y-75985112D01*
X96187177Y-75969282D01*
X96055828Y-75873851D01*
X96055823Y-75873848D01*
X95882901Y-75796857D01*
X95882896Y-75796855D01*
X95709492Y-75759998D01*
X95697740Y-75757500D01*
X95621896Y-75757500D01*
X95554857Y-75737815D01*
X95509102Y-75685011D01*
X95499158Y-75615853D01*
X95528183Y-75552297D01*
X95534215Y-75545819D01*
X95667872Y-75412163D01*
X95979467Y-75100567D01*
X96040791Y-75067082D01*
X96067149Y-75064248D01*
X97316459Y-75064248D01*
X97383498Y-75083933D01*
X97429253Y-75136737D01*
X97439197Y-75205895D01*
X97431020Y-75235700D01*
X97368005Y-75387832D01*
X97368003Y-75387837D01*
X97364801Y-75412163D01*
X97347366Y-75544598D01*
X97347422Y-75545021D01*
X97352016Y-75579930D01*
X97352547Y-75588029D01*
X97352547Y-77683405D01*
X97332862Y-77750444D01*
X97316228Y-77771086D01*
X96466134Y-78621181D01*
X96404811Y-78654666D01*
X96378453Y-78657500D01*
X96339159Y-78657500D01*
X96308504Y-78664015D01*
X96164283Y-78694670D01*
X96164278Y-78694672D01*
X96000958Y-78767387D01*
X95856318Y-78872475D01*
X95736689Y-79005336D01*
X95736687Y-79005339D01*
X95708663Y-79053880D01*
X95658097Y-79102096D01*
X95601276Y-79115881D01*
X95534421Y-79115881D01*
X95503766Y-79122396D01*
X95359545Y-79153051D01*
X95359540Y-79153053D01*
X95273152Y-79191515D01*
X95203902Y-79200799D01*
X95140626Y-79171170D01*
X95135037Y-79165916D01*
X94865758Y-78896637D01*
X94579662Y-78610541D01*
X94574322Y-78604451D01*
X94552624Y-78576174D01*
X94427183Y-78479920D01*
X94427178Y-78479917D01*
X94395266Y-78466699D01*
X94350570Y-78435111D01*
X94257339Y-78331568D01*
X94221428Y-78305477D01*
X94104202Y-78220307D01*
X94104197Y-78220304D01*
X93931275Y-78143313D01*
X93931270Y-78143311D01*
X93785469Y-78112321D01*
X93746114Y-78103956D01*
X93556822Y-78103956D01*
X93524365Y-78110854D01*
X93371665Y-78143311D01*
X93371660Y-78143313D01*
X93198738Y-78220304D01*
X93198733Y-78220307D01*
X93045597Y-78331567D01*
X92918934Y-78472241D01*
X92824289Y-78636171D01*
X92824287Y-78636175D01*
X92775128Y-78787471D01*
X92735690Y-78845146D01*
X92671331Y-78872344D01*
X92602485Y-78860429D01*
X92583547Y-78847609D01*
X92583033Y-78848318D01*
X92424638Y-78733237D01*
X92424633Y-78733234D01*
X92251711Y-78656243D01*
X92251706Y-78656241D01*
X92103783Y-78624800D01*
X92066550Y-78616886D01*
X91877258Y-78616886D01*
X91844801Y-78623784D01*
X91692101Y-78656241D01*
X91692096Y-78656243D01*
X91519174Y-78733234D01*
X91519169Y-78733237D01*
X91366033Y-78844497D01*
X91239369Y-78985171D01*
X91224087Y-79011642D01*
X91173520Y-79059858D01*
X91104913Y-79073081D01*
X91040048Y-79047112D01*
X90999520Y-78990198D01*
X90992700Y-78949642D01*
X90992700Y-72925266D01*
X91009313Y-72863266D01*
X91024017Y-72837798D01*
X91069925Y-72758284D01*
X91128420Y-72578256D01*
X91148206Y-72390000D01*
X91128420Y-72201744D01*
X91069925Y-72021716D01*
X90975279Y-71857784D01*
X90848617Y-71717112D01*
X90784391Y-71670449D01*
X90695480Y-71605851D01*
X90695475Y-71605848D01*
X90522553Y-71528857D01*
X90522548Y-71528855D01*
X90372183Y-71496895D01*
X90337392Y-71489500D01*
X90148100Y-71489500D01*
X90115643Y-71496398D01*
X89962943Y-71528855D01*
X89962938Y-71528857D01*
X89790016Y-71605848D01*
X89790011Y-71605851D01*
X89636875Y-71717111D01*
X89510212Y-71857785D01*
X89415567Y-72021715D01*
X89415564Y-72021722D01*
X89357200Y-72201350D01*
X89357072Y-72201744D01*
X89342329Y-72342022D01*
X89341284Y-72351964D01*
X89314699Y-72416578D01*
X89257402Y-72456563D01*
X89243745Y-72460292D01*
X89204396Y-72468656D01*
X89204392Y-72468657D01*
X89031470Y-72545648D01*
X89031465Y-72545651D01*
X88878329Y-72656911D01*
X88751666Y-72797585D01*
X88657021Y-72961515D01*
X88657018Y-72961522D01*
X88614631Y-73091977D01*
X88575193Y-73149653D01*
X88510835Y-73176851D01*
X88470920Y-73174949D01*
X88308846Y-73140500D01*
X88119554Y-73140500D01*
X88087097Y-73147398D01*
X87934397Y-73179855D01*
X87934392Y-73179857D01*
X87761470Y-73256848D01*
X87761465Y-73256851D01*
X87608329Y-73368111D01*
X87481666Y-73508785D01*
X87387021Y-73672715D01*
X87387018Y-73672722D01*
X87328527Y-73852740D01*
X87328526Y-73852744D01*
X87308740Y-74041000D01*
X87324698Y-74192836D01*
X87328527Y-74229261D01*
X87329878Y-74235617D01*
X87328077Y-74235999D01*
X87329810Y-74296940D01*
X87293721Y-74356768D01*
X87231015Y-74387587D01*
X87161602Y-74379612D01*
X87137005Y-74365719D01*
X87054305Y-74305634D01*
X86890979Y-74232917D01*
X86890977Y-74232916D01*
X86763306Y-74205779D01*
X86716103Y-74195746D01*
X86596746Y-74195746D01*
X86529707Y-74176061D01*
X86483952Y-74123257D01*
X86473426Y-74084711D01*
X86464756Y-74002224D01*
X86411134Y-73837189D01*
X86396475Y-73811800D01*
X86380002Y-73743903D01*
X86396475Y-73687799D01*
X86411134Y-73662411D01*
X86464756Y-73497376D01*
X86482895Y-73324800D01*
X86464756Y-73152224D01*
X86411134Y-72987189D01*
X86396475Y-72961800D01*
X86380002Y-72893903D01*
X86396475Y-72837799D01*
X86411134Y-72812411D01*
X86464756Y-72647376D01*
X86482895Y-72474800D01*
X86464756Y-72302224D01*
X86429008Y-72192200D01*
X86411135Y-72137191D01*
X86402601Y-72122410D01*
X86396185Y-72111298D01*
X86379713Y-72043399D01*
X86396187Y-71987297D01*
X86410674Y-71962204D01*
X86464262Y-71797276D01*
X86464263Y-71797273D01*
X86482391Y-71624800D01*
X86464263Y-71452326D01*
X86464262Y-71452323D01*
X86410674Y-71287395D01*
X86386197Y-71245002D01*
X86041171Y-71590028D01*
X85979848Y-71623513D01*
X85910156Y-71618529D01*
X85854223Y-71576657D01*
X85841770Y-71556148D01*
X85813236Y-71496896D01*
X85741856Y-71439973D01*
X85729267Y-71433911D01*
X85730755Y-71430819D01*
X85689767Y-71407889D01*
X85656914Y-71346225D01*
X85662613Y-71276588D01*
X85690663Y-71233431D01*
X86000037Y-70924057D01*
X86061360Y-70890572D01*
X86124287Y-70895072D01*
X86145094Y-70893752D01*
X86233216Y-70779908D01*
X86233218Y-70779905D01*
X86318305Y-70606443D01*
X86339444Y-70524800D01*
X85827827Y-70524800D01*
X85760788Y-70505115D01*
X85715033Y-70452311D01*
X85705089Y-70383153D01*
X85708561Y-70366866D01*
X85726742Y-70302962D01*
X85726743Y-70302960D01*
X85716394Y-70191282D01*
X85716394Y-70191279D01*
X85716392Y-70191275D01*
X85713963Y-70182737D01*
X85714549Y-70112870D01*
X85752814Y-70054410D01*
X85816611Y-70025919D01*
X85833229Y-70024800D01*
X86343319Y-70024800D01*
X86280162Y-69854272D01*
X86280160Y-69854268D01*
X86177955Y-69690296D01*
X86044845Y-69550265D01*
X86044844Y-69550264D01*
X85886261Y-69439886D01*
X85708710Y-69363693D01*
X85519454Y-69324800D01*
X84922848Y-69324800D01*
X84922848Y-69850800D01*
X84903163Y-69917839D01*
X84850359Y-69963594D01*
X84798848Y-69974800D01*
X84546848Y-69974800D01*
X84479809Y-69955115D01*
X84434054Y-69902311D01*
X84422848Y-69850800D01*
X84422848Y-69324800D01*
X83874672Y-69324800D01*
X83730626Y-69339447D01*
X83546286Y-69397284D01*
X83546276Y-69397289D01*
X83377349Y-69491051D01*
X83377342Y-69491056D01*
X83230742Y-69616907D01*
X83112479Y-69769690D01*
X83112477Y-69769694D01*
X83027390Y-69943156D01*
X83006252Y-70024800D01*
X83517869Y-70024800D01*
X83584908Y-70044485D01*
X83630663Y-70097289D01*
X83640607Y-70166447D01*
X83637135Y-70182734D01*
X83618953Y-70246637D01*
X83618952Y-70246637D01*
X83629301Y-70358317D01*
X83631733Y-70366863D01*
X83631147Y-70436730D01*
X83592882Y-70495190D01*
X83529085Y-70523681D01*
X83512467Y-70524800D01*
X83002377Y-70524800D01*
X83065533Y-70695327D01*
X83065535Y-70695331D01*
X83167740Y-70859303D01*
X83300850Y-70999334D01*
X83300851Y-70999335D01*
X83459434Y-71109713D01*
X83503199Y-71128494D01*
X83557043Y-71173021D01*
X83578266Y-71239589D01*
X83570077Y-71280579D01*
X83572030Y-71281214D01*
X83516433Y-71452323D01*
X83516432Y-71452326D01*
X83498304Y-71624800D01*
X83516432Y-71797273D01*
X83516433Y-71797276D01*
X83570022Y-71962207D01*
X83570023Y-71962209D01*
X83585952Y-71989799D01*
X83602425Y-72057700D01*
X83585953Y-72113797D01*
X83569562Y-72142187D01*
X83569561Y-72142189D01*
X83515941Y-72307220D01*
X83515940Y-72307224D01*
X83497801Y-72479800D01*
X83515940Y-72652376D01*
X83515941Y-72652379D01*
X83569561Y-72817410D01*
X83569564Y-72817416D01*
X83584220Y-72842802D01*
X83600691Y-72910702D01*
X83584220Y-72966798D01*
X83569564Y-72992183D01*
X83569561Y-72992189D01*
X83515941Y-73157220D01*
X83515940Y-73157224D01*
X83500585Y-73303305D01*
X83498327Y-73324800D01*
X83497801Y-73329800D01*
X83515940Y-73502376D01*
X83515941Y-73502379D01*
X83569561Y-73667410D01*
X83569564Y-73667416D01*
X83584220Y-73692802D01*
X83600691Y-73760702D01*
X83584220Y-73816798D01*
X83569564Y-73842183D01*
X83569561Y-73842189D01*
X83515941Y-74007220D01*
X83515940Y-74007224D01*
X83504001Y-74120815D01*
X83497801Y-74179803D01*
X83499171Y-74192836D01*
X83486604Y-74261566D01*
X83438872Y-74312591D01*
X83375851Y-74329800D01*
X83207722Y-74329800D01*
X83193293Y-74332867D01*
X83032846Y-74366970D01*
X83032841Y-74366972D01*
X82869521Y-74439687D01*
X82724881Y-74544775D01*
X82605253Y-74677636D01*
X82515863Y-74832464D01*
X82515860Y-74832470D01*
X82460617Y-75002492D01*
X82460616Y-75002494D01*
X82441928Y-75180299D01*
X82460616Y-75358105D01*
X82460617Y-75358107D01*
X82515860Y-75528129D01*
X82515863Y-75528135D01*
X82565935Y-75614861D01*
X82582548Y-75676861D01*
X82582548Y-76299078D01*
X82565935Y-76361078D01*
X82551798Y-76385563D01*
X82496552Y-76555592D01*
X82496551Y-76555594D01*
X82477863Y-76733400D01*
X82496551Y-76911205D01*
X82496552Y-76911207D01*
X82551795Y-77081229D01*
X82551798Y-77081235D01*
X82641189Y-77236065D01*
X82682860Y-77282346D01*
X82760812Y-77368921D01*
X82760815Y-77368923D01*
X82760818Y-77368926D01*
X82905455Y-77474012D01*
X83068781Y-77546729D01*
X83243657Y-77583900D01*
X83243658Y-77583900D01*
X83387085Y-77583900D01*
X83454124Y-77603585D01*
X83499879Y-77656389D01*
X83510406Y-77694937D01*
X83516433Y-77752274D01*
X83516433Y-77752276D01*
X83570633Y-77919088D01*
X83572628Y-77988930D01*
X83536547Y-78048762D01*
X83512880Y-78065825D01*
X83377349Y-78141051D01*
X83377342Y-78141056D01*
X83230742Y-78266907D01*
X83112479Y-78419690D01*
X83112477Y-78419694D01*
X83027390Y-78593156D01*
X83006252Y-78674800D01*
X83517869Y-78674800D01*
X83584908Y-78694485D01*
X83630663Y-78747289D01*
X83640607Y-78816447D01*
X83637135Y-78832734D01*
X83618953Y-78896637D01*
X83618952Y-78896637D01*
X83629301Y-79008317D01*
X83631733Y-79016863D01*
X83631147Y-79086730D01*
X83592882Y-79145190D01*
X83529085Y-79173681D01*
X83512467Y-79174800D01*
X83002377Y-79174800D01*
X83065533Y-79345327D01*
X83065535Y-79345331D01*
X83167740Y-79509303D01*
X83300850Y-79649334D01*
X83300851Y-79649335D01*
X83459434Y-79759713D01*
X83636985Y-79835906D01*
X83826242Y-79874800D01*
X84422848Y-79874800D01*
X84422848Y-79348800D01*
X84442533Y-79281761D01*
X84495337Y-79236006D01*
X84546848Y-79224800D01*
X84798848Y-79224800D01*
X84865887Y-79244485D01*
X84911642Y-79297289D01*
X84922848Y-79348800D01*
X84922848Y-79874800D01*
X85471024Y-79874800D01*
X85615069Y-79860152D01*
X85799409Y-79802315D01*
X85799419Y-79802310D01*
X85968346Y-79708548D01*
X85968353Y-79708543D01*
X86114953Y-79582692D01*
X86233216Y-79429909D01*
X86233218Y-79429905D01*
X86318305Y-79256443D01*
X86339444Y-79174800D01*
X85827827Y-79174800D01*
X85760788Y-79155115D01*
X85715033Y-79102311D01*
X85705089Y-79033153D01*
X85708561Y-79016866D01*
X85726742Y-78952962D01*
X85726743Y-78952960D01*
X85719285Y-78872474D01*
X85716394Y-78841279D01*
X85716392Y-78841275D01*
X85713963Y-78832737D01*
X85714549Y-78762870D01*
X85752814Y-78704410D01*
X85816611Y-78675919D01*
X85833229Y-78674800D01*
X86343319Y-78674800D01*
X86280162Y-78504272D01*
X86280160Y-78504268D01*
X86177957Y-78340299D01*
X86145152Y-78305788D01*
X86120575Y-78305477D01*
X86114076Y-78309027D01*
X86044384Y-78304043D01*
X86000037Y-78275542D01*
X85690663Y-77966168D01*
X85657178Y-77904845D01*
X85662162Y-77835153D01*
X85704034Y-77779220D01*
X85729996Y-77767204D01*
X85729267Y-77765689D01*
X85741852Y-77759627D01*
X85741856Y-77759627D01*
X85813235Y-77702705D01*
X85813235Y-77702704D01*
X85824158Y-77693994D01*
X85826905Y-77697439D01*
X85862531Y-77672410D01*
X85932341Y-77669528D01*
X85992628Y-77704846D01*
X85994494Y-77706873D01*
X86028001Y-77744087D01*
X86028004Y-77744089D01*
X86028007Y-77744092D01*
X86172644Y-77849178D01*
X86335970Y-77921895D01*
X86335971Y-77921895D01*
X86341907Y-77924538D01*
X86341321Y-77925852D01*
X86382982Y-77951381D01*
X86386197Y-77954596D01*
X86429064Y-77948953D01*
X86471024Y-77950601D01*
X86510846Y-77959066D01*
X86510849Y-77959066D01*
X86689626Y-77959066D01*
X86689628Y-77959066D01*
X86864504Y-77921895D01*
X87027830Y-77849178D01*
X87172467Y-77744092D01*
X87180864Y-77734767D01*
X87209732Y-77702705D01*
X87292096Y-77611231D01*
X87381487Y-77456401D01*
X87436734Y-77286369D01*
X87455422Y-77108566D01*
X87436734Y-76930763D01*
X87381487Y-76760731D01*
X87292096Y-76605901D01*
X87292092Y-76605895D01*
X87232587Y-76539808D01*
X87202357Y-76476816D01*
X87200737Y-76456836D01*
X87200737Y-75727377D01*
X87220422Y-75660338D01*
X87232580Y-75644412D01*
X87318571Y-75548911D01*
X87407962Y-75394081D01*
X87463209Y-75224049D01*
X87481897Y-75046246D01*
X87463209Y-74868443D01*
X87463208Y-74868440D01*
X87462735Y-74863939D01*
X87475304Y-74795209D01*
X87523036Y-74744185D01*
X87590776Y-74727067D01*
X87657018Y-74749289D01*
X87658848Y-74750592D01*
X87753118Y-74819083D01*
X87761470Y-74825151D01*
X87934391Y-74902142D01*
X87934393Y-74902142D01*
X87934397Y-74902144D01*
X88100485Y-74937446D01*
X88161962Y-74970637D01*
X88195739Y-75031799D01*
X88198700Y-75058735D01*
X88198700Y-81191300D01*
X88179015Y-81258339D01*
X88126211Y-81304094D01*
X88074700Y-81315300D01*
X87951375Y-81315300D01*
X87884336Y-81295615D01*
X87878490Y-81291618D01*
X87727134Y-81181651D01*
X87727129Y-81181648D01*
X87554207Y-81104657D01*
X87554202Y-81104655D01*
X87408401Y-81073665D01*
X87369046Y-81065300D01*
X87179754Y-81065300D01*
X87147297Y-81072198D01*
X86994597Y-81104655D01*
X86994592Y-81104657D01*
X86821670Y-81181648D01*
X86821665Y-81181651D01*
X86668529Y-81292911D01*
X86541866Y-81433585D01*
X86447221Y-81597515D01*
X86447218Y-81597522D01*
X86388727Y-81777540D01*
X86388726Y-81777544D01*
X86368940Y-81965800D01*
X86388726Y-82154056D01*
X86388727Y-82154059D01*
X86447218Y-82334077D01*
X86447221Y-82334084D01*
X86541867Y-82498016D01*
X86668528Y-82638688D01*
X86668529Y-82638688D01*
X86821665Y-82749948D01*
X86821670Y-82749951D01*
X86994592Y-82826942D01*
X86994593Y-82826942D01*
X86994597Y-82826944D01*
X87037120Y-82835982D01*
X87057728Y-82840363D01*
X87119210Y-82873555D01*
X87152987Y-82934718D01*
X87148335Y-83004432D01*
X87119629Y-83049334D01*
X83515096Y-86653868D01*
X83508994Y-86659219D01*
X83480716Y-86680918D01*
X83419716Y-86760418D01*
X83384462Y-86806362D01*
X83384461Y-86806363D01*
X83323957Y-86952434D01*
X83323955Y-86952439D01*
X83303318Y-87109198D01*
X83303318Y-87109199D01*
X83307969Y-87144526D01*
X83308500Y-87152628D01*
X83308500Y-96689703D01*
X83288815Y-96756742D01*
X83272181Y-96777384D01*
X82235984Y-97813581D01*
X82174661Y-97847066D01*
X82148303Y-97849900D01*
X81980858Y-97849900D01*
X81913819Y-97830215D01*
X81888709Y-97808873D01*
X81860471Y-97777512D01*
X81860464Y-97777506D01*
X81707334Y-97666251D01*
X81707329Y-97666248D01*
X81534407Y-97589257D01*
X81534402Y-97589255D01*
X81384126Y-97557314D01*
X81349246Y-97549900D01*
X81159954Y-97549900D01*
X81127497Y-97556798D01*
X80974797Y-97589255D01*
X80974792Y-97589257D01*
X80801870Y-97666248D01*
X80801865Y-97666251D01*
X80648729Y-97777511D01*
X80522066Y-97918185D01*
X80427421Y-98082115D01*
X80427418Y-98082122D01*
X80368927Y-98262140D01*
X80368926Y-98262144D01*
X80349140Y-98450400D01*
X80368926Y-98638656D01*
X80368927Y-98638659D01*
X80427418Y-98818677D01*
X80427421Y-98818684D01*
X80522067Y-98982616D01*
X80648729Y-99123288D01*
X80801865Y-99234548D01*
X80801867Y-99234549D01*
X80801870Y-99234551D01*
X80843745Y-99253195D01*
X80896981Y-99298446D01*
X80917302Y-99365295D01*
X80916629Y-99379431D01*
X80913352Y-99410619D01*
X80913352Y-99410623D01*
X80933138Y-99598879D01*
X80933139Y-99598882D01*
X80991630Y-99778900D01*
X80991633Y-99778907D01*
X81086279Y-99942839D01*
X81212941Y-100083511D01*
X81366077Y-100194771D01*
X81366082Y-100194774D01*
X81539003Y-100271765D01*
X81539005Y-100271765D01*
X81539009Y-100271767D01*
X81718007Y-100309813D01*
X81779484Y-100343004D01*
X81799607Y-100369100D01*
X81893667Y-100532016D01*
X82020328Y-100672688D01*
X82020329Y-100672688D01*
X82173465Y-100783948D01*
X82173470Y-100783951D01*
X82346392Y-100860942D01*
X82346397Y-100860944D01*
X82531554Y-100900300D01*
X82531555Y-100900300D01*
X82720844Y-100900300D01*
X82720846Y-100900300D01*
X82906003Y-100860944D01*
X83078930Y-100783951D01*
X83232071Y-100672688D01*
X83358733Y-100532016D01*
X83453379Y-100368084D01*
X83511874Y-100188056D01*
X83531660Y-99999800D01*
X83511874Y-99811544D01*
X83453379Y-99631516D01*
X83425737Y-99583640D01*
X83409265Y-99515741D01*
X83432118Y-99449714D01*
X83445438Y-99433966D01*
X85102922Y-97776482D01*
X85108999Y-97771154D01*
X85137282Y-97749453D01*
X85233536Y-97624012D01*
X85294044Y-97477933D01*
X85309500Y-97360532D01*
X85314682Y-97321171D01*
X85310030Y-97285840D01*
X85309500Y-97277742D01*
X85309500Y-88006296D01*
X85329185Y-87939257D01*
X85345819Y-87918615D01*
X85877978Y-87386456D01*
X86512922Y-86751511D01*
X86574243Y-86718028D01*
X86643935Y-86723012D01*
X86699868Y-86764884D01*
X86707988Y-86777194D01*
X86724829Y-86806363D01*
X86738427Y-86829916D01*
X86745066Y-86841414D01*
X86745065Y-86841414D01*
X86871729Y-86982088D01*
X87024865Y-87093348D01*
X87024870Y-87093351D01*
X87197792Y-87170342D01*
X87197797Y-87170344D01*
X87382954Y-87209700D01*
X87382955Y-87209700D01*
X87572244Y-87209700D01*
X87572246Y-87209700D01*
X87757403Y-87170344D01*
X87930330Y-87093351D01*
X87932376Y-87091864D01*
X87944052Y-87083382D01*
X88009858Y-87059902D01*
X88016937Y-87059700D01*
X89697811Y-87059700D01*
X89764850Y-87079385D01*
X89770696Y-87083382D01*
X89784413Y-87093348D01*
X89784418Y-87093351D01*
X89957340Y-87170342D01*
X89957345Y-87170344D01*
X90142502Y-87209700D01*
X90142503Y-87209700D01*
X90331792Y-87209700D01*
X90331794Y-87209700D01*
X90516951Y-87170344D01*
X90625532Y-87122000D01*
X93608640Y-87122000D01*
X93628426Y-87310256D01*
X93628427Y-87310259D01*
X93686918Y-87490277D01*
X93686921Y-87490284D01*
X93781567Y-87654216D01*
X93850178Y-87730416D01*
X93908229Y-87794888D01*
X94061365Y-87906148D01*
X94061370Y-87906151D01*
X94234292Y-87983142D01*
X94234297Y-87983144D01*
X94419454Y-88022500D01*
X94419455Y-88022500D01*
X94608744Y-88022500D01*
X94608746Y-88022500D01*
X94793903Y-87983144D01*
X94847188Y-87959419D01*
X94897623Y-87948700D01*
X96273763Y-87948700D01*
X96340802Y-87968385D01*
X96346648Y-87972382D01*
X96360365Y-87982348D01*
X96360370Y-87982351D01*
X96533292Y-88059342D01*
X96533297Y-88059344D01*
X96718454Y-88098700D01*
X96718455Y-88098700D01*
X96907744Y-88098700D01*
X96907746Y-88098700D01*
X97092903Y-88059344D01*
X97265830Y-87982351D01*
X97418971Y-87871088D01*
X97545633Y-87730416D01*
X97640279Y-87566484D01*
X97698774Y-87386456D01*
X97718560Y-87198200D01*
X97698774Y-87009944D01*
X97640279Y-86829916D01*
X97545633Y-86665984D01*
X97418971Y-86525312D01*
X97418970Y-86525311D01*
X97265834Y-86414051D01*
X97265829Y-86414048D01*
X97092907Y-86337057D01*
X97092902Y-86337055D01*
X96947100Y-86306065D01*
X96907746Y-86297700D01*
X96718454Y-86297700D01*
X96685997Y-86304598D01*
X96533297Y-86337055D01*
X96533292Y-86337057D01*
X96360370Y-86414048D01*
X96360365Y-86414051D01*
X96346648Y-86424018D01*
X96280842Y-86447498D01*
X96273763Y-86447700D01*
X95158317Y-86447700D01*
X95091278Y-86428015D01*
X95085432Y-86424018D01*
X94966834Y-86337851D01*
X94966829Y-86337848D01*
X94793907Y-86260857D01*
X94793902Y-86260855D01*
X94648101Y-86229865D01*
X94608746Y-86221500D01*
X94419454Y-86221500D01*
X94386997Y-86228398D01*
X94234297Y-86260855D01*
X94234292Y-86260857D01*
X94061370Y-86337848D01*
X94061365Y-86337851D01*
X93908229Y-86449111D01*
X93781566Y-86589785D01*
X93686921Y-86753715D01*
X93686918Y-86753722D01*
X93628427Y-86933740D01*
X93628426Y-86933744D01*
X93608640Y-87122000D01*
X90625532Y-87122000D01*
X90689878Y-87093351D01*
X90843019Y-86982088D01*
X90969681Y-86841416D01*
X91064327Y-86677484D01*
X91122822Y-86497456D01*
X91142608Y-86309200D01*
X91122822Y-86120944D01*
X91064327Y-85940916D01*
X90969681Y-85776984D01*
X90969680Y-85776982D01*
X90966416Y-85772491D01*
X90942933Y-85706686D01*
X90958754Y-85638631D01*
X90966416Y-85626709D01*
X90969676Y-85622221D01*
X90969681Y-85622216D01*
X91064327Y-85458284D01*
X91122822Y-85278256D01*
X91142608Y-85090000D01*
X91122822Y-84901744D01*
X91064327Y-84721716D01*
X90969681Y-84557784D01*
X90843019Y-84417112D01*
X90843018Y-84417111D01*
X90689882Y-84305851D01*
X90689877Y-84305848D01*
X90516955Y-84228857D01*
X90516950Y-84228855D01*
X90371149Y-84197865D01*
X90331794Y-84189500D01*
X90142502Y-84189500D01*
X90110045Y-84196398D01*
X89957345Y-84228855D01*
X89957340Y-84228857D01*
X89784418Y-84305848D01*
X89784413Y-84305851D01*
X89631277Y-84417111D01*
X89509398Y-84552472D01*
X89449911Y-84589121D01*
X89417248Y-84593500D01*
X88970296Y-84593500D01*
X88903257Y-84573815D01*
X88857502Y-84521011D01*
X88847558Y-84451853D01*
X88876583Y-84388297D01*
X88882615Y-84381819D01*
X89739033Y-83525401D01*
X92365826Y-80898607D01*
X92371903Y-80893279D01*
X92400186Y-80871578D01*
X92496440Y-80746137D01*
X92556948Y-80600058D01*
X92569375Y-80505664D01*
X92577586Y-80443296D01*
X92572934Y-80407965D01*
X92572404Y-80399867D01*
X92572404Y-80243838D01*
X92592089Y-80176799D01*
X92604254Y-80160866D01*
X92641835Y-80119128D01*
X92704437Y-80049602D01*
X92799083Y-79885670D01*
X92848243Y-79734370D01*
X92887680Y-79676696D01*
X92952039Y-79649497D01*
X93020885Y-79661411D01*
X93039824Y-79674232D01*
X93040339Y-79673524D01*
X93198733Y-79788604D01*
X93198738Y-79788607D01*
X93371660Y-79865598D01*
X93371665Y-79865600D01*
X93556822Y-79904956D01*
X93556823Y-79904956D01*
X93746112Y-79904956D01*
X93746114Y-79904956D01*
X93931271Y-79865600D01*
X93995248Y-79837114D01*
X94064495Y-79827829D01*
X94127772Y-79857457D01*
X94133364Y-79862713D01*
X94362646Y-80091995D01*
X94396131Y-80153318D01*
X94391147Y-80223010D01*
X94349275Y-80278943D01*
X94298526Y-80298856D01*
X94299014Y-80301149D01*
X94292658Y-80302500D01*
X94292657Y-80302500D01*
X94266264Y-80308109D01*
X94117781Y-80339670D01*
X94117776Y-80339672D01*
X93954456Y-80412387D01*
X93809816Y-80517475D01*
X93690188Y-80650336D01*
X93600798Y-80805164D01*
X93600795Y-80805170D01*
X93545552Y-80975192D01*
X93545551Y-80975194D01*
X93526863Y-81153000D01*
X93545551Y-81330805D01*
X93545552Y-81330807D01*
X93600795Y-81500829D01*
X93600798Y-81500835D01*
X93661024Y-81605150D01*
X93664135Y-81610537D01*
X93680748Y-81672537D01*
X93680748Y-83477802D01*
X93661063Y-83544841D01*
X93648899Y-83560773D01*
X93639388Y-83571336D01*
X93549998Y-83726164D01*
X93549995Y-83726170D01*
X93494752Y-83896192D01*
X93494751Y-83896194D01*
X93476063Y-84074000D01*
X93494751Y-84251805D01*
X93494752Y-84251807D01*
X93549995Y-84421829D01*
X93549998Y-84421835D01*
X93639389Y-84576665D01*
X93669191Y-84609763D01*
X93759012Y-84709521D01*
X93759015Y-84709523D01*
X93759018Y-84709526D01*
X93903655Y-84814612D01*
X94066981Y-84887329D01*
X94241857Y-84924500D01*
X94241858Y-84924500D01*
X94420637Y-84924500D01*
X94420639Y-84924500D01*
X94595515Y-84887329D01*
X94758841Y-84814612D01*
X94903478Y-84709526D01*
X95023107Y-84576665D01*
X95112498Y-84421835D01*
X95167745Y-84251803D01*
X95186433Y-84074000D01*
X95167745Y-83896197D01*
X95132251Y-83786959D01*
X95112500Y-83726170D01*
X95112497Y-83726164D01*
X95023107Y-83571335D01*
X95013597Y-83560773D01*
X94983368Y-83497782D01*
X94981748Y-83477802D01*
X94981748Y-81805616D01*
X95001433Y-81738577D01*
X95013599Y-81722643D01*
X95036011Y-81697752D01*
X95073907Y-81655665D01*
X95163298Y-81500835D01*
X95218545Y-81330803D01*
X95237233Y-81153000D01*
X95218545Y-80975197D01*
X95218543Y-80975193D01*
X95218543Y-80975190D01*
X95206091Y-80936869D01*
X95204094Y-80867028D01*
X95240174Y-80807195D01*
X95302874Y-80776365D01*
X95352852Y-80779938D01*
X95353188Y-80778359D01*
X95445479Y-80797976D01*
X95534421Y-80816881D01*
X95534422Y-80816881D01*
X95713201Y-80816881D01*
X95713203Y-80816881D01*
X95888079Y-80779710D01*
X96051405Y-80706993D01*
X96111443Y-80663372D01*
X96177250Y-80639891D01*
X96245304Y-80655716D01*
X96293999Y-80705821D01*
X96307651Y-80750727D01*
X96308063Y-80754648D01*
X96308063Y-80754650D01*
X96313373Y-80805170D01*
X96326751Y-80932455D01*
X96326752Y-80932457D01*
X96381995Y-81102479D01*
X96381998Y-81102485D01*
X96471389Y-81257315D01*
X96502276Y-81291618D01*
X96591012Y-81390171D01*
X96591015Y-81390173D01*
X96591018Y-81390176D01*
X96735655Y-81495262D01*
X96898981Y-81567979D01*
X96898983Y-81567979D01*
X96898984Y-81567980D01*
X96983752Y-81585997D01*
X97063006Y-81602843D01*
X97124487Y-81636035D01*
X97124906Y-81636452D01*
X97717312Y-82228858D01*
X97750797Y-82290181D01*
X97745813Y-82359873D01*
X97703941Y-82415806D01*
X97702516Y-82416857D01*
X97641329Y-82461311D01*
X97514666Y-82601985D01*
X97420021Y-82765915D01*
X97420018Y-82765922D01*
X97361527Y-82945940D01*
X97361526Y-82945944D01*
X97341740Y-83134200D01*
X97361526Y-83322456D01*
X97361527Y-83322459D01*
X97420018Y-83502477D01*
X97420021Y-83502484D01*
X97514667Y-83666416D01*
X97618557Y-83781797D01*
X97641329Y-83807088D01*
X97794465Y-83918348D01*
X97794470Y-83918351D01*
X97967392Y-83995342D01*
X97967397Y-83995344D01*
X98152554Y-84034700D01*
X98152555Y-84034700D01*
X98341844Y-84034700D01*
X98341846Y-84034700D01*
X98527003Y-83995344D01*
X98699930Y-83918351D01*
X98851289Y-83808382D01*
X98917096Y-83784902D01*
X98924175Y-83784700D01*
X100676295Y-83784700D01*
X100692305Y-83786467D01*
X100692328Y-83786226D01*
X100700089Y-83786958D01*
X100700096Y-83786960D01*
X100772003Y-83784700D01*
X100802725Y-83784700D01*
X100809990Y-83783781D01*
X100815816Y-83783322D01*
X100864369Y-83781797D01*
X100884756Y-83775873D01*
X100903796Y-83771931D01*
X100924858Y-83769271D01*
X100970035Y-83751383D01*
X100975535Y-83749500D01*
X101022198Y-83735944D01*
X101040465Y-83725139D01*
X101057936Y-83716580D01*
X101077671Y-83708768D01*
X101116977Y-83680210D01*
X101121843Y-83677013D01*
X101163665Y-83652281D01*
X101178670Y-83637275D01*
X101193468Y-83624636D01*
X101210637Y-83612163D01*
X101241609Y-83574722D01*
X101245513Y-83570431D01*
X102421326Y-82394619D01*
X102482650Y-82361134D01*
X102509008Y-82358300D01*
X102532844Y-82358300D01*
X102532846Y-82358300D01*
X102718003Y-82318944D01*
X102890930Y-82241951D01*
X103044071Y-82130688D01*
X103170733Y-81990016D01*
X103265379Y-81826084D01*
X103323874Y-81646056D01*
X103343660Y-81457800D01*
X103323874Y-81269544D01*
X103265379Y-81089516D01*
X103170733Y-80925584D01*
X103044071Y-80784912D01*
X103002419Y-80754650D01*
X102890934Y-80673651D01*
X102890929Y-80673648D01*
X102718007Y-80596657D01*
X102718002Y-80596655D01*
X102559046Y-80562869D01*
X102532846Y-80557300D01*
X102343554Y-80557300D01*
X102332310Y-80559690D01*
X102158397Y-80596655D01*
X102158392Y-80596657D01*
X101985470Y-80673648D01*
X101985465Y-80673651D01*
X101832329Y-80784911D01*
X101705666Y-80925585D01*
X101611021Y-81089515D01*
X101611018Y-81089522D01*
X101552527Y-81269539D01*
X101552526Y-81269541D01*
X101547717Y-81315300D01*
X101539536Y-81393141D01*
X101539031Y-81397942D01*
X101512446Y-81462557D01*
X101503391Y-81472661D01*
X100528673Y-82447381D01*
X100467350Y-82480866D01*
X100440992Y-82483700D01*
X100363509Y-82483700D01*
X100296470Y-82464015D01*
X100250715Y-82411211D01*
X100240771Y-82342053D01*
X100245578Y-82321382D01*
X100246371Y-82318942D01*
X100267379Y-82254286D01*
X100287165Y-82066030D01*
X100267379Y-81877774D01*
X100208884Y-81697746D01*
X100114238Y-81533814D01*
X99987576Y-81393142D01*
X99983487Y-81390171D01*
X99834439Y-81281881D01*
X99834434Y-81281878D01*
X99661512Y-81204887D01*
X99661507Y-81204885D01*
X99515706Y-81173895D01*
X99476351Y-81165530D01*
X99287059Y-81165530D01*
X99254602Y-81172428D01*
X99101902Y-81204885D01*
X99101897Y-81204887D01*
X98928975Y-81281878D01*
X98928970Y-81281881D01*
X98830036Y-81353761D01*
X98764229Y-81377241D01*
X98696176Y-81361415D01*
X98669470Y-81341124D01*
X98041899Y-80713553D01*
X98008414Y-80652230D01*
X98006261Y-80638850D01*
X97999745Y-80576847D01*
X97964718Y-80469046D01*
X97944500Y-80406820D01*
X97944497Y-80406814D01*
X97855107Y-80251985D01*
X97787409Y-80176799D01*
X97735483Y-80119128D01*
X97735480Y-80119126D01*
X97735479Y-80119125D01*
X97735478Y-80119124D01*
X97590841Y-80014038D01*
X97427515Y-79941321D01*
X97427513Y-79941320D01*
X97349180Y-79924670D01*
X97332588Y-79921143D01*
X97271107Y-79887952D01*
X97237331Y-79826789D01*
X97240438Y-79761538D01*
X97265047Y-79685803D01*
X97279844Y-79545016D01*
X97306427Y-79480405D01*
X97315474Y-79470309D01*
X98346970Y-78438813D01*
X98353047Y-78433485D01*
X98381330Y-78411784D01*
X98477584Y-78286343D01*
X98538092Y-78140264D01*
X98553548Y-78022863D01*
X98558730Y-77983502D01*
X98554078Y-77948171D01*
X98553548Y-77940073D01*
X98553548Y-75883998D01*
X98573233Y-75816959D01*
X98626037Y-75771204D01*
X98671145Y-75761390D01*
X98671071Y-75760678D01*
X98677537Y-75759998D01*
X98677539Y-75759998D01*
X98852415Y-75722827D01*
X99015741Y-75650110D01*
X99160378Y-75545024D01*
X99160764Y-75544596D01*
X99186296Y-75516239D01*
X99280007Y-75412163D01*
X99369398Y-75257333D01*
X99424645Y-75087301D01*
X99431832Y-75018921D01*
X99458416Y-74954310D01*
X99515713Y-74914325D01*
X99585532Y-74911665D01*
X99645706Y-74947174D01*
X99654477Y-74959009D01*
X99654864Y-74958713D01*
X99659811Y-74965160D01*
X99659812Y-74965162D01*
X99756066Y-75090603D01*
X99774755Y-75104943D01*
X99784339Y-75112298D01*
X99790434Y-75117642D01*
X100607706Y-75934913D01*
X100613051Y-75941009D01*
X100634746Y-75969282D01*
X100743037Y-76052376D01*
X100756198Y-76062475D01*
X100760188Y-76065537D01*
X100760187Y-76065537D01*
X100855753Y-76105121D01*
X100906266Y-76126044D01*
X100984647Y-76136362D01*
X101063027Y-76146682D01*
X101063027Y-76146681D01*
X101063028Y-76146682D01*
X101098355Y-76142030D01*
X101106454Y-76141500D01*
X103638103Y-76141500D01*
X103705142Y-76161185D01*
X103725784Y-76177819D01*
X103822229Y-76274264D01*
X103855714Y-76335587D01*
X103858548Y-76361945D01*
X103858548Y-88838143D01*
X103838863Y-88905182D01*
X103786059Y-88950937D01*
X103716902Y-88960881D01*
X103637702Y-88949494D01*
X103597367Y-88943695D01*
X103597365Y-88943695D01*
X103576076Y-88944709D01*
X103384574Y-88953832D01*
X103177544Y-89004057D01*
X103120193Y-89030248D01*
X102983755Y-89092556D01*
X102810233Y-89216122D01*
X102810226Y-89216128D01*
X102663216Y-89370307D01*
X102548041Y-89549524D01*
X102527516Y-89600793D01*
X102484325Y-89655714D01*
X102418298Y-89678566D01*
X102350398Y-89662093D01*
X102338088Y-89653973D01*
X102240136Y-89580647D01*
X102240134Y-89580645D01*
X102105427Y-89530403D01*
X102105420Y-89530401D01*
X102045892Y-89524000D01*
X101594048Y-89524000D01*
X101594048Y-90167424D01*
X101574363Y-90234463D01*
X101521559Y-90280218D01*
X101452401Y-90290162D01*
X101450650Y-90289897D01*
X101375534Y-90278000D01*
X101375529Y-90278000D01*
X101312567Y-90278000D01*
X101312562Y-90278000D01*
X101237446Y-90289897D01*
X101168152Y-90280942D01*
X101114700Y-90235946D01*
X101094061Y-90169194D01*
X101094048Y-90167424D01*
X101094048Y-89524000D01*
X100642203Y-89524000D01*
X100582675Y-89530401D01*
X100582668Y-89530403D01*
X100447961Y-89580645D01*
X100447954Y-89580649D01*
X100332860Y-89666809D01*
X100258815Y-89765720D01*
X100202881Y-89807590D01*
X100133189Y-89812574D01*
X100076012Y-89783046D01*
X100058737Y-89767298D01*
X100042770Y-89752742D01*
X100042763Y-89752738D01*
X100042761Y-89752736D01*
X99860861Y-89640108D01*
X99860855Y-89640106D01*
X99661345Y-89562815D01*
X99451028Y-89523500D01*
X99237068Y-89523500D01*
X99026751Y-89562815D01*
X98928719Y-89600793D01*
X98827240Y-89640106D01*
X98827234Y-89640108D01*
X98645334Y-89752736D01*
X98645331Y-89752738D01*
X98645327Y-89752740D01*
X98645326Y-89752742D01*
X98505651Y-89880072D01*
X98487205Y-89896888D01*
X98443000Y-89955424D01*
X98386891Y-89997059D01*
X98317179Y-90001750D01*
X98255997Y-89968007D01*
X98245102Y-89955434D01*
X98200889Y-89896886D01*
X98042770Y-89752742D01*
X98042764Y-89752738D01*
X98042761Y-89752736D01*
X97860861Y-89640108D01*
X97860855Y-89640106D01*
X97661345Y-89562815D01*
X97451028Y-89523500D01*
X97237068Y-89523500D01*
X97026751Y-89562815D01*
X96928719Y-89600793D01*
X96827240Y-89640106D01*
X96827234Y-89640108D01*
X96645334Y-89752736D01*
X96645331Y-89752738D01*
X96645327Y-89752740D01*
X96645326Y-89752742D01*
X96505651Y-89880072D01*
X96487205Y-89896888D01*
X96467618Y-89922825D01*
X96411509Y-89964460D01*
X96341797Y-89969151D01*
X96280615Y-89935408D01*
X96247389Y-89873944D01*
X96245227Y-89859890D01*
X96244372Y-89850930D01*
X96184353Y-89646525D01*
X96086735Y-89457172D01*
X95955046Y-89289715D01*
X95794045Y-89150207D01*
X95794041Y-89150205D01*
X95794038Y-89150202D01*
X95609553Y-89043691D01*
X95609552Y-89043690D01*
X95609551Y-89043690D01*
X95495039Y-89004057D01*
X95408234Y-88974013D01*
X95355516Y-88966433D01*
X95197367Y-88943695D01*
X95197364Y-88943695D01*
X95166953Y-88945143D01*
X94984574Y-88953832D01*
X94777544Y-89004057D01*
X94720193Y-89030248D01*
X94583755Y-89092556D01*
X94410233Y-89216122D01*
X94410226Y-89216128D01*
X94263216Y-89370307D01*
X94148042Y-89549522D01*
X94068864Y-89747299D01*
X94028548Y-89956482D01*
X94028548Y-91095118D01*
X94008863Y-91162157D01*
X93956059Y-91207912D01*
X93886901Y-91217856D01*
X93823345Y-91188831D01*
X93816867Y-91182799D01*
X92547029Y-89912961D01*
X92535249Y-89899330D01*
X92527782Y-89889301D01*
X92520912Y-89880072D01*
X92513609Y-89873944D01*
X92480887Y-89846486D01*
X92476912Y-89842844D01*
X92473990Y-89839922D01*
X92471080Y-89837011D01*
X92445340Y-89816659D01*
X92386509Y-89767294D01*
X92380480Y-89763329D01*
X92380512Y-89763280D01*
X92374153Y-89759228D01*
X92374122Y-89759279D01*
X92367980Y-89755491D01*
X92367978Y-89755490D01*
X92367977Y-89755489D01*
X92328774Y-89737208D01*
X92298358Y-89723024D01*
X92264194Y-89705867D01*
X92229733Y-89688560D01*
X92229731Y-89688559D01*
X92229730Y-89688559D01*
X92222945Y-89686089D01*
X92222965Y-89686033D01*
X92215849Y-89683559D01*
X92215831Y-89683615D01*
X92208971Y-89681342D01*
X92181141Y-89675596D01*
X92133734Y-89665807D01*
X92083802Y-89653973D01*
X92059019Y-89648099D01*
X92051847Y-89647261D01*
X92051853Y-89647201D01*
X92044355Y-89646435D01*
X92044350Y-89646495D01*
X92037160Y-89645865D01*
X91960383Y-89648100D01*
X91887885Y-89648100D01*
X91820846Y-89628415D01*
X91815000Y-89624418D01*
X91801282Y-89614451D01*
X91801277Y-89614448D01*
X91628355Y-89537457D01*
X91628350Y-89537455D01*
X91482549Y-89506465D01*
X91443194Y-89498100D01*
X91253902Y-89498100D01*
X91221445Y-89504998D01*
X91068745Y-89537455D01*
X91068740Y-89537457D01*
X90895818Y-89614448D01*
X90895813Y-89614451D01*
X90742677Y-89725711D01*
X90616014Y-89866385D01*
X90521369Y-90030315D01*
X90521366Y-90030322D01*
X90462875Y-90210340D01*
X90462874Y-90210344D01*
X90443088Y-90398600D01*
X90462874Y-90586856D01*
X90462875Y-90586859D01*
X90521366Y-90766877D01*
X90521369Y-90766884D01*
X90616015Y-90930816D01*
X90711487Y-91036848D01*
X90742677Y-91071488D01*
X90895813Y-91182748D01*
X90895818Y-91182751D01*
X91068740Y-91259742D01*
X91068743Y-91259743D01*
X91068745Y-91259744D01*
X91253902Y-91299100D01*
X91253903Y-91299100D01*
X91443192Y-91299100D01*
X91443194Y-91299100D01*
X91628351Y-91259744D01*
X91649249Y-91250438D01*
X91718498Y-91241152D01*
X91781776Y-91270779D01*
X91787368Y-91276036D01*
X95175788Y-94664456D01*
X95209273Y-94725779D01*
X95204289Y-94795471D01*
X95162417Y-94851404D01*
X95160993Y-94852455D01*
X95050527Y-94932713D01*
X94967855Y-95024529D01*
X94908368Y-95061177D01*
X94838511Y-95059846D01*
X94802821Y-95041875D01*
X94738532Y-94995167D01*
X94674230Y-94948449D01*
X94674228Y-94948448D01*
X94674229Y-94948448D01*
X94501307Y-94871457D01*
X94501302Y-94871455D01*
X94355501Y-94840465D01*
X94316146Y-94832100D01*
X94126854Y-94832100D01*
X94094397Y-94838998D01*
X93941697Y-94871455D01*
X93941692Y-94871457D01*
X93768770Y-94948448D01*
X93768765Y-94948451D01*
X93615629Y-95059711D01*
X93488966Y-95200385D01*
X93394321Y-95364315D01*
X93394318Y-95364322D01*
X93345940Y-95513216D01*
X93335826Y-95544344D01*
X93316040Y-95732600D01*
X93335826Y-95920856D01*
X93335827Y-95920859D01*
X93394318Y-96100877D01*
X93394321Y-96100884D01*
X93488967Y-96264816D01*
X93615629Y-96405488D01*
X93768765Y-96516748D01*
X93768770Y-96516751D01*
X93941692Y-96593742D01*
X93941697Y-96593744D01*
X94126854Y-96633100D01*
X94210503Y-96633100D01*
X94277542Y-96652785D01*
X94298184Y-96669419D01*
X97406469Y-99777704D01*
X97411820Y-99783805D01*
X97433518Y-99812082D01*
X97491302Y-99856421D01*
X97558959Y-99908336D01*
X97558961Y-99908336D01*
X97558963Y-99908338D01*
X97631998Y-99938590D01*
X97705038Y-99968844D01*
X97783419Y-99979163D01*
X97861799Y-99989482D01*
X97861800Y-99989482D01*
X97897129Y-99984830D01*
X97905228Y-99984300D01*
X97985967Y-99984300D01*
X98053006Y-100003985D01*
X98073648Y-100020619D01*
X100662764Y-102609735D01*
X100668115Y-102615836D01*
X100689813Y-102644113D01*
X100758784Y-102697036D01*
X100815254Y-102740367D01*
X100815257Y-102740368D01*
X100815258Y-102740369D01*
X100888293Y-102770621D01*
X100961333Y-102800875D01*
X101039714Y-102811194D01*
X101118094Y-102821513D01*
X101118095Y-102821513D01*
X101123426Y-102820811D01*
X101192461Y-102831573D01*
X101231765Y-102860775D01*
X101256929Y-102888722D01*
X101256932Y-102888724D01*
X101410062Y-102999979D01*
X101410067Y-102999982D01*
X101582989Y-103076973D01*
X101582994Y-103076975D01*
X101768151Y-103116331D01*
X101768152Y-103116331D01*
X101957441Y-103116331D01*
X101957443Y-103116331D01*
X102142600Y-103076975D01*
X102315527Y-102999982D01*
X102329960Y-102989495D01*
X102395761Y-102966014D01*
X102453282Y-102976531D01*
X102581557Y-103033644D01*
X102695580Y-103057880D01*
X102757062Y-103091072D01*
X102790839Y-103152235D01*
X102793800Y-103179170D01*
X102793800Y-104396739D01*
X102774115Y-104463778D01*
X102721311Y-104509533D01*
X102669540Y-104520739D01*
X98742840Y-104512516D01*
X98675842Y-104492691D01*
X98630198Y-104439791D01*
X98619100Y-104388516D01*
X98619100Y-103789378D01*
X98619631Y-103781276D01*
X98624282Y-103745949D01*
X98624282Y-103745948D01*
X98603644Y-103589189D01*
X98603644Y-103589188D01*
X98543136Y-103443109D01*
X98446882Y-103317668D01*
X98418605Y-103295970D01*
X98412504Y-103290619D01*
X98066379Y-102944494D01*
X97697070Y-102575185D01*
X97691729Y-102569094D01*
X97670032Y-102540818D01*
X97544591Y-102444564D01*
X97398512Y-102384056D01*
X97398510Y-102384055D01*
X97311441Y-102372593D01*
X97241751Y-102363418D01*
X97241750Y-102363418D01*
X97206420Y-102368069D01*
X97198322Y-102368600D01*
X96705278Y-102368600D01*
X96697179Y-102368069D01*
X96661850Y-102363418D01*
X96661849Y-102363418D01*
X96592159Y-102372593D01*
X96505089Y-102384055D01*
X96505087Y-102384056D01*
X96359007Y-102444564D01*
X96233569Y-102540816D01*
X96211869Y-102569094D01*
X96206518Y-102575196D01*
X95567296Y-103214418D01*
X95561193Y-103219770D01*
X95532919Y-103241466D01*
X95508750Y-103272965D01*
X95436661Y-103366912D01*
X95436661Y-103366913D01*
X95376157Y-103512984D01*
X95376155Y-103512989D01*
X95355518Y-103669748D01*
X95355518Y-103669749D01*
X95360169Y-103705076D01*
X95360700Y-103713178D01*
X95360700Y-104202900D01*
X95341015Y-104269939D01*
X95288211Y-104315694D01*
X95236700Y-104326900D01*
X92598058Y-104326900D01*
X92531019Y-104307215D01*
X92505909Y-104285873D01*
X92477671Y-104254512D01*
X92477664Y-104254506D01*
X92324534Y-104143251D01*
X92324529Y-104143248D01*
X92151607Y-104066257D01*
X92151602Y-104066255D01*
X92005800Y-104035265D01*
X91966446Y-104026900D01*
X91777154Y-104026900D01*
X91744697Y-104033798D01*
X91591997Y-104066255D01*
X91591992Y-104066257D01*
X91419070Y-104143248D01*
X91419065Y-104143251D01*
X91265929Y-104254511D01*
X91139269Y-104395181D01*
X91139265Y-104395186D01*
X91116669Y-104434322D01*
X91066100Y-104482536D01*
X91009024Y-104496318D01*
X79677088Y-104472587D01*
X79610090Y-104452762D01*
X79564446Y-104399862D01*
X79553348Y-104348587D01*
X79553348Y-93504000D01*
X79891912Y-93504000D01*
X79912012Y-93720918D01*
X79912012Y-93720920D01*
X79912013Y-93720923D01*
X79942239Y-93827156D01*
X79971632Y-93930462D01*
X80068736Y-94125472D01*
X80150497Y-94233741D01*
X80175189Y-94299102D01*
X80160624Y-94367437D01*
X80125854Y-94407735D01*
X80040257Y-94471813D01*
X79954097Y-94586906D01*
X79954093Y-94586913D01*
X79903851Y-94721620D01*
X79903849Y-94721627D01*
X79897448Y-94781155D01*
X79897448Y-95254000D01*
X80561872Y-95254000D01*
X80628911Y-95273685D01*
X80674666Y-95326489D01*
X80684610Y-95395647D01*
X80684345Y-95397397D01*
X80667462Y-95503996D01*
X80667462Y-95504003D01*
X80684345Y-95610603D01*
X80675390Y-95679896D01*
X80630394Y-95733348D01*
X80563642Y-95753987D01*
X80561872Y-95754000D01*
X79897448Y-95754000D01*
X79897448Y-96226844D01*
X79903849Y-96286372D01*
X79903851Y-96286379D01*
X79954093Y-96421086D01*
X79954097Y-96421093D01*
X80040257Y-96536187D01*
X80040260Y-96536190D01*
X80155354Y-96622350D01*
X80155361Y-96622354D01*
X80290068Y-96672596D01*
X80290075Y-96672598D01*
X80349603Y-96678999D01*
X80349620Y-96679000D01*
X80822448Y-96679000D01*
X80822448Y-96014575D01*
X80842133Y-95947536D01*
X80894937Y-95901781D01*
X80964095Y-95891837D01*
X80965779Y-95892091D01*
X80998147Y-95897218D01*
X81040963Y-95904000D01*
X81040967Y-95904000D01*
X81103933Y-95904000D01*
X81146748Y-95897218D01*
X81179050Y-95892102D01*
X81248342Y-95901056D01*
X81301795Y-95946052D01*
X81322435Y-96012803D01*
X81322448Y-96014575D01*
X81322448Y-96679000D01*
X81795276Y-96679000D01*
X81795292Y-96678999D01*
X81854820Y-96672598D01*
X81854827Y-96672596D01*
X81989534Y-96622354D01*
X81989541Y-96622350D01*
X82104635Y-96536190D01*
X82104638Y-96536187D01*
X82190798Y-96421093D01*
X82190802Y-96421086D01*
X82241044Y-96286379D01*
X82241046Y-96286372D01*
X82247447Y-96226844D01*
X82247448Y-96226827D01*
X82247448Y-95754000D01*
X81583024Y-95754000D01*
X81515985Y-95734315D01*
X81470230Y-95681511D01*
X81460286Y-95612353D01*
X81460551Y-95610603D01*
X81477434Y-95504003D01*
X81477434Y-95503996D01*
X81460551Y-95397397D01*
X81469506Y-95328104D01*
X81514502Y-95274652D01*
X81581254Y-95254013D01*
X81583024Y-95254000D01*
X82247448Y-95254000D01*
X82247448Y-94781172D01*
X82247447Y-94781155D01*
X82241046Y-94721627D01*
X82241044Y-94721620D01*
X82190802Y-94586913D01*
X82190798Y-94586906D01*
X82104638Y-94471812D01*
X82019041Y-94407733D01*
X81977171Y-94351799D01*
X81972187Y-94282107D01*
X81994399Y-94233741D01*
X82076160Y-94125472D01*
X82173265Y-93930459D01*
X82232883Y-93720923D01*
X82252984Y-93504000D01*
X82232883Y-93287077D01*
X82173265Y-93077541D01*
X82076160Y-92882528D01*
X81944875Y-92708678D01*
X81820871Y-92595634D01*
X81784593Y-92535927D01*
X81786353Y-92466079D01*
X81820871Y-92412365D01*
X81944875Y-92299322D01*
X82076160Y-92125472D01*
X82173265Y-91930459D01*
X82232883Y-91720923D01*
X82252984Y-91504000D01*
X82232883Y-91287077D01*
X82173265Y-91077541D01*
X82076160Y-90882528D01*
X81944875Y-90708678D01*
X81820871Y-90595634D01*
X81784593Y-90535927D01*
X81786353Y-90466079D01*
X81820871Y-90412365D01*
X81944875Y-90299322D01*
X82076160Y-90125472D01*
X82173265Y-89930459D01*
X82232883Y-89720923D01*
X82252984Y-89504000D01*
X82232883Y-89287077D01*
X82173265Y-89077541D01*
X82076160Y-88882528D01*
X81944875Y-88708678D01*
X81783880Y-88561912D01*
X81783876Y-88561909D01*
X81783871Y-88561906D01*
X81598661Y-88447229D01*
X81598655Y-88447226D01*
X81513561Y-88414260D01*
X81395517Y-88368530D01*
X81181374Y-88328500D01*
X80963522Y-88328500D01*
X80749379Y-88368530D01*
X80700578Y-88387435D01*
X80546240Y-88447226D01*
X80546234Y-88447229D01*
X80361024Y-88561906D01*
X80361014Y-88561913D01*
X80200022Y-88708676D01*
X80068736Y-88882527D01*
X79971632Y-89077537D01*
X79912012Y-89287081D01*
X79891912Y-89503999D01*
X79891912Y-89504000D01*
X79912012Y-89720918D01*
X79912012Y-89720920D01*
X79912013Y-89720923D01*
X79969459Y-89922825D01*
X79971632Y-89930462D01*
X80068736Y-90125472D01*
X80200022Y-90299324D01*
X80324020Y-90412363D01*
X80360302Y-90472074D01*
X80358541Y-90541922D01*
X80324020Y-90595637D01*
X80200022Y-90708675D01*
X80068736Y-90882527D01*
X79971632Y-91077537D01*
X79971630Y-91077541D01*
X79971631Y-91077541D01*
X79915155Y-91276036D01*
X79912012Y-91287081D01*
X79891912Y-91503999D01*
X79891912Y-91504000D01*
X79912012Y-91720918D01*
X79912012Y-91720920D01*
X79912013Y-91720923D01*
X79949632Y-91853140D01*
X79971632Y-91930462D01*
X80068736Y-92125472D01*
X80200022Y-92299324D01*
X80324020Y-92412363D01*
X80360302Y-92472074D01*
X80358541Y-92541922D01*
X80324020Y-92595637D01*
X80200022Y-92708675D01*
X80068736Y-92882527D01*
X79971632Y-93077537D01*
X79912012Y-93287081D01*
X79891912Y-93503999D01*
X79891912Y-93504000D01*
X79553348Y-93504000D01*
X79553348Y-79174800D01*
X79972377Y-79174800D01*
X80035533Y-79345327D01*
X80035535Y-79345331D01*
X80137740Y-79509303D01*
X80270850Y-79649334D01*
X80270851Y-79649335D01*
X80429434Y-79759713D01*
X80606985Y-79835906D01*
X80796242Y-79874800D01*
X81042848Y-79874800D01*
X81042848Y-79348800D01*
X81062533Y-79281761D01*
X81115337Y-79236006D01*
X81166848Y-79224800D01*
X81418848Y-79224800D01*
X81485887Y-79244485D01*
X81531642Y-79297289D01*
X81542848Y-79348800D01*
X81542848Y-79874800D01*
X81741024Y-79874800D01*
X81885069Y-79860152D01*
X82069409Y-79802315D01*
X82069419Y-79802310D01*
X82238346Y-79708548D01*
X82238353Y-79708543D01*
X82384953Y-79582692D01*
X82503216Y-79429909D01*
X82503218Y-79429905D01*
X82588305Y-79256443D01*
X82609444Y-79174800D01*
X82097827Y-79174800D01*
X82030788Y-79155115D01*
X81985033Y-79102311D01*
X81975089Y-79033153D01*
X81978561Y-79016866D01*
X81996742Y-78952962D01*
X81996743Y-78952960D01*
X81989285Y-78872474D01*
X81986394Y-78841279D01*
X81986392Y-78841275D01*
X81983963Y-78832737D01*
X81984549Y-78762870D01*
X82022814Y-78704410D01*
X82086611Y-78675919D01*
X82103229Y-78674800D01*
X82613319Y-78674800D01*
X82550162Y-78504272D01*
X82550160Y-78504268D01*
X82447955Y-78340296D01*
X82314845Y-78200265D01*
X82314844Y-78200264D01*
X82156261Y-78089886D01*
X81978710Y-78013693D01*
X81789454Y-77974800D01*
X81542848Y-77974800D01*
X81542848Y-78500800D01*
X81523163Y-78567839D01*
X81470359Y-78613594D01*
X81418848Y-78624800D01*
X81166848Y-78624800D01*
X81099809Y-78605115D01*
X81054054Y-78552311D01*
X81042848Y-78500800D01*
X81042848Y-77974800D01*
X80844672Y-77974800D01*
X80700626Y-77989447D01*
X80516286Y-78047284D01*
X80516276Y-78047289D01*
X80347349Y-78141051D01*
X80347342Y-78141056D01*
X80200742Y-78266907D01*
X80082479Y-78419690D01*
X80082477Y-78419694D01*
X79997390Y-78593156D01*
X79976252Y-78674800D01*
X80487869Y-78674800D01*
X80554908Y-78694485D01*
X80600663Y-78747289D01*
X80610607Y-78816447D01*
X80607135Y-78832734D01*
X80588953Y-78896637D01*
X80588952Y-78896637D01*
X80599301Y-79008317D01*
X80601733Y-79016863D01*
X80601147Y-79086730D01*
X80562882Y-79145190D01*
X80499085Y-79173681D01*
X80482467Y-79174800D01*
X79972377Y-79174800D01*
X79553348Y-79174800D01*
X79553348Y-70524800D01*
X79972377Y-70524800D01*
X80035533Y-70695327D01*
X80035535Y-70695331D01*
X80137740Y-70859303D01*
X80270850Y-70999334D01*
X80270851Y-70999335D01*
X80429434Y-71109713D01*
X80606985Y-71185906D01*
X80796242Y-71224800D01*
X81042848Y-71224800D01*
X81042848Y-70698800D01*
X81062533Y-70631761D01*
X81115337Y-70586006D01*
X81166848Y-70574800D01*
X81418848Y-70574800D01*
X81485887Y-70594485D01*
X81531642Y-70647289D01*
X81542848Y-70698800D01*
X81542848Y-71224800D01*
X81741024Y-71224800D01*
X81885069Y-71210152D01*
X82069409Y-71152315D01*
X82069419Y-71152310D01*
X82238346Y-71058548D01*
X82238353Y-71058543D01*
X82384953Y-70932692D01*
X82503216Y-70779909D01*
X82503218Y-70779905D01*
X82588305Y-70606443D01*
X82609444Y-70524800D01*
X82097827Y-70524800D01*
X82030788Y-70505115D01*
X81985033Y-70452311D01*
X81975089Y-70383153D01*
X81978561Y-70366866D01*
X81996742Y-70302962D01*
X81996743Y-70302960D01*
X81986394Y-70191282D01*
X81986394Y-70191279D01*
X81986392Y-70191275D01*
X81983963Y-70182737D01*
X81984549Y-70112870D01*
X82022814Y-70054410D01*
X82086611Y-70025919D01*
X82103229Y-70024800D01*
X82613319Y-70024800D01*
X82550162Y-69854272D01*
X82550160Y-69854268D01*
X82447955Y-69690296D01*
X82314845Y-69550265D01*
X82314844Y-69550264D01*
X82156261Y-69439886D01*
X81978710Y-69363693D01*
X81789454Y-69324800D01*
X81542848Y-69324800D01*
X81542848Y-69850800D01*
X81523163Y-69917839D01*
X81470359Y-69963594D01*
X81418848Y-69974800D01*
X81166848Y-69974800D01*
X81099809Y-69955115D01*
X81054054Y-69902311D01*
X81042848Y-69850800D01*
X81042848Y-69324800D01*
X80844672Y-69324800D01*
X80700626Y-69339447D01*
X80516286Y-69397284D01*
X80516276Y-69397289D01*
X80347349Y-69491051D01*
X80347342Y-69491056D01*
X80200742Y-69616907D01*
X80082479Y-69769690D01*
X80082477Y-69769694D01*
X79997390Y-69943156D01*
X79976252Y-70024800D01*
X80487869Y-70024800D01*
X80554908Y-70044485D01*
X80600663Y-70097289D01*
X80610607Y-70166447D01*
X80607135Y-70182734D01*
X80588953Y-70246637D01*
X80588952Y-70246637D01*
X80599301Y-70358317D01*
X80601733Y-70366863D01*
X80601147Y-70436730D01*
X80562882Y-70495190D01*
X80499085Y-70523681D01*
X80482467Y-70524800D01*
X79972377Y-70524800D01*
X79553348Y-70524800D01*
X79553348Y-64513000D01*
X79573033Y-64445961D01*
X79625837Y-64400206D01*
X79677348Y-64389000D01*
X90015500Y-64389000D01*
X90082539Y-64408685D01*
G37*
%TD.AperFunction*%
%TA.AperFunction,Conductor*%
G36*
X101237401Y-91066095D02*
G01*
X101262631Y-91070091D01*
X101312563Y-91078000D01*
X101312567Y-91078000D01*
X101375533Y-91078000D01*
X101418348Y-91071218D01*
X101450650Y-91066102D01*
X101519942Y-91075056D01*
X101573395Y-91120052D01*
X101594035Y-91186803D01*
X101594048Y-91188575D01*
X101594047Y-91832000D01*
X102045876Y-91832000D01*
X102045892Y-91831999D01*
X102105420Y-91825598D01*
X102105427Y-91825596D01*
X102240134Y-91775354D01*
X102240137Y-91775352D01*
X102337489Y-91702474D01*
X102402953Y-91678056D01*
X102471226Y-91692907D01*
X102520632Y-91742311D01*
X102521986Y-91744862D01*
X102601361Y-91898828D01*
X102733050Y-92066285D01*
X102894051Y-92205793D01*
X102894059Y-92205797D01*
X102894061Y-92205799D01*
X102896854Y-92207412D01*
X102897971Y-92208583D01*
X102898862Y-92209218D01*
X102898739Y-92209389D01*
X102945069Y-92257979D01*
X102958291Y-92326586D01*
X102949414Y-92362250D01*
X102894557Y-92494687D01*
X102894555Y-92494692D01*
X102873918Y-92651451D01*
X102873918Y-92651452D01*
X102878569Y-92686779D01*
X102879100Y-92694881D01*
X102879100Y-93174571D01*
X102878569Y-93182673D01*
X102873918Y-93217999D01*
X102873918Y-93218000D01*
X102879100Y-93257360D01*
X102894555Y-93374760D01*
X102894556Y-93374762D01*
X102946234Y-93499525D01*
X102955064Y-93520841D01*
X103051318Y-93646282D01*
X103079595Y-93667980D01*
X103085685Y-93673320D01*
X104025546Y-94613181D01*
X104925581Y-95513216D01*
X104959066Y-95574539D01*
X104961900Y-95600897D01*
X104961900Y-97335800D01*
X104942215Y-97402839D01*
X104889411Y-97448594D01*
X104837900Y-97459800D01*
X102793800Y-97459800D01*
X102793800Y-100949543D01*
X102774115Y-101016582D01*
X102721311Y-101062337D01*
X102652153Y-101072281D01*
X102594314Y-101047919D01*
X102464702Y-100948464D01*
X102318622Y-100887956D01*
X102318620Y-100887955D01*
X102201221Y-100872500D01*
X102161860Y-100867318D01*
X102126530Y-100871969D01*
X102118432Y-100872500D01*
X101241047Y-100872500D01*
X101174008Y-100852815D01*
X101153366Y-100836181D01*
X98907078Y-98589893D01*
X98901724Y-98583788D01*
X98880036Y-98555522D01*
X98880033Y-98555520D01*
X98880032Y-98555518D01*
X98754591Y-98459264D01*
X98733191Y-98450400D01*
X98608512Y-98398756D01*
X98608510Y-98398755D01*
X98491111Y-98383300D01*
X98451750Y-98378118D01*
X98416420Y-98382769D01*
X98408322Y-98383300D01*
X98327583Y-98383300D01*
X98260544Y-98363615D01*
X98239902Y-98346981D01*
X97909745Y-98016824D01*
X97876260Y-97955501D01*
X97881244Y-97885809D01*
X97923116Y-97829876D01*
X97924541Y-97828825D01*
X98005944Y-97769682D01*
X98065671Y-97726288D01*
X98192333Y-97585616D01*
X98286979Y-97421684D01*
X98345474Y-97241656D01*
X98364921Y-97056620D01*
X98391505Y-96992007D01*
X98448803Y-96952022D01*
X98488242Y-96945583D01*
X98940030Y-96945583D01*
X99007069Y-96965268D01*
X99032179Y-96986610D01*
X99060416Y-97017970D01*
X99060423Y-97017976D01*
X99213553Y-97129231D01*
X99213558Y-97129234D01*
X99386480Y-97206225D01*
X99386485Y-97206227D01*
X99571642Y-97245583D01*
X99571643Y-97245583D01*
X99760932Y-97245583D01*
X99760934Y-97245583D01*
X99946091Y-97206227D01*
X100119018Y-97129234D01*
X100272159Y-97017971D01*
X100398089Y-96878111D01*
X100457573Y-96841464D01*
X100527430Y-96842794D01*
X100585479Y-96881681D01*
X100608167Y-96922763D01*
X100610050Y-96928557D01*
X100704696Y-97092489D01*
X100831357Y-97233160D01*
X100831358Y-97233161D01*
X100984494Y-97344421D01*
X100984499Y-97344424D01*
X101157421Y-97421415D01*
X101157426Y-97421417D01*
X101342583Y-97460773D01*
X101342584Y-97460773D01*
X101531873Y-97460773D01*
X101531875Y-97460773D01*
X101717032Y-97421417D01*
X101889959Y-97344424D01*
X102043100Y-97233161D01*
X102169762Y-97092489D01*
X102264408Y-96928557D01*
X102322903Y-96748529D01*
X102342689Y-96560273D01*
X102322903Y-96372017D01*
X102264408Y-96191989D01*
X102169762Y-96028057D01*
X102043100Y-95887385D01*
X102043099Y-95887384D01*
X101889963Y-95776124D01*
X101889958Y-95776121D01*
X101717036Y-95699130D01*
X101717032Y-95699129D01*
X101651898Y-95685284D01*
X101590417Y-95652091D01*
X101589999Y-95651675D01*
X100947768Y-95009444D01*
X100935988Y-94995813D01*
X100928521Y-94985784D01*
X100921651Y-94976555D01*
X100888158Y-94948451D01*
X100881626Y-94942969D01*
X100877651Y-94939327D01*
X100874729Y-94936405D01*
X100871819Y-94933494D01*
X100846079Y-94913142D01*
X100796401Y-94871457D01*
X100787253Y-94863781D01*
X100787252Y-94863780D01*
X100787248Y-94863777D01*
X100781219Y-94859812D01*
X100781251Y-94859763D01*
X100774892Y-94855711D01*
X100774861Y-94855762D01*
X100768719Y-94851974D01*
X100768717Y-94851973D01*
X100768716Y-94851972D01*
X100726101Y-94832100D01*
X100699097Y-94819507D01*
X100651236Y-94795471D01*
X100630472Y-94785043D01*
X100630470Y-94785042D01*
X100630469Y-94785042D01*
X100623684Y-94782572D01*
X100623704Y-94782516D01*
X100616588Y-94780042D01*
X100616570Y-94780098D01*
X100609710Y-94777825D01*
X100581880Y-94772079D01*
X100534473Y-94762290D01*
X100485511Y-94750686D01*
X100459758Y-94744582D01*
X100452586Y-94743744D01*
X100452592Y-94743684D01*
X100445094Y-94742918D01*
X100445089Y-94742978D01*
X100437899Y-94742348D01*
X100361122Y-94744583D01*
X97467922Y-94744583D01*
X97449952Y-94743274D01*
X97426187Y-94739793D01*
X97421519Y-94739657D01*
X97355083Y-94718024D01*
X97337458Y-94703391D01*
X95244549Y-92610481D01*
X95211064Y-92549158D01*
X95216048Y-92479466D01*
X95257920Y-92423533D01*
X95302996Y-92402295D01*
X95303518Y-92402168D01*
X95303522Y-92402168D01*
X95510552Y-92351943D01*
X95704335Y-92263446D01*
X95704337Y-92263444D01*
X95704340Y-92263443D01*
X95877862Y-92139877D01*
X95877868Y-92139873D01*
X96024879Y-91985693D01*
X96140054Y-91806477D01*
X96219231Y-91608702D01*
X96243939Y-91480503D01*
X96275953Y-91418403D01*
X96336462Y-91383468D01*
X96406253Y-91386792D01*
X96463167Y-91427320D01*
X96464648Y-91429242D01*
X96487207Y-91459114D01*
X96645326Y-91603258D01*
X96645331Y-91603261D01*
X96645334Y-91603263D01*
X96827234Y-91715891D01*
X96827235Y-91715891D01*
X96827238Y-91715893D01*
X97026751Y-91793185D01*
X97237068Y-91832500D01*
X97237070Y-91832500D01*
X97451026Y-91832500D01*
X97451028Y-91832500D01*
X97661345Y-91793185D01*
X97860858Y-91715893D01*
X98042770Y-91603258D01*
X98200889Y-91459114D01*
X98245094Y-91400576D01*
X98301203Y-91358941D01*
X98370915Y-91354250D01*
X98432097Y-91387992D01*
X98443000Y-91400575D01*
X98487207Y-91459114D01*
X98645326Y-91603258D01*
X98645331Y-91603261D01*
X98645334Y-91603263D01*
X98827234Y-91715891D01*
X98827235Y-91715891D01*
X98827238Y-91715893D01*
X99026751Y-91793185D01*
X99237068Y-91832500D01*
X99237070Y-91832500D01*
X99451026Y-91832500D01*
X99451028Y-91832500D01*
X99661345Y-91793185D01*
X99860858Y-91715893D01*
X100042770Y-91603258D01*
X100076014Y-91572951D01*
X100138814Y-91542337D01*
X100208202Y-91550534D01*
X100258815Y-91590280D01*
X100332857Y-91689187D01*
X100332860Y-91689190D01*
X100447954Y-91775350D01*
X100447961Y-91775354D01*
X100582668Y-91825596D01*
X100582675Y-91825598D01*
X100642203Y-91831999D01*
X100642220Y-91832000D01*
X101094047Y-91832000D01*
X101094047Y-91188575D01*
X101113731Y-91121536D01*
X101166535Y-91075781D01*
X101235694Y-91065837D01*
X101237401Y-91066095D01*
G37*
%TD.AperFunction*%
%TD*%
M02*
