%TF.GenerationSoftware,KiCad,Pcbnew,7.0.7*%
%TF.CreationDate,2024-02-18T16:08:08+01:00*%
%TF.ProjectId,kingslayer-28,6b696e67-736c-4617-9965-722d32382e6b,rev?*%
%TF.SameCoordinates,Original*%
%TF.FileFunction,Legend,Bot*%
%TF.FilePolarity,Positive*%
%FSLAX46Y46*%
G04 Gerber Fmt 4.6, Leading zero omitted, Abs format (unit mm)*
G04 Created by KiCad (PCBNEW 7.0.7) date 2024-02-18 16:08:08*
%MOMM*%
%LPD*%
G01*
G04 APERTURE LIST*
%ADD10C,0.150000*%
G04 APERTURE END LIST*
D10*
%TO.C,K9*%
X181452848Y-80800000D02*
X181452848Y-79800000D01*
X181452848Y-80800000D02*
X180452848Y-80800000D01*
X181452848Y-67800000D02*
X181452848Y-66800000D01*
X180452848Y-66800000D02*
X181452848Y-66800000D01*
X168452848Y-80800000D02*
X167452848Y-80800000D01*
X167452848Y-79800000D02*
X167452848Y-80800000D01*
X167452848Y-66800000D02*
X168452848Y-66800000D01*
X167452848Y-66800000D02*
X167452848Y-67800000D01*
%TO.C,K13*%
X207652848Y-99800000D02*
X207652848Y-98800000D01*
X207652848Y-99800000D02*
X206652848Y-99800000D01*
X207652848Y-86800000D02*
X207652848Y-85800000D01*
X206652848Y-85800000D02*
X207652848Y-85800000D01*
X194652848Y-99800000D02*
X193652848Y-99800000D01*
X193652848Y-98800000D02*
X193652848Y-99800000D01*
X193652848Y-85800000D02*
X194652848Y-85800000D01*
X193652848Y-85800000D02*
X193652848Y-86800000D01*
%TO.C,K28*%
X124452848Y-137800000D02*
X124452848Y-136800000D01*
X124452848Y-137800000D02*
X123452848Y-137800000D01*
X124452848Y-124800000D02*
X124452848Y-123800000D01*
X123452848Y-123800000D02*
X124452848Y-123800000D01*
X111452848Y-137800000D02*
X110452848Y-137800000D01*
X110452848Y-136800000D02*
X110452848Y-137800000D01*
X110452848Y-123800000D02*
X111452848Y-123800000D01*
X110452848Y-123800000D02*
X110452848Y-124800000D01*
%TO.C,K8*%
X205252848Y-80800000D02*
X205252848Y-79800000D01*
X205252848Y-80800000D02*
X204252848Y-80800000D01*
X205252848Y-67800000D02*
X205252848Y-66800000D01*
X204252848Y-66800000D02*
X205252848Y-66800000D01*
X192252848Y-80800000D02*
X191252848Y-80800000D01*
X191252848Y-79800000D02*
X191252848Y-80800000D01*
X191252848Y-66800000D02*
X192252848Y-66800000D01*
X191252848Y-66800000D02*
X191252848Y-67800000D01*
%TO.C,K17*%
X119652848Y-99800000D02*
X119652848Y-98800000D01*
X119652848Y-99800000D02*
X118652848Y-99800000D01*
X119652848Y-86800000D02*
X119652848Y-85800000D01*
X118652848Y-85800000D02*
X119652848Y-85800000D01*
X106652848Y-99800000D02*
X105652848Y-99800000D01*
X105652848Y-98800000D02*
X105652848Y-99800000D01*
X105652848Y-85800000D02*
X106652848Y-85800000D01*
X105652848Y-85800000D02*
X105652848Y-86800000D01*
%TO.C,K2*%
X191052848Y-61800000D02*
X191052848Y-60800000D01*
X191052848Y-61800000D02*
X190052848Y-61800000D01*
X191052848Y-48800000D02*
X191052848Y-47800000D01*
X190052848Y-47800000D02*
X191052848Y-47800000D01*
X178052848Y-61800000D02*
X177052848Y-61800000D01*
X177052848Y-60800000D02*
X177052848Y-61800000D01*
X177052848Y-47800000D02*
X178052848Y-47800000D01*
X177052848Y-47800000D02*
X177052848Y-48800000D01*
%TO.C,K4*%
X153052848Y-61800000D02*
X153052848Y-60800000D01*
X153052848Y-61800000D02*
X152052848Y-61800000D01*
X153052848Y-48800000D02*
X153052848Y-47800000D01*
X152052848Y-47800000D02*
X153052848Y-47800000D01*
X140052848Y-61800000D02*
X139052848Y-61800000D01*
X139052848Y-60800000D02*
X139052848Y-61800000D01*
X139052848Y-47800000D02*
X140052848Y-47800000D01*
X139052848Y-47800000D02*
X139052848Y-48800000D01*
%TO.C,K3*%
X172052848Y-61800000D02*
X172052848Y-60800000D01*
X172052848Y-61800000D02*
X171052848Y-61800000D01*
X172052848Y-48800000D02*
X172052848Y-47800000D01*
X171052848Y-47800000D02*
X172052848Y-47800000D01*
X159052848Y-61800000D02*
X158052848Y-61800000D01*
X158052848Y-60800000D02*
X158052848Y-61800000D01*
X158052848Y-47800000D02*
X159052848Y-47800000D01*
X158052848Y-47800000D02*
X158052848Y-48800000D01*
%TO.C,K1*%
X210052848Y-61800000D02*
X210052848Y-60800000D01*
X210052848Y-61800000D02*
X209052848Y-61800000D01*
X210052848Y-48800000D02*
X210052848Y-47800000D01*
X209052848Y-47800000D02*
X210052848Y-47800000D01*
X197052848Y-61800000D02*
X196052848Y-61800000D01*
X196052848Y-60800000D02*
X196052848Y-61800000D01*
X196052848Y-47800000D02*
X197052848Y-47800000D01*
X196052848Y-47800000D02*
X196052848Y-48800000D01*
%TO.C,K24*%
X210052848Y-137800000D02*
X210052848Y-136800000D01*
X210052848Y-137800000D02*
X209052848Y-137800000D01*
X210052848Y-124800000D02*
X210052848Y-123800000D01*
X209052848Y-123800000D02*
X210052848Y-123800000D01*
X197052848Y-137800000D02*
X196052848Y-137800000D01*
X196052848Y-136800000D02*
X196052848Y-137800000D01*
X196052848Y-123800000D02*
X197052848Y-123800000D01*
X196052848Y-123800000D02*
X196052848Y-124800000D01*
%TO.C,K5*%
X134052848Y-61800000D02*
X134052848Y-60800000D01*
X134052848Y-61800000D02*
X133052848Y-61800000D01*
X134052848Y-48800000D02*
X134052848Y-47800000D01*
X133052848Y-47800000D02*
X134052848Y-47800000D01*
X121052848Y-61800000D02*
X120052848Y-61800000D01*
X120052848Y-60800000D02*
X120052848Y-61800000D01*
X120052848Y-47800000D02*
X121052848Y-47800000D01*
X120052848Y-47800000D02*
X120052848Y-48800000D01*
%TO.C,K12*%
X124452848Y-80800000D02*
X124452848Y-79800000D01*
X124452848Y-80800000D02*
X123452848Y-80800000D01*
X124452848Y-67800000D02*
X124452848Y-66800000D01*
X123452848Y-66800000D02*
X124452848Y-66800000D01*
X111452848Y-80800000D02*
X110452848Y-80800000D01*
X110452848Y-79800000D02*
X110452848Y-80800000D01*
X110452848Y-66800000D02*
X111452848Y-66800000D01*
X110452848Y-66800000D02*
X110452848Y-67800000D01*
%TO.C,K14*%
X176652848Y-99800000D02*
X176652848Y-98800000D01*
X176652848Y-99800000D02*
X175652848Y-99800000D01*
X176652848Y-86800000D02*
X176652848Y-85800000D01*
X175652848Y-85800000D02*
X176652848Y-85800000D01*
X163652848Y-99800000D02*
X162652848Y-99800000D01*
X162652848Y-98800000D02*
X162652848Y-99800000D01*
X162652848Y-85800000D02*
X163652848Y-85800000D01*
X162652848Y-85800000D02*
X162652848Y-86800000D01*
%TO.C,K21*%
X148152848Y-118800000D02*
X148152848Y-117800000D01*
X148152848Y-118800000D02*
X147152848Y-118800000D01*
X148152848Y-105800000D02*
X148152848Y-104800000D01*
X147152848Y-104800000D02*
X148152848Y-104800000D01*
X135152848Y-118800000D02*
X134152848Y-118800000D01*
X134152848Y-117800000D02*
X134152848Y-118800000D01*
X134152848Y-104800000D02*
X135152848Y-104800000D01*
X134152848Y-104800000D02*
X134152848Y-105800000D01*
%TO.C,K10*%
X162452848Y-80800000D02*
X162452848Y-79800000D01*
X162452848Y-80800000D02*
X161452848Y-80800000D01*
X162452848Y-67800000D02*
X162452848Y-66800000D01*
X161452848Y-66800000D02*
X162452848Y-66800000D01*
X149452848Y-80800000D02*
X148452848Y-80800000D01*
X148452848Y-79800000D02*
X148452848Y-80800000D01*
X148452848Y-66800000D02*
X149452848Y-66800000D01*
X148452848Y-66800000D02*
X148452848Y-67800000D01*
%TO.C,K18*%
X207652848Y-118800000D02*
X207652848Y-117800000D01*
X207652848Y-118800000D02*
X206652848Y-118800000D01*
X207652848Y-105800000D02*
X207652848Y-104800000D01*
X206652848Y-104800000D02*
X207652848Y-104800000D01*
X194652848Y-118800000D02*
X193652848Y-118800000D01*
X193652848Y-117800000D02*
X193652848Y-118800000D01*
X193652848Y-104800000D02*
X194652848Y-104800000D01*
X193652848Y-104800000D02*
X193652848Y-105800000D01*
%TO.C,K26*%
X172052848Y-137800000D02*
X172052848Y-136800000D01*
X172052848Y-137800000D02*
X171052848Y-137800000D01*
X172052848Y-124800000D02*
X172052848Y-123800000D01*
X171052848Y-123800000D02*
X172052848Y-123800000D01*
X159052848Y-137800000D02*
X158052848Y-137800000D01*
X158052848Y-136800000D02*
X158052848Y-137800000D01*
X158052848Y-123800000D02*
X159052848Y-123800000D01*
X158052848Y-123800000D02*
X158052848Y-124800000D01*
%TO.C,K15*%
X157652848Y-99800000D02*
X157652848Y-98800000D01*
X157652848Y-99800000D02*
X156652848Y-99800000D01*
X157652848Y-86800000D02*
X157652848Y-85800000D01*
X156652848Y-85800000D02*
X157652848Y-85800000D01*
X144652848Y-99800000D02*
X143652848Y-99800000D01*
X143652848Y-98800000D02*
X143652848Y-99800000D01*
X143652848Y-85800000D02*
X144652848Y-85800000D01*
X143652848Y-85800000D02*
X143652848Y-86800000D01*
%TO.C,K20*%
X167152848Y-118800000D02*
X167152848Y-117800000D01*
X167152848Y-118800000D02*
X166152848Y-118800000D01*
X167152848Y-105800000D02*
X167152848Y-104800000D01*
X166152848Y-104800000D02*
X167152848Y-104800000D01*
X154152848Y-118800000D02*
X153152848Y-118800000D01*
X153152848Y-117800000D02*
X153152848Y-118800000D01*
X153152848Y-104800000D02*
X154152848Y-104800000D01*
X153152848Y-104800000D02*
X153152848Y-105800000D01*
%TO.C,K19*%
X186152848Y-118800000D02*
X186152848Y-117800000D01*
X186152848Y-118800000D02*
X185152848Y-118800000D01*
X186152848Y-105800000D02*
X186152848Y-104800000D01*
X185152848Y-104800000D02*
X186152848Y-104800000D01*
X173152848Y-118800000D02*
X172152848Y-118800000D01*
X172152848Y-117800000D02*
X172152848Y-118800000D01*
X172152848Y-104800000D02*
X173152848Y-104800000D01*
X172152848Y-104800000D02*
X172152848Y-105800000D01*
%TO.C,K7*%
X96052848Y-61800000D02*
X96052848Y-60800000D01*
X96052848Y-61800000D02*
X95052848Y-61800000D01*
X96052848Y-48800000D02*
X96052848Y-47800000D01*
X95052848Y-47800000D02*
X96052848Y-47800000D01*
X83052848Y-61800000D02*
X82052848Y-61800000D01*
X82052848Y-60800000D02*
X82052848Y-61800000D01*
X82052848Y-47800000D02*
X83052848Y-47800000D01*
X82052848Y-47800000D02*
X82052848Y-48800000D01*
%TO.C,K16*%
X138652848Y-99800000D02*
X138652848Y-98800000D01*
X138652848Y-99800000D02*
X137652848Y-99800000D01*
X138652848Y-86800000D02*
X138652848Y-85800000D01*
X137652848Y-85800000D02*
X138652848Y-85800000D01*
X125652848Y-99800000D02*
X124652848Y-99800000D01*
X124652848Y-98800000D02*
X124652848Y-99800000D01*
X124652848Y-85800000D02*
X125652848Y-85800000D01*
X124652848Y-85800000D02*
X124652848Y-86800000D01*
%TO.C,K23*%
X110152848Y-118800000D02*
X110152848Y-117800000D01*
X110152848Y-118800000D02*
X109152848Y-118800000D01*
X110152848Y-105800000D02*
X110152848Y-104800000D01*
X109152848Y-104800000D02*
X110152848Y-104800000D01*
X97152848Y-118800000D02*
X96152848Y-118800000D01*
X96152848Y-117800000D02*
X96152848Y-118800000D01*
X96152848Y-104800000D02*
X97152848Y-104800000D01*
X96152848Y-104800000D02*
X96152848Y-105800000D01*
%TO.C,K6*%
X115052848Y-61800000D02*
X115052848Y-60800000D01*
X115052848Y-61800000D02*
X114052848Y-61800000D01*
X115052848Y-48800000D02*
X115052848Y-47800000D01*
X114052848Y-47800000D02*
X115052848Y-47800000D01*
X102052848Y-61800000D02*
X101052848Y-61800000D01*
X101052848Y-60800000D02*
X101052848Y-61800000D01*
X101052848Y-47800000D02*
X102052848Y-47800000D01*
X101052848Y-47800000D02*
X101052848Y-48800000D01*
%TO.C,K27*%
X153052848Y-137800000D02*
X153052848Y-136800000D01*
X153052848Y-137800000D02*
X152052848Y-137800000D01*
X153052848Y-124800000D02*
X153052848Y-123800000D01*
X152052848Y-123800000D02*
X153052848Y-123800000D01*
X140052848Y-137800000D02*
X139052848Y-137800000D01*
X139052848Y-136800000D02*
X139052848Y-137800000D01*
X139052848Y-123800000D02*
X140052848Y-123800000D01*
X139052848Y-123800000D02*
X139052848Y-124800000D01*
%TO.C,K11*%
X143452848Y-80800000D02*
X143452848Y-79800000D01*
X143452848Y-80800000D02*
X142452848Y-80800000D01*
X143452848Y-67800000D02*
X143452848Y-66800000D01*
X142452848Y-66800000D02*
X143452848Y-66800000D01*
X130452848Y-80800000D02*
X129452848Y-80800000D01*
X129452848Y-79800000D02*
X129452848Y-80800000D01*
X129452848Y-66800000D02*
X130452848Y-66800000D01*
X129452848Y-66800000D02*
X129452848Y-67800000D01*
%TO.C,K25*%
X191052848Y-137800000D02*
X191052848Y-136800000D01*
X191052848Y-137800000D02*
X190052848Y-137800000D01*
X191052848Y-124800000D02*
X191052848Y-123800000D01*
X190052848Y-123800000D02*
X191052848Y-123800000D01*
X178052848Y-137800000D02*
X177052848Y-137800000D01*
X177052848Y-136800000D02*
X177052848Y-137800000D01*
X177052848Y-123800000D02*
X178052848Y-123800000D01*
X177052848Y-123800000D02*
X177052848Y-124800000D01*
%TO.C,K22*%
X129152848Y-118800000D02*
X129152848Y-117800000D01*
X129152848Y-118800000D02*
X128152848Y-118800000D01*
X129152848Y-105800000D02*
X129152848Y-104800000D01*
X128152848Y-104800000D02*
X129152848Y-104800000D01*
X116152848Y-118800000D02*
X115152848Y-118800000D01*
X115152848Y-117800000D02*
X115152848Y-118800000D01*
X115152848Y-104800000D02*
X116152848Y-104800000D01*
X115152848Y-104800000D02*
X115152848Y-105800000D01*
%TD*%
M02*
